G04 ================== begin FILE IDENTIFICATION RECORD ==================*
G04 Layout Name:  Z1044-B.brd*
G04 Film Name:    assembly_top*
G04 File Format:  Gerber RS274X*
G04 File Origin:  Cadence Allegro 16.6-S019*
G04 Origin Date:  Fri Nov 18 12:25:08 2016*
G04 *
G04 Layer:  REF DES/ASSEMBLY_TOP*
G04 Layer:  PACKAGE GEOMETRY/ASSEMBLY_TOP*
G04 Layer:  BOARD GEOMETRY/OUTLINE*
G04 *
G04 Offset:    (0.000 0.000)*
G04 Mirror:    No*
G04 Mode:      Positive*
G04 Rotation:  0*
G04 FullContactRelief:  No*
G04 UndefLineWidth:     0.020*
G04 ================== end FILE IDENTIFICATION RECORD ====================*
%FSLAX25Y25*MOIN*%
%IR0*IPPOS*OFA0.00000B0.00000*MIA0B0*SFA1.00000B1.00000*%
%ADD10C,.001969*%
%ADD11C,.003937*%
%ADD12C,.000787*%
%ADD13C,.005906*%
%ADD14C,.000118*%
G75*
%LPD*%
G75*
G54D10*
G01X-4913Y-102689D02*
X-4988Y-102787D01*
X-5039Y-102902D01*
Y-103035D01*
X-4965Y-103181D01*
X-4839Y-103295D01*
X-4689Y-103378D01*
X-4441Y-103445D01*
X-4217Y-103461D01*
X-3992Y-103429D01*
X-3843Y-103378D01*
X-3693Y-103280D01*
X-3594Y-103165D01*
X-3543Y-103051D01*
Y-102937D01*
X-3594Y-102823D01*
X-3669Y-102724D01*
X-3768Y-102642D01*
G01X-4791Y-102181D02*
X-4941Y-102083D01*
X-5016Y-101969D01*
X-5039Y-101839D01*
X-4988Y-101673D01*
X-4866Y-101559D01*
X-4717Y-101524D01*
X-4567Y-101543D01*
X-4441Y-101606D01*
X-4193Y-101937D01*
X-4016Y-102083D01*
X-3768Y-102181D01*
X-3543Y-102217D01*
Y-101524D01*
G01X-3843Y-101051D02*
X-3669Y-100953D01*
X-3567Y-100819D01*
X-3543Y-100673D01*
X-3567Y-100539D01*
X-3693Y-100409D01*
X-3843Y-100327D01*
X-3992Y-100311D01*
X-4165Y-100343D01*
X-4291Y-100461D01*
X-4343Y-100575D01*
Y-100720D01*
G01Y-100575D02*
X-4417Y-100476D01*
X-4539Y-100394D01*
X-4689Y-100362D01*
X-4839Y-100394D01*
X-4965Y-100476D01*
X-5039Y-100622D01*
X-5016Y-100772D01*
X-4913Y-100917D01*
G01X-3543Y-99508D02*
X-5039D01*
X-4740Y-99705D01*
G01X-3543D02*
Y-99311D01*
G01X-8850Y-102689D02*
X-8925Y-102787D01*
X-8976Y-102902D01*
Y-103035D01*
X-8902Y-103181D01*
X-8776Y-103295D01*
X-8626Y-103378D01*
X-8378Y-103445D01*
X-8154Y-103461D01*
X-7929Y-103429D01*
X-7780Y-103378D01*
X-7630Y-103280D01*
X-7531Y-103165D01*
X-7480Y-103051D01*
Y-102937D01*
X-7531Y-102823D01*
X-7606Y-102724D01*
X-7705Y-102642D01*
G01X-8728Y-102181D02*
X-8878Y-102083D01*
X-8953Y-101969D01*
X-8976Y-101839D01*
X-8925Y-101673D01*
X-8803Y-101559D01*
X-8654Y-101524D01*
X-8504Y-101543D01*
X-8378Y-101606D01*
X-8130Y-101937D01*
X-7953Y-102083D01*
X-7705Y-102181D01*
X-7480Y-102217D01*
Y-101524D01*
G01X-8728Y-101000D02*
X-8878Y-100902D01*
X-8953Y-100787D01*
X-8976Y-100657D01*
X-8925Y-100492D01*
X-8803Y-100378D01*
X-8654Y-100343D01*
X-8504Y-100362D01*
X-8378Y-100425D01*
X-8130Y-100756D01*
X-7953Y-100902D01*
X-7705Y-101000D01*
X-7480Y-101035D01*
Y-100343D01*
G01Y-99508D02*
X-8976D01*
X-8677Y-99705D01*
G01X-7480D02*
Y-99311D01*
G01X-7413Y-73433D02*
X-7512Y-73358D01*
X-7626Y-73307D01*
X-7760D01*
X-7906Y-73382D01*
X-8020Y-73508D01*
X-8102Y-73657D01*
X-8169Y-73906D01*
X-8185Y-74130D01*
X-8154Y-74354D01*
X-8102Y-74504D01*
X-8004Y-74654D01*
X-7890Y-74752D01*
X-7776Y-74803D01*
X-7661D01*
X-7547Y-74752D01*
X-7449Y-74677D01*
X-7366Y-74579D01*
G01X-6594Y-74803D02*
Y-73307D01*
X-6791Y-73606D01*
G01Y-74803D02*
X-6398D01*
G01X-5776Y-74504D02*
X-5677Y-74677D01*
X-5543Y-74780D01*
X-5398Y-74803D01*
X-5264Y-74780D01*
X-5134Y-74654D01*
X-5051Y-74504D01*
X-5035Y-74354D01*
X-5067Y-74181D01*
X-5185Y-74055D01*
X-5299Y-74004D01*
X-5445D01*
G01X-5299D02*
X-5201Y-73929D01*
X-5118Y-73807D01*
X-5087Y-73657D01*
X-5118Y-73508D01*
X-5201Y-73382D01*
X-5346Y-73307D01*
X-5496Y-73331D01*
X-5642Y-73433D01*
G01X-4232Y-74803D02*
Y-73307D01*
X-4429Y-73606D01*
G01Y-74803D02*
X-4035D01*
G01X-866Y-51575D02*
Y-50583D01*
X-1339Y-49370D01*
G01X-394D02*
X-866Y-50583D01*
G01X748Y-51575D02*
Y-49370D01*
X465Y-49811D01*
G01Y-51575D02*
X1031D01*
G01X-1803Y-36614D02*
Y-35118D01*
X-1394D01*
X-1264Y-35193D01*
X-1181Y-35291D01*
X-1150Y-35492D01*
X-1181Y-35693D01*
X-1280Y-35815D01*
X-1394Y-35890D01*
X-1803D01*
G01X-1394D02*
X-1150Y-36614D01*
G01X-606Y-35366D02*
X-508Y-35217D01*
X-394Y-35142D01*
X-264Y-35118D01*
X-98Y-35169D01*
X16Y-35291D01*
X51Y-35441D01*
X31Y-35591D01*
X-31Y-35717D01*
X-362Y-35965D01*
X-508Y-36142D01*
X-606Y-36390D01*
X-642Y-36614D01*
X51D01*
G01X575Y-35366D02*
X673Y-35217D01*
X787Y-35142D01*
X917Y-35118D01*
X1083Y-35169D01*
X1197Y-35291D01*
X1232Y-35441D01*
X1213Y-35591D01*
X1150Y-35717D01*
X819Y-35965D01*
X673Y-36142D01*
X575Y-36390D01*
X539Y-36614D01*
X1232D01*
G01X-622Y-40551D02*
Y-39055D01*
X-213D01*
X-83Y-39130D01*
X0Y-39228D01*
X31Y-39429D01*
X0Y-39630D01*
X-98Y-39752D01*
X-213Y-39827D01*
X-622D01*
G01X-213D02*
X31Y-40551D01*
G01X575Y-39303D02*
X673Y-39154D01*
X787Y-39079D01*
X917Y-39055D01*
X1083Y-39106D01*
X1197Y-39228D01*
X1232Y-39378D01*
X1213Y-39528D01*
X1150Y-39654D01*
X819Y-39902D01*
X673Y-40079D01*
X575Y-40327D01*
X539Y-40551D01*
X1232D01*
G01X2067D02*
Y-39055D01*
X1870Y-39354D01*
G01Y-40551D02*
X2264D01*
G01X10709Y-109283D02*
X12205D01*
Y-108630D01*
G01X11906Y-108138D02*
X12079Y-108039D01*
X12181Y-107906D01*
X12205Y-107760D01*
X12181Y-107626D01*
X12055Y-107496D01*
X11906Y-107413D01*
X11756Y-107398D01*
X11583Y-107429D01*
X11457Y-107547D01*
X11406Y-107661D01*
Y-107807D01*
G01Y-107661D02*
X11331Y-107563D01*
X11209Y-107480D01*
X11059Y-107449D01*
X10909Y-107480D01*
X10783Y-107563D01*
X10709Y-107709D01*
X10732Y-107858D01*
X10835Y-108004D01*
G01X11906Y-106957D02*
X12079Y-106858D01*
X12181Y-106724D01*
X12205Y-106579D01*
X12181Y-106445D01*
X12055Y-106315D01*
X11906Y-106232D01*
X11756Y-106217D01*
X11583Y-106248D01*
X11457Y-106366D01*
X11406Y-106480D01*
Y-106626D01*
G01Y-106480D02*
X11331Y-106382D01*
X11209Y-106299D01*
X11059Y-106268D01*
X10909Y-106299D01*
X10783Y-106382D01*
X10709Y-106528D01*
X10732Y-106677D01*
X10835Y-106823D01*
G01X12205Y-105413D02*
X10709D01*
X11008Y-105610D01*
G01X12205D02*
Y-105217D01*
G01X17783Y-117134D02*
X17685Y-117059D01*
X17571Y-117008D01*
X17437D01*
X17291Y-117083D01*
X17177Y-117209D01*
X17094Y-117358D01*
X17028Y-117606D01*
X17012Y-117831D01*
X17043Y-118055D01*
X17094Y-118205D01*
X17193Y-118354D01*
X17307Y-118453D01*
X17421Y-118504D01*
X17535D01*
X17650Y-118453D01*
X17748Y-118378D01*
X17831Y-118280D01*
G01X18240Y-118205D02*
X18339Y-118378D01*
X18472Y-118480D01*
X18618Y-118504D01*
X18752Y-118480D01*
X18882Y-118354D01*
X18965Y-118205D01*
X18980Y-118055D01*
X18949Y-117882D01*
X18831Y-117756D01*
X18717Y-117705D01*
X18571D01*
G01X18717D02*
X18815Y-117630D01*
X18898Y-117508D01*
X18929Y-117358D01*
X18898Y-117209D01*
X18815Y-117083D01*
X18669Y-117008D01*
X18520Y-117031D01*
X18374Y-117134D01*
G01X19421Y-118205D02*
X19520Y-118378D01*
X19654Y-118480D01*
X19799Y-118504D01*
X19933Y-118480D01*
X20063Y-118354D01*
X20146Y-118205D01*
X20161Y-118055D01*
X20130Y-117882D01*
X20012Y-117756D01*
X19898Y-117705D01*
X19752D01*
G01X19898D02*
X19996Y-117630D01*
X20079Y-117508D01*
X20110Y-117358D01*
X20079Y-117209D01*
X19996Y-117083D01*
X19850Y-117008D01*
X19701Y-117031D01*
X19555Y-117134D01*
G01X20965Y-118504D02*
Y-117008D01*
X20768Y-117307D01*
G01Y-118504D02*
X21161D01*
G01X21465Y-100327D02*
X21390Y-100425D01*
X21339Y-100539D01*
Y-100673D01*
X21413Y-100819D01*
X21539Y-100933D01*
X21689Y-101016D01*
X21937Y-101083D01*
X22161Y-101098D01*
X22386Y-101067D01*
X22535Y-101016D01*
X22685Y-100917D01*
X22783Y-100803D01*
X22835Y-100689D01*
Y-100575D01*
X22783Y-100461D01*
X22709Y-100362D01*
X22610Y-100280D01*
G01X22535Y-99870D02*
X22709Y-99772D01*
X22811Y-99638D01*
X22835Y-99492D01*
X22811Y-99358D01*
X22685Y-99228D01*
X22535Y-99146D01*
X22386Y-99130D01*
X22213Y-99161D01*
X22087Y-99280D01*
X22035Y-99394D01*
Y-99539D01*
G01Y-99394D02*
X21961Y-99295D01*
X21839Y-99213D01*
X21689Y-99181D01*
X21539Y-99213D01*
X21413Y-99295D01*
X21339Y-99441D01*
X21362Y-99591D01*
X21465Y-99736D01*
G01X22835Y-98130D02*
X21339D01*
X22409Y-98736D01*
Y-97917D01*
G01X22835Y-97146D02*
X21339D01*
X21638Y-97343D01*
G01X22835D02*
Y-96949D01*
G01X12016Y-60169D02*
X11941Y-60268D01*
X11890Y-60382D01*
Y-60516D01*
X11965Y-60661D01*
X12091Y-60776D01*
X12240Y-60858D01*
X12488Y-60925D01*
X12713Y-60941D01*
X12937Y-60909D01*
X13087Y-60858D01*
X13236Y-60760D01*
X13335Y-60646D01*
X13386Y-60531D01*
Y-60417D01*
X13335Y-60303D01*
X13260Y-60205D01*
X13161Y-60122D01*
G01X13386Y-59154D02*
X11890D01*
X12961Y-59760D01*
Y-58941D01*
G01X13386Y-58169D02*
X13362Y-58055D01*
X13287Y-57925D01*
X13161Y-57843D01*
X12988Y-57807D01*
X12811Y-57843D01*
X12661Y-57941D01*
X12587Y-58087D01*
Y-58252D01*
X12539Y-58350D01*
X12413Y-58433D01*
X12240Y-58465D01*
X12063Y-58413D01*
X11941Y-58299D01*
X11890Y-58169D01*
X11941Y-58039D01*
X12063Y-57925D01*
X12240Y-57874D01*
X12413Y-57906D01*
X12539Y-57988D01*
X12587Y-58087D01*
Y-58252D01*
X12661Y-58398D01*
X12811Y-58496D01*
X12988Y-58531D01*
X13161Y-58496D01*
X13287Y-58413D01*
X13362Y-58283D01*
X13386Y-58169D01*
G01Y-56988D02*
X13362Y-56874D01*
X13287Y-56744D01*
X13161Y-56661D01*
X12988Y-56626D01*
X12811Y-56661D01*
X12661Y-56760D01*
X12587Y-56906D01*
Y-57071D01*
X12539Y-57169D01*
X12413Y-57252D01*
X12240Y-57283D01*
X12063Y-57232D01*
X11941Y-57118D01*
X11890Y-56988D01*
X11941Y-56858D01*
X12063Y-56744D01*
X12240Y-56693D01*
X12413Y-56724D01*
X12539Y-56807D01*
X12587Y-56906D01*
Y-57071D01*
X12661Y-57217D01*
X12811Y-57315D01*
X12988Y-57350D01*
X13161Y-57315D01*
X13287Y-57232D01*
X13362Y-57102D01*
X13386Y-56988D01*
G01X10835Y-42059D02*
X10760Y-42157D01*
X10709Y-42272D01*
Y-42406D01*
X10783Y-42551D01*
X10909Y-42665D01*
X11059Y-42748D01*
X11307Y-42815D01*
X11531Y-42831D01*
X11756Y-42799D01*
X11906Y-42748D01*
X12055Y-42650D01*
X12154Y-42535D01*
X12205Y-42421D01*
Y-42307D01*
X12154Y-42193D01*
X12079Y-42094D01*
X11980Y-42012D01*
G01X12205Y-41043D02*
X10709D01*
X11780Y-41650D01*
Y-40831D01*
G01X11583Y-40370D02*
X11406Y-40256D01*
X11307Y-40157D01*
X11256Y-40028D01*
X11307Y-39909D01*
X11406Y-39831D01*
X11555Y-39764D01*
X11732Y-39748D01*
X11882Y-39764D01*
X12031Y-39831D01*
X12154Y-39929D01*
X12205Y-40043D01*
X12154Y-40173D01*
X12004Y-40287D01*
X11780Y-40354D01*
X11531Y-40370D01*
X11209Y-40339D01*
X11031Y-40287D01*
X10858Y-40209D01*
X10732Y-40091D01*
X10709Y-39976D01*
X10760Y-39862D01*
X10882Y-39780D01*
G01X14634Y-47449D02*
X14535Y-47374D01*
X14421Y-47323D01*
X14287D01*
X14142Y-47398D01*
X14028Y-47524D01*
X13945Y-47673D01*
X13878Y-47921D01*
X13862Y-48146D01*
X13894Y-48370D01*
X13945Y-48520D01*
X14043Y-48669D01*
X14157Y-48768D01*
X14272Y-48819D01*
X14386D01*
X14500Y-48768D01*
X14598Y-48693D01*
X14681Y-48594D01*
G01X15453Y-48819D02*
Y-47323D01*
X15256Y-47622D01*
G01Y-48819D02*
X15650D01*
G01X16323Y-47571D02*
X16421Y-47421D01*
X16535Y-47346D01*
X16665Y-47323D01*
X16831Y-47374D01*
X16945Y-47496D01*
X16980Y-47646D01*
X16961Y-47795D01*
X16898Y-47921D01*
X16567Y-48169D01*
X16421Y-48346D01*
X16323Y-48594D01*
X16287Y-48819D01*
X16980D01*
G01X7685Y-48358D02*
X7610Y-48457D01*
X7559Y-48571D01*
Y-48705D01*
X7634Y-48850D01*
X7760Y-48965D01*
X7909Y-49047D01*
X8157Y-49114D01*
X8382Y-49130D01*
X8606Y-49098D01*
X8756Y-49047D01*
X8906Y-48949D01*
X9004Y-48835D01*
X9055Y-48720D01*
Y-48606D01*
X9004Y-48492D01*
X8929Y-48394D01*
X8831Y-48311D01*
G01X9055Y-47343D02*
X7559D01*
X8630Y-47949D01*
Y-47130D01*
G01X9055Y-46358D02*
X7559D01*
X7858Y-46555D01*
G01X9055D02*
Y-46161D01*
G01X8079Y-55839D02*
X8004Y-55937D01*
X7953Y-56051D01*
Y-56185D01*
X8028Y-56331D01*
X8154Y-56445D01*
X8303Y-56528D01*
X8551Y-56594D01*
X8776Y-56610D01*
X9000Y-56579D01*
X9150Y-56528D01*
X9299Y-56429D01*
X9398Y-56315D01*
X9449Y-56201D01*
Y-56087D01*
X9398Y-55972D01*
X9323Y-55874D01*
X9224Y-55791D01*
G01Y-55382D02*
X9350Y-55283D01*
X9425Y-55169D01*
X9449Y-55020D01*
X9398Y-54870D01*
X9299Y-54756D01*
X9126Y-54673D01*
X8925Y-54657D01*
X8724Y-54693D01*
X8602Y-54776D01*
X8500Y-54890D01*
X8476Y-55004D01*
X8500Y-55118D01*
X8602Y-55264D01*
X7953Y-55217D01*
Y-54776D01*
G01X9449Y-53839D02*
X7953D01*
X8252Y-54035D01*
G01X9449D02*
Y-53642D01*
G01X18189Y-54953D02*
X19685D01*
Y-54299D01*
G01Y-53445D02*
X18189D01*
X18488Y-53642D01*
G01X19685D02*
Y-53248D01*
G01Y-52264D02*
X18189D01*
X18488Y-52461D01*
G01X19685D02*
Y-52067D01*
G01X13197Y-26705D02*
X13122Y-26803D01*
X13071Y-26917D01*
Y-27051D01*
X13146Y-27197D01*
X13272Y-27311D01*
X13421Y-27394D01*
X13669Y-27461D01*
X13894Y-27476D01*
X14118Y-27445D01*
X14268Y-27394D01*
X14417Y-27295D01*
X14516Y-27181D01*
X14567Y-27067D01*
Y-26953D01*
X14516Y-26839D01*
X14441Y-26740D01*
X14343Y-26657D01*
G01X13319Y-26197D02*
X13169Y-26098D01*
X13094Y-25984D01*
X13071Y-25854D01*
X13122Y-25689D01*
X13244Y-25575D01*
X13394Y-25539D01*
X13543Y-25559D01*
X13669Y-25622D01*
X13917Y-25953D01*
X14094Y-26098D01*
X14343Y-26197D01*
X14567Y-26232D01*
Y-25539D01*
G01X14394Y-24984D02*
X14516Y-24870D01*
X14567Y-24736D01*
X14516Y-24606D01*
X14366Y-24492D01*
X14142Y-24409D01*
X13917Y-24378D01*
X13646D01*
X13421Y-24409D01*
X13220Y-24492D01*
X13122Y-24591D01*
X13071Y-24705D01*
X13122Y-24835D01*
X13220Y-24933D01*
X13370Y-25000D01*
X13571Y-25031D01*
X13744Y-25000D01*
X13917Y-24917D01*
X14020Y-24819D01*
X14043Y-24705D01*
X13992Y-24575D01*
X13870Y-24476D01*
X13646Y-24378D01*
G01X11091Y-32882D02*
X10992Y-32807D01*
X10878Y-32756D01*
X10744D01*
X10598Y-32831D01*
X10484Y-32957D01*
X10402Y-33106D01*
X10335Y-33354D01*
X10319Y-33579D01*
X10350Y-33803D01*
X10402Y-33953D01*
X10500Y-34102D01*
X10614Y-34201D01*
X10728Y-34252D01*
X10843D01*
X10957Y-34201D01*
X11055Y-34126D01*
X11138Y-34028D01*
G01X12106Y-34252D02*
Y-32756D01*
X11500Y-33827D01*
X12319D01*
G01X13059Y-34252D02*
X13091Y-33929D01*
X13142Y-33654D01*
X13205Y-33406D01*
X13287Y-33130D01*
X13417Y-32756D01*
X12764D01*
G01X18583Y-19913D02*
X20079D01*
Y-19260D01*
G01X19780Y-18768D02*
X19953Y-18669D01*
X20055Y-18535D01*
X20079Y-18390D01*
X20055Y-18256D01*
X19929Y-18126D01*
X19780Y-18043D01*
X19630Y-18028D01*
X19457Y-18059D01*
X19331Y-18177D01*
X19280Y-18291D01*
Y-18437D01*
G01Y-18291D02*
X19205Y-18193D01*
X19083Y-18110D01*
X18933Y-18079D01*
X18783Y-18110D01*
X18657Y-18193D01*
X18583Y-18339D01*
X18606Y-18488D01*
X18709Y-18634D01*
G01X19780Y-17587D02*
X19953Y-17488D01*
X20055Y-17354D01*
X20079Y-17209D01*
X20055Y-17075D01*
X19929Y-16945D01*
X19780Y-16862D01*
X19630Y-16846D01*
X19457Y-16878D01*
X19331Y-16996D01*
X19280Y-17110D01*
Y-17256D01*
G01Y-17110D02*
X19205Y-17012D01*
X19083Y-16929D01*
X18933Y-16898D01*
X18783Y-16929D01*
X18657Y-17012D01*
X18583Y-17157D01*
X18606Y-17307D01*
X18709Y-17453D01*
G01X18831Y-16354D02*
X18681Y-16256D01*
X18606Y-16142D01*
X18583Y-16012D01*
X18634Y-15846D01*
X18756Y-15732D01*
X18906Y-15697D01*
X19055Y-15717D01*
X19181Y-15780D01*
X19429Y-16110D01*
X19606Y-16256D01*
X19854Y-16354D01*
X20079Y-16390D01*
Y-15697D01*
G01X18965Y-5717D02*
X18866Y-5642D01*
X18752Y-5591D01*
X18618D01*
X18472Y-5665D01*
X18358Y-5791D01*
X18276Y-5941D01*
X18209Y-6189D01*
X18193Y-6413D01*
X18224Y-6638D01*
X18276Y-6787D01*
X18374Y-6937D01*
X18488Y-7035D01*
X18602Y-7087D01*
X18717D01*
X18831Y-7035D01*
X18929Y-6961D01*
X19012Y-6862D01*
G01X19752Y-7087D02*
X19783Y-6764D01*
X19835Y-6488D01*
X19898Y-6240D01*
X19980Y-5965D01*
X20110Y-5591D01*
X19457D01*
G01X20654Y-5839D02*
X20752Y-5689D01*
X20866Y-5614D01*
X20996Y-5591D01*
X21161Y-5642D01*
X21276Y-5764D01*
X21311Y-5913D01*
X21291Y-6063D01*
X21228Y-6189D01*
X20898Y-6437D01*
X20752Y-6614D01*
X20654Y-6862D01*
X20618Y-7087D01*
X21311D01*
G01X26976Y-112925D02*
X26902Y-113024D01*
X26850Y-113138D01*
Y-113272D01*
X26925Y-113417D01*
X27051Y-113531D01*
X27201Y-113614D01*
X27449Y-113681D01*
X27673Y-113697D01*
X27898Y-113665D01*
X28047Y-113614D01*
X28197Y-113516D01*
X28295Y-113402D01*
X28346Y-113287D01*
Y-113173D01*
X28295Y-113059D01*
X28220Y-112961D01*
X28122Y-112878D01*
G01X28047Y-112469D02*
X28220Y-112370D01*
X28323Y-112236D01*
X28346Y-112091D01*
X28323Y-111957D01*
X28197Y-111827D01*
X28047Y-111744D01*
X27898Y-111728D01*
X27724Y-111760D01*
X27598Y-111878D01*
X27547Y-111992D01*
Y-112138D01*
G01Y-111992D02*
X27472Y-111894D01*
X27350Y-111811D01*
X27201Y-111780D01*
X27051Y-111811D01*
X26925Y-111894D01*
X26850Y-112039D01*
X26874Y-112189D01*
X26976Y-112335D01*
G01X28346Y-110728D02*
X26850D01*
X27921Y-111335D01*
Y-110516D01*
G01X27098Y-110055D02*
X26949Y-109957D01*
X26874Y-109843D01*
X26850Y-109713D01*
X26902Y-109547D01*
X27024Y-109433D01*
X27173Y-109398D01*
X27323Y-109417D01*
X27449Y-109480D01*
X27697Y-109811D01*
X27874Y-109957D01*
X28122Y-110055D01*
X28346Y-110091D01*
Y-109398D01*
G01X34457Y-106232D02*
X34382Y-106331D01*
X34331Y-106445D01*
Y-106579D01*
X34406Y-106724D01*
X34531Y-106839D01*
X34681Y-106921D01*
X34929Y-106988D01*
X35154Y-107004D01*
X35378Y-106972D01*
X35528Y-106921D01*
X35677Y-106823D01*
X35776Y-106709D01*
X35827Y-106594D01*
Y-106480D01*
X35776Y-106366D01*
X35701Y-106268D01*
X35602Y-106185D01*
G01X35528Y-105776D02*
X35701Y-105677D01*
X35803Y-105543D01*
X35827Y-105398D01*
X35803Y-105264D01*
X35677Y-105134D01*
X35528Y-105051D01*
X35378Y-105035D01*
X35205Y-105067D01*
X35079Y-105185D01*
X35028Y-105299D01*
Y-105445D01*
G01Y-105299D02*
X34953Y-105201D01*
X34831Y-105118D01*
X34681Y-105087D01*
X34531Y-105118D01*
X34406Y-105201D01*
X34331Y-105346D01*
X34354Y-105496D01*
X34457Y-105642D01*
G01X35602Y-104594D02*
X35728Y-104496D01*
X35803Y-104382D01*
X35827Y-104232D01*
X35776Y-104083D01*
X35677Y-103969D01*
X35504Y-103886D01*
X35303Y-103870D01*
X35102Y-103906D01*
X34980Y-103988D01*
X34878Y-104102D01*
X34854Y-104217D01*
X34878Y-104331D01*
X34980Y-104476D01*
X34331Y-104429D01*
Y-103988D01*
G01X35827Y-103051D02*
X34331D01*
X34630Y-103248D01*
G01X35827D02*
Y-102854D01*
G01X32283Y-106921D02*
X30787D01*
Y-106512D01*
X30862Y-106382D01*
X30961Y-106299D01*
X31161Y-106268D01*
X31362Y-106299D01*
X31484Y-106398D01*
X31559Y-106512D01*
Y-106921D01*
G01Y-106512D02*
X32283Y-106268D01*
G01X31984Y-105776D02*
X32157Y-105677D01*
X32260Y-105543D01*
X32283Y-105398D01*
X32260Y-105264D01*
X32134Y-105134D01*
X31984Y-105051D01*
X31835Y-105035D01*
X31661Y-105067D01*
X31535Y-105185D01*
X31484Y-105299D01*
Y-105445D01*
G01Y-105299D02*
X31409Y-105201D01*
X31287Y-105118D01*
X31138Y-105087D01*
X30988Y-105118D01*
X30862Y-105201D01*
X30787Y-105346D01*
X30811Y-105496D01*
X30913Y-105642D01*
G01X32059Y-104594D02*
X32185Y-104496D01*
X32260Y-104382D01*
X32283Y-104232D01*
X32232Y-104083D01*
X32134Y-103969D01*
X31961Y-103886D01*
X31760Y-103870D01*
X31559Y-103906D01*
X31437Y-103988D01*
X31335Y-104102D01*
X31311Y-104217D01*
X31335Y-104331D01*
X31437Y-104476D01*
X30787Y-104429D01*
Y-103988D01*
G01X32283Y-103051D02*
X30787D01*
X31087Y-103248D01*
G01X32283D02*
Y-102854D01*
G01X38256Y-80520D02*
X38157Y-80445D01*
X38043Y-80394D01*
X37909D01*
X37764Y-80469D01*
X37650Y-80594D01*
X37567Y-80744D01*
X37500Y-80992D01*
X37484Y-81217D01*
X37516Y-81441D01*
X37567Y-81591D01*
X37665Y-81740D01*
X37780Y-81839D01*
X37894Y-81890D01*
X38008D01*
X38122Y-81839D01*
X38220Y-81764D01*
X38303Y-81665D01*
G01X39272Y-81890D02*
Y-80394D01*
X38665Y-81465D01*
X39484D01*
G01X40453Y-81890D02*
Y-80394D01*
X39846Y-81465D01*
X40665D01*
G01X41437Y-81890D02*
Y-80394D01*
X41240Y-80693D01*
G01Y-81890D02*
X41634D01*
G01X37862Y-76583D02*
X37764Y-76508D01*
X37650Y-76457D01*
X37516D01*
X37370Y-76531D01*
X37256Y-76657D01*
X37173Y-76807D01*
X37106Y-77055D01*
X37091Y-77280D01*
X37122Y-77504D01*
X37173Y-77654D01*
X37272Y-77803D01*
X37386Y-77902D01*
X37500Y-77953D01*
X37614D01*
X37728Y-77902D01*
X37827Y-77827D01*
X37909Y-77728D01*
G01X38878Y-77953D02*
Y-76457D01*
X38272Y-77528D01*
X39091D01*
G01X39500Y-77728D02*
X39598Y-77854D01*
X39713Y-77929D01*
X39862Y-77953D01*
X40012Y-77902D01*
X40126Y-77803D01*
X40209Y-77630D01*
X40224Y-77429D01*
X40189Y-77228D01*
X40106Y-77106D01*
X39992Y-77004D01*
X39878Y-76980D01*
X39764Y-77004D01*
X39618Y-77106D01*
X39665Y-76457D01*
X40106D01*
G01X41043Y-77953D02*
Y-76457D01*
X40846Y-76756D01*
G01Y-77953D02*
X41240D01*
G01X31563Y-71071D02*
X31465Y-70996D01*
X31350Y-70945D01*
X31217D01*
X31071Y-71020D01*
X30957Y-71146D01*
X30874Y-71295D01*
X30807Y-71543D01*
X30791Y-71768D01*
X30823Y-71992D01*
X30874Y-72142D01*
X30972Y-72291D01*
X31087Y-72390D01*
X31201Y-72441D01*
X31315D01*
X31429Y-72390D01*
X31528Y-72315D01*
X31610Y-72217D01*
G01X32579Y-72441D02*
Y-70945D01*
X31972Y-72016D01*
X32791D01*
G01X33563Y-72441D02*
X33677Y-72417D01*
X33807Y-72343D01*
X33890Y-72217D01*
X33925Y-72043D01*
X33890Y-71866D01*
X33791Y-71717D01*
X33646Y-71642D01*
X33480D01*
X33382Y-71594D01*
X33299Y-71469D01*
X33268Y-71295D01*
X33319Y-71118D01*
X33433Y-70996D01*
X33563Y-70945D01*
X33693Y-70996D01*
X33807Y-71118D01*
X33858Y-71295D01*
X33827Y-71469D01*
X33744Y-71594D01*
X33646Y-71642D01*
X33480D01*
X33335Y-71717D01*
X33236Y-71866D01*
X33201Y-72043D01*
X33236Y-72217D01*
X33319Y-72343D01*
X33449Y-72417D01*
X33563Y-72441D01*
G01X34744D02*
Y-70945D01*
X34547Y-71244D01*
G01Y-72441D02*
X34941D01*
G01X23689Y-58472D02*
X23591Y-58398D01*
X23476Y-58346D01*
X23343D01*
X23197Y-58421D01*
X23083Y-58547D01*
X23000Y-58697D01*
X22933Y-58945D01*
X22917Y-59169D01*
X22949Y-59394D01*
X23000Y-59543D01*
X23098Y-59693D01*
X23213Y-59791D01*
X23327Y-59843D01*
X23441D01*
X23555Y-59791D01*
X23654Y-59717D01*
X23736Y-59618D01*
G01X24508Y-59843D02*
Y-58346D01*
X24311Y-58646D01*
G01Y-59843D02*
X24705D01*
G01X25689D02*
Y-58346D01*
X25492Y-58646D01*
G01Y-59843D02*
X25886D01*
G01X29732Y-62925D02*
X29657Y-63024D01*
X29606Y-63138D01*
Y-63272D01*
X29681Y-63417D01*
X29807Y-63531D01*
X29957Y-63614D01*
X30205Y-63681D01*
X30429Y-63697D01*
X30654Y-63665D01*
X30803Y-63614D01*
X30953Y-63516D01*
X31051Y-63402D01*
X31102Y-63287D01*
Y-63173D01*
X31051Y-63059D01*
X30976Y-62961D01*
X30878Y-62878D01*
G01X31102Y-61909D02*
X29606D01*
X30677Y-62516D01*
Y-61697D01*
G01X31102Y-60925D02*
X31079Y-60811D01*
X31004Y-60681D01*
X30878Y-60598D01*
X30705Y-60563D01*
X30528Y-60598D01*
X30378Y-60697D01*
X30303Y-60843D01*
Y-61008D01*
X30256Y-61106D01*
X30130Y-61189D01*
X29957Y-61220D01*
X29780Y-61169D01*
X29657Y-61055D01*
X29606Y-60925D01*
X29657Y-60795D01*
X29780Y-60681D01*
X29957Y-60630D01*
X30130Y-60661D01*
X30256Y-60744D01*
X30303Y-60843D01*
Y-61008D01*
X30378Y-61154D01*
X30528Y-61252D01*
X30705Y-61287D01*
X30878Y-61252D01*
X31004Y-61169D01*
X31079Y-61039D01*
X31102Y-60925D01*
G01X30929Y-60024D02*
X31051Y-59909D01*
X31102Y-59776D01*
X31051Y-59646D01*
X30902Y-59531D01*
X30677Y-59449D01*
X30453Y-59417D01*
X30181D01*
X29957Y-59449D01*
X29756Y-59531D01*
X29657Y-59630D01*
X29606Y-59744D01*
X29657Y-59874D01*
X29756Y-59972D01*
X29906Y-60039D01*
X30106Y-60071D01*
X30280Y-60039D01*
X30453Y-59957D01*
X30555Y-59858D01*
X30579Y-59744D01*
X30528Y-59614D01*
X30406Y-59516D01*
X30181Y-59417D01*
G01X23000Y-62283D02*
Y-63780D01*
X23654D01*
G01X24508D02*
Y-62283D01*
X24311Y-62583D01*
G01Y-63780D02*
X24705D01*
G01X27724Y-57165D02*
Y-58661D01*
X28378D01*
G01X28870Y-58362D02*
X28969Y-58535D01*
X29102Y-58638D01*
X29248Y-58661D01*
X29382Y-58638D01*
X29512Y-58512D01*
X29594Y-58362D01*
X29610Y-58213D01*
X29579Y-58039D01*
X29461Y-57913D01*
X29346Y-57862D01*
X29201D01*
G01X29346D02*
X29445Y-57787D01*
X29528Y-57665D01*
X29559Y-57516D01*
X29528Y-57366D01*
X29445Y-57240D01*
X29299Y-57165D01*
X29150Y-57189D01*
X29004Y-57291D01*
G01X30051Y-58362D02*
X30150Y-58535D01*
X30283Y-58638D01*
X30429Y-58661D01*
X30563Y-58638D01*
X30693Y-58512D01*
X30776Y-58362D01*
X30791Y-58213D01*
X30760Y-58039D01*
X30642Y-57913D01*
X30528Y-57862D01*
X30382D01*
G01X30528D02*
X30626Y-57787D01*
X30709Y-57665D01*
X30740Y-57516D01*
X30709Y-57366D01*
X30626Y-57240D01*
X30480Y-57165D01*
X30331Y-57189D01*
X30185Y-57291D01*
G01X31232Y-58362D02*
X31331Y-58535D01*
X31465Y-58638D01*
X31610Y-58661D01*
X31744Y-58638D01*
X31874Y-58512D01*
X31957Y-58362D01*
X31972Y-58213D01*
X31941Y-58039D01*
X31823Y-57913D01*
X31709Y-57862D01*
X31563D01*
G01X31709D02*
X31807Y-57787D01*
X31890Y-57665D01*
X31921Y-57516D01*
X31890Y-57366D01*
X31807Y-57240D01*
X31661Y-57165D01*
X31512Y-57189D01*
X31366Y-57291D01*
G01X35638Y-46390D02*
X35563Y-46488D01*
X35512Y-46602D01*
Y-46736D01*
X35587Y-46882D01*
X35713Y-46996D01*
X35862Y-47079D01*
X36110Y-47146D01*
X36335Y-47161D01*
X36559Y-47130D01*
X36709Y-47079D01*
X36858Y-46980D01*
X36957Y-46866D01*
X37008Y-46752D01*
Y-46638D01*
X36957Y-46524D01*
X36882Y-46425D01*
X36783Y-46343D01*
G01X35760Y-45882D02*
X35610Y-45783D01*
X35535Y-45669D01*
X35512Y-45539D01*
X35563Y-45374D01*
X35685Y-45260D01*
X35835Y-45224D01*
X35984Y-45244D01*
X36110Y-45307D01*
X36358Y-45638D01*
X36535Y-45783D01*
X36783Y-45882D01*
X37008Y-45917D01*
Y-45224D01*
G01X36386Y-44701D02*
X36209Y-44587D01*
X36110Y-44488D01*
X36059Y-44358D01*
X36110Y-44240D01*
X36209Y-44161D01*
X36358Y-44094D01*
X36535Y-44079D01*
X36685Y-44094D01*
X36835Y-44161D01*
X36957Y-44260D01*
X37008Y-44374D01*
X36957Y-44504D01*
X36807Y-44618D01*
X36583Y-44685D01*
X36335Y-44701D01*
X36012Y-44669D01*
X35835Y-44618D01*
X35661Y-44539D01*
X35535Y-44421D01*
X35512Y-44307D01*
X35563Y-44193D01*
X35685Y-44110D01*
G01X30126Y-51114D02*
X30051Y-51213D01*
X30000Y-51327D01*
Y-51461D01*
X30075Y-51606D01*
X30201Y-51720D01*
X30350Y-51803D01*
X30598Y-51870D01*
X30823Y-51886D01*
X31047Y-51854D01*
X31197Y-51803D01*
X31346Y-51705D01*
X31445Y-51591D01*
X31496Y-51476D01*
Y-51362D01*
X31445Y-51248D01*
X31370Y-51150D01*
X31272Y-51067D01*
G01X31496Y-50098D02*
X30000D01*
X31071Y-50705D01*
Y-49886D01*
G01X31496Y-49114D02*
X31472Y-49000D01*
X31398Y-48870D01*
X31272Y-48787D01*
X31098Y-48752D01*
X30921Y-48787D01*
X30772Y-48886D01*
X30697Y-49031D01*
Y-49197D01*
X30650Y-49295D01*
X30524Y-49378D01*
X30350Y-49409D01*
X30173Y-49358D01*
X30051Y-49244D01*
X30000Y-49114D01*
X30051Y-48984D01*
X30173Y-48870D01*
X30350Y-48819D01*
X30524Y-48850D01*
X30650Y-48933D01*
X30697Y-49031D01*
Y-49197D01*
X30772Y-49343D01*
X30921Y-49441D01*
X31098Y-49476D01*
X31272Y-49441D01*
X31398Y-49358D01*
X31472Y-49228D01*
X31496Y-49114D01*
G01Y-47965D02*
X31173Y-47933D01*
X30898Y-47882D01*
X30650Y-47819D01*
X30374Y-47736D01*
X30000Y-47606D01*
Y-48260D01*
G01X23689Y-23827D02*
X23591Y-23752D01*
X23476Y-23701D01*
X23343D01*
X23197Y-23776D01*
X23083Y-23902D01*
X23000Y-24051D01*
X22933Y-24299D01*
X22917Y-24524D01*
X22949Y-24748D01*
X23000Y-24898D01*
X23098Y-25047D01*
X23213Y-25146D01*
X23327Y-25197D01*
X23441D01*
X23555Y-25146D01*
X23654Y-25071D01*
X23736Y-24972D01*
G01X24705Y-25197D02*
Y-23701D01*
X24098Y-24772D01*
X24917D01*
G01X25689Y-25197D02*
X25803Y-25173D01*
X25933Y-25098D01*
X26016Y-24972D01*
X26051Y-24799D01*
X26016Y-24622D01*
X25917Y-24472D01*
X25772Y-24398D01*
X25606D01*
X25508Y-24350D01*
X25425Y-24224D01*
X25394Y-24051D01*
X25445Y-23874D01*
X25559Y-23752D01*
X25689Y-23701D01*
X25819Y-23752D01*
X25933Y-23874D01*
X25984Y-24051D01*
X25953Y-24224D01*
X25870Y-24350D01*
X25772Y-24398D01*
X25606D01*
X25461Y-24472D01*
X25362Y-24622D01*
X25327Y-24799D01*
X25362Y-24972D01*
X25445Y-25098D01*
X25575Y-25173D01*
X25689Y-25197D01*
G01X26508Y-24972D02*
X26606Y-25098D01*
X26720Y-25173D01*
X26870Y-25197D01*
X27020Y-25146D01*
X27134Y-25047D01*
X27217Y-24874D01*
X27232Y-24673D01*
X27197Y-24472D01*
X27114Y-24350D01*
X27000Y-24248D01*
X26886Y-24224D01*
X26772Y-24248D01*
X26626Y-24350D01*
X26673Y-23701D01*
X27114D01*
G01X33547Y-9055D02*
X33957Y-7559D01*
X34366Y-9055D01*
G01X34220Y-8531D02*
X33693D01*
G01X34760Y-9055D02*
Y-7559D01*
X35516Y-9055D01*
Y-7559D01*
G01X36319D02*
Y-9055D01*
G01X35941Y-7559D02*
X36697D01*
G01X37500Y-9055D02*
Y-7559D01*
X37303Y-7858D01*
G01Y-9055D02*
X37697D01*
G01X26976Y-19224D02*
X26902Y-19323D01*
X26850Y-19437D01*
Y-19571D01*
X26925Y-19717D01*
X27051Y-19831D01*
X27201Y-19913D01*
X27449Y-19980D01*
X27673Y-19996D01*
X27898Y-19965D01*
X28047Y-19913D01*
X28197Y-19815D01*
X28295Y-19701D01*
X28346Y-19587D01*
Y-19472D01*
X28295Y-19358D01*
X28220Y-19260D01*
X28122Y-19177D01*
G01X28346Y-18209D02*
X26850D01*
X27921Y-18815D01*
Y-17996D01*
G01X28346Y-17224D02*
X28323Y-17110D01*
X28248Y-16980D01*
X28122Y-16898D01*
X27949Y-16862D01*
X27772Y-16898D01*
X27622Y-16996D01*
X27547Y-17142D01*
Y-17307D01*
X27500Y-17406D01*
X27374Y-17488D01*
X27201Y-17520D01*
X27024Y-17469D01*
X26902Y-17354D01*
X26850Y-17224D01*
X26902Y-17094D01*
X27024Y-16980D01*
X27201Y-16929D01*
X27374Y-16961D01*
X27500Y-17043D01*
X27547Y-17142D01*
Y-17307D01*
X27622Y-17453D01*
X27772Y-17551D01*
X27949Y-17587D01*
X28122Y-17551D01*
X28248Y-17469D01*
X28323Y-17339D01*
X28346Y-17224D01*
G01Y-15846D02*
X26850D01*
X27921Y-16453D01*
Y-15634D01*
G01X23689Y-11228D02*
X23591Y-11154D01*
X23476Y-11102D01*
X23343D01*
X23197Y-11177D01*
X23083Y-11303D01*
X23000Y-11453D01*
X22933Y-11701D01*
X22917Y-11925D01*
X22949Y-12150D01*
X23000Y-12299D01*
X23098Y-12449D01*
X23213Y-12547D01*
X23327Y-12598D01*
X23441D01*
X23555Y-12547D01*
X23654Y-12472D01*
X23736Y-12374D01*
G01X24705Y-12598D02*
Y-11102D01*
X24098Y-12173D01*
X24917D01*
G01X25689Y-12598D02*
X25803Y-12575D01*
X25933Y-12500D01*
X26016Y-12374D01*
X26051Y-12201D01*
X26016Y-12024D01*
X25917Y-11874D01*
X25772Y-11799D01*
X25606D01*
X25508Y-11752D01*
X25425Y-11626D01*
X25394Y-11453D01*
X25445Y-11276D01*
X25559Y-11154D01*
X25689Y-11102D01*
X25819Y-11154D01*
X25933Y-11276D01*
X25984Y-11453D01*
X25953Y-11626D01*
X25870Y-11752D01*
X25772Y-11799D01*
X25606D01*
X25461Y-11874D01*
X25362Y-12024D01*
X25327Y-12201D01*
X25362Y-12374D01*
X25445Y-12500D01*
X25575Y-12575D01*
X25689Y-12598D01*
G01X26559Y-11976D02*
X26673Y-11799D01*
X26772Y-11701D01*
X26902Y-11650D01*
X27020Y-11701D01*
X27098Y-11799D01*
X27165Y-11949D01*
X27181Y-12126D01*
X27165Y-12276D01*
X27098Y-12425D01*
X27000Y-12547D01*
X26886Y-12598D01*
X26756Y-12547D01*
X26642Y-12398D01*
X26575Y-12173D01*
X26559Y-11925D01*
X26591Y-11602D01*
X26642Y-11425D01*
X26720Y-11252D01*
X26839Y-11126D01*
X26953Y-11102D01*
X27067Y-11154D01*
X27150Y-11276D01*
G01X24476Y-5717D02*
X24378Y-5642D01*
X24264Y-5591D01*
X24130D01*
X23984Y-5665D01*
X23870Y-5791D01*
X23787Y-5941D01*
X23720Y-6189D01*
X23705Y-6413D01*
X23736Y-6638D01*
X23787Y-6787D01*
X23886Y-6937D01*
X24000Y-7035D01*
X24114Y-7087D01*
X24228D01*
X24343Y-7035D01*
X24441Y-6961D01*
X24524Y-6862D01*
G01X24984Y-6465D02*
X25098Y-6287D01*
X25197Y-6189D01*
X25327Y-6138D01*
X25445Y-6189D01*
X25524Y-6287D01*
X25591Y-6437D01*
X25606Y-6614D01*
X25591Y-6764D01*
X25524Y-6913D01*
X25425Y-7035D01*
X25311Y-7087D01*
X25181Y-7035D01*
X25067Y-6886D01*
X25000Y-6661D01*
X24984Y-6413D01*
X25016Y-6091D01*
X25067Y-5913D01*
X25146Y-5740D01*
X25264Y-5614D01*
X25378Y-5591D01*
X25492Y-5642D01*
X25575Y-5764D01*
G01X26114Y-6787D02*
X26213Y-6961D01*
X26346Y-7063D01*
X26492Y-7087D01*
X26626Y-7063D01*
X26756Y-6937D01*
X26839Y-6787D01*
X26854Y-6638D01*
X26823Y-6465D01*
X26705Y-6339D01*
X26591Y-6287D01*
X26445D01*
G01X26591D02*
X26689Y-6213D01*
X26772Y-6091D01*
X26803Y-5941D01*
X26772Y-5791D01*
X26689Y-5665D01*
X26543Y-5591D01*
X26394Y-5614D01*
X26248Y-5717D01*
G01X30004Y1575D02*
X30413Y3071D01*
X30823Y1575D01*
G01X30677Y2098D02*
X30150D01*
G01X31217Y1575D02*
Y3071D01*
X31972Y1575D01*
Y3071D01*
G01X32776D02*
Y1575D01*
G01X32398Y3071D02*
X33154D01*
G01X33594Y1874D02*
X33693Y1701D01*
X33827Y1598D01*
X33972Y1575D01*
X34106Y1598D01*
X34236Y1724D01*
X34319Y1874D01*
X34335Y2024D01*
X34303Y2197D01*
X34185Y2323D01*
X34071Y2374D01*
X33925D01*
G01X34071D02*
X34169Y2449D01*
X34252Y2571D01*
X34283Y2720D01*
X34252Y2870D01*
X34169Y2996D01*
X34024Y3071D01*
X33874Y3047D01*
X33728Y2945D01*
G01X32283Y-4642D02*
X30787Y-4232D01*
X32283Y-3823D01*
G01X31760Y-3969D02*
Y-4496D01*
G01X32283Y-3429D02*
X30787D01*
X32283Y-2673D01*
X30787D01*
G01Y-1870D02*
X32283D01*
G01X30787Y-2248D02*
Y-1492D01*
G01X31035Y-1000D02*
X30886Y-902D01*
X30811Y-787D01*
X30787Y-657D01*
X30839Y-492D01*
X30961Y-378D01*
X31110Y-343D01*
X31260Y-362D01*
X31386Y-425D01*
X31634Y-756D01*
X31811Y-902D01*
X32059Y-1000D01*
X32283Y-1035D01*
Y-343D01*
G01X50067Y-78157D02*
X49969Y-78083D01*
X49854Y-78031D01*
X49720D01*
X49575Y-78106D01*
X49461Y-78232D01*
X49378Y-78382D01*
X49311Y-78630D01*
X49295Y-78854D01*
X49327Y-79079D01*
X49378Y-79228D01*
X49476Y-79378D01*
X49591Y-79476D01*
X49705Y-79528D01*
X49819D01*
X49933Y-79476D01*
X50031Y-79402D01*
X50114Y-79303D01*
G01X51083Y-79528D02*
Y-78031D01*
X50476Y-79102D01*
X51295D01*
G01X51756Y-78906D02*
X51870Y-78728D01*
X51969Y-78630D01*
X52098Y-78579D01*
X52217Y-78630D01*
X52295Y-78728D01*
X52362Y-78878D01*
X52378Y-79055D01*
X52362Y-79205D01*
X52295Y-79354D01*
X52197Y-79476D01*
X52083Y-79528D01*
X51953Y-79476D01*
X51839Y-79327D01*
X51772Y-79102D01*
X51756Y-78854D01*
X51787Y-78531D01*
X51839Y-78354D01*
X51917Y-78181D01*
X52035Y-78055D01*
X52150Y-78031D01*
X52264Y-78083D01*
X52346Y-78205D01*
G01X53248Y-79528D02*
Y-78031D01*
X53051Y-78331D01*
G01Y-79528D02*
X53445D01*
G01X49528Y-68110D02*
Y-67118D01*
X49055Y-65906D01*
G01X50000D02*
X49528Y-67118D01*
G01X50693Y-66272D02*
X50835Y-66051D01*
X51000Y-65941D01*
X51189Y-65906D01*
X51425Y-65980D01*
X51591Y-66161D01*
X51638Y-66382D01*
X51614Y-66602D01*
X51520Y-66787D01*
X51047Y-67154D01*
X50835Y-67413D01*
X50693Y-67780D01*
X50646Y-68110D01*
X51638D01*
G01X47311Y-54535D02*
X47213Y-54461D01*
X47098Y-54409D01*
X46965D01*
X46819Y-54484D01*
X46705Y-54610D01*
X46622Y-54760D01*
X46555Y-55008D01*
X46539Y-55232D01*
X46571Y-55457D01*
X46622Y-55606D01*
X46720Y-55756D01*
X46835Y-55854D01*
X46949Y-55906D01*
X47063D01*
X47177Y-55854D01*
X47276Y-55780D01*
X47358Y-55681D01*
G01X48327Y-55906D02*
Y-54409D01*
X47720Y-55480D01*
X48539D01*
G01X49280Y-55906D02*
X49311Y-55583D01*
X49362Y-55307D01*
X49425Y-55059D01*
X49508Y-54783D01*
X49638Y-54409D01*
X48984D01*
G01X50492Y-55906D02*
Y-54409D01*
X50295Y-54709D01*
G01Y-55906D02*
X50689D01*
G01X39969Y-46390D02*
X39894Y-46488D01*
X39843Y-46602D01*
Y-46736D01*
X39917Y-46882D01*
X40043Y-46996D01*
X40193Y-47079D01*
X40441Y-47146D01*
X40665Y-47161D01*
X40890Y-47130D01*
X41039Y-47079D01*
X41189Y-46980D01*
X41287Y-46866D01*
X41339Y-46752D01*
Y-46638D01*
X41287Y-46524D01*
X41213Y-46425D01*
X41114Y-46343D01*
G01X40091Y-45882D02*
X39941Y-45783D01*
X39866Y-45669D01*
X39843Y-45539D01*
X39894Y-45374D01*
X40016Y-45260D01*
X40165Y-45224D01*
X40315Y-45244D01*
X40441Y-45307D01*
X40689Y-45638D01*
X40866Y-45783D01*
X41114Y-45882D01*
X41339Y-45917D01*
Y-45224D01*
G01X41114Y-44752D02*
X41240Y-44654D01*
X41315Y-44539D01*
X41339Y-44390D01*
X41287Y-44240D01*
X41189Y-44126D01*
X41016Y-44043D01*
X40815Y-44028D01*
X40614Y-44063D01*
X40492Y-44146D01*
X40390Y-44260D01*
X40366Y-44374D01*
X40390Y-44488D01*
X40492Y-44634D01*
X39843Y-44587D01*
Y-44146D01*
G01X70677Y-105839D02*
X70602Y-105937D01*
X70551Y-106051D01*
Y-106185D01*
X70626Y-106331D01*
X70752Y-106445D01*
X70902Y-106528D01*
X71150Y-106594D01*
X71374Y-106610D01*
X71598Y-106579D01*
X71748Y-106528D01*
X71898Y-106429D01*
X71996Y-106315D01*
X72047Y-106201D01*
Y-106087D01*
X71996Y-105972D01*
X71921Y-105874D01*
X71823Y-105791D01*
G01X72047Y-105020D02*
X70551D01*
X70850Y-105217D01*
G01X72047D02*
Y-104823D01*
G01X83465Y-106512D02*
X81969D01*
Y-105890D01*
G01X82693Y-106118D02*
Y-106512D01*
G01X81969Y-105346D02*
X83465D01*
Y-104693D01*
G01Y-103839D02*
X81969D01*
X82268Y-104035D01*
G01X83465D02*
Y-103642D01*
G54D11*
G01X-29382Y-151181D02*
Y-147244D01*
X-27508D01*
G01X-28201Y-149146D02*
X-29382D01*
G01X-25689Y-147244D02*
X-24508D01*
G01X-25098D02*
Y-151181D01*
G01X-25689D02*
X-24508D01*
G01X-22835D02*
Y-147244D01*
X-21850D01*
X-21457Y-147441D01*
X-21161Y-147705D01*
X-20913Y-148098D01*
X-20717Y-148555D01*
X-20669Y-149213D01*
X-20717Y-149870D01*
X-20913Y-150327D01*
X-21161Y-150720D01*
X-21457Y-150984D01*
X-21850Y-151181D01*
X-22835D01*
G01X-19488Y-147244D02*
Y-150067D01*
X-19291Y-150657D01*
X-18898Y-151051D01*
X-18406Y-151181D01*
X-17913Y-151051D01*
X-17520Y-150657D01*
X-17323Y-150067D01*
Y-147244D01*
G01X-15059Y-151181D02*
Y-147244D01*
X-15650Y-148031D01*
G01Y-151181D02*
X-14469D01*
G01X-31972Y-20453D02*
Y-16516D01*
X-30098D01*
G01X-30791Y-18417D02*
X-31972D01*
G01X-28280Y-16516D02*
X-27098D01*
G01X-27689D02*
Y-20453D01*
G01X-28280D02*
X-27098D01*
G01X-25425D02*
Y-16516D01*
X-24441D01*
X-24047Y-16713D01*
X-23752Y-16976D01*
X-23504Y-17370D01*
X-23307Y-17827D01*
X-23260Y-18484D01*
X-23307Y-19142D01*
X-23504Y-19598D01*
X-23752Y-19992D01*
X-24047Y-20256D01*
X-24441Y-20453D01*
X-25425D01*
G01X-22079Y-16516D02*
Y-19339D01*
X-21882Y-19929D01*
X-21488Y-20323D01*
X-20996Y-20453D01*
X-20504Y-20323D01*
X-20110Y-19929D01*
X-19913Y-19339D01*
Y-16516D01*
G01X-18732Y-19665D02*
X-18437Y-20126D01*
X-18043Y-20386D01*
X-17598Y-20453D01*
X-17205Y-20386D01*
X-16811Y-20059D01*
X-16567Y-19665D01*
X-16520Y-19272D01*
X-16614Y-18811D01*
X-16961Y-18484D01*
X-17307Y-18354D01*
X-17748D01*
G01X-17307D02*
X-17012Y-18157D01*
X-16764Y-17827D01*
X-16665Y-17433D01*
X-16764Y-17039D01*
X-17012Y-16713D01*
X-17453Y-16516D01*
X-17894Y-16583D01*
X-18339Y-16843D01*
G01X-3890Y-9094D02*
X-3791Y-9272D01*
X-3673Y-9390D01*
X-3535Y-9449D01*
X-3378Y-9390D01*
X-3260Y-9272D01*
X-3142Y-9094D01*
X-3102Y-8858D01*
Y-7677D01*
G01X-2020Y-9449D02*
Y-7677D01*
X-2256Y-8031D01*
G01Y-9449D02*
X-1783D01*
G01X11130Y-81535D02*
Y-84047D01*
X11283Y-84571D01*
X11587Y-84921D01*
X11969Y-85039D01*
X12350Y-84921D01*
X12654Y-84571D01*
X12807Y-84047D01*
Y-81535D01*
G01X14492Y-85039D02*
X14567Y-84280D01*
X14681Y-83638D01*
X14835Y-83055D01*
X15024Y-82413D01*
X15327Y-81535D01*
X13807D01*
G01X23827Y-35827D02*
Y-37094D01*
X23906Y-37362D01*
X24063Y-37539D01*
X24260Y-37598D01*
X24457Y-37539D01*
X24614Y-37362D01*
X24693Y-37094D01*
Y-35827D01*
G01X25736Y-37598D02*
X25874Y-37571D01*
X26031Y-37480D01*
X26130Y-37335D01*
X26169Y-37126D01*
X26130Y-36921D01*
X26012Y-36744D01*
X25835Y-36654D01*
X25638D01*
X25520Y-36594D01*
X25421Y-36449D01*
X25382Y-36240D01*
X25441Y-36035D01*
X25579Y-35886D01*
X25736Y-35827D01*
X25894Y-35886D01*
X26031Y-36035D01*
X26091Y-36240D01*
X26051Y-36449D01*
X25953Y-36594D01*
X25835Y-36654D01*
X25638D01*
X25461Y-36744D01*
X25343Y-36921D01*
X25303Y-37126D01*
X25343Y-37335D01*
X25441Y-37480D01*
X25598Y-37571D01*
X25736Y-37598D01*
G01X85972Y-152756D02*
Y-148819D01*
X87846D01*
G01X87154Y-150720D02*
X85972D01*
G01X89665Y-148819D02*
X90846D01*
G01X90256D02*
Y-152756D01*
G01X89665D02*
X90846D01*
G01X92520D02*
Y-148819D01*
X93504D01*
X93898Y-149016D01*
X94193Y-149280D01*
X94441Y-149673D01*
X94638Y-150130D01*
X94685Y-150787D01*
X94638Y-151445D01*
X94441Y-151902D01*
X94193Y-152295D01*
X93898Y-152559D01*
X93504Y-152756D01*
X92520D01*
G01X95866Y-148819D02*
Y-151642D01*
X96063Y-152232D01*
X96457Y-152626D01*
X96949Y-152756D01*
X97441Y-152626D01*
X97835Y-152232D01*
X98031Y-151642D01*
Y-148819D01*
G01X99358Y-149476D02*
X99657Y-149083D01*
X100000Y-148886D01*
X100394Y-148819D01*
X100886Y-148949D01*
X101232Y-149280D01*
X101331Y-149673D01*
X101280Y-150067D01*
X101083Y-150394D01*
X100098Y-151051D01*
X99657Y-151508D01*
X99358Y-152165D01*
X99260Y-152756D01*
X101331D01*
G54D12*
G01X-45276Y-156693D02*
X115744D01*
X115748Y-156689D01*
Y151772D01*
X-45276D01*
Y135630D01*
Y-156693D01*
G01X-33661Y-149606D02*
G03I-4134J0D01*
G01X-34055Y-19291D02*
G03I-4134J0D01*
G01X-5315Y-95472D02*
Y-94488D01*
G01D02*
X-3346D01*
G01D02*
Y-95472D01*
G01Y-95669D02*
Y-97244D01*
G01X-5315D02*
Y-95669D01*
G01X-3346Y-97441D02*
Y-98425D01*
G01D02*
X-5315D01*
G01D02*
Y-97441D01*
G01Y-95669D02*
Y-95472D01*
G01Y-97441D02*
Y-97244D01*
G01X-3346D02*
Y-97441D01*
G01Y-95472D02*
Y-95669D01*
G01X-5315Y-97441D02*
X-3346D01*
G01Y-95472D02*
X-5315D01*
G01X-8858D02*
Y-94488D01*
G01D02*
X-6890D01*
G01D02*
Y-95472D01*
G01Y-95669D02*
Y-97244D01*
G01X-8858D02*
Y-95669D01*
G01X-6890Y-97441D02*
Y-98425D01*
G01D02*
X-8858D01*
G01D02*
Y-97441D01*
G01Y-95669D02*
Y-95472D01*
G01Y-97441D02*
Y-97244D01*
G01X-6890D02*
Y-97441D01*
G01Y-95472D02*
Y-95669D01*
G01X-8858Y-97441D02*
X-6890D01*
G01Y-95472D02*
X-8858D01*
G01X-591Y-96358D02*
Y-68799D01*
G01X26969Y-96358D02*
X-591D01*
G01X-4921Y-70669D02*
X-3937D01*
G01D02*
Y-72638D01*
G01D02*
X-4921D01*
G01X-5118D02*
X-6693D01*
G01Y-70669D02*
X-5118D01*
G01X-6890Y-72638D02*
X-7874D01*
G01D02*
Y-70669D01*
G01D02*
X-6890D01*
G01X-5118D02*
X-4921D01*
G01X-6890D02*
X-6693D01*
G01Y-72638D02*
X-6890D01*
G01X-4921D02*
X-5118D01*
G01X-6890Y-70669D02*
Y-72638D01*
G01X-4921D02*
Y-70669D01*
G01X-591Y-68799D02*
X26969D01*
G01X5118Y-46654D02*
Y-45669D01*
G01D02*
X7087D01*
G01X5118Y-48425D02*
Y-46850D01*
G01X7087Y-49606D02*
X5118D01*
G01D02*
Y-48622D01*
G01Y-46850D02*
Y-46654D01*
G01Y-48622D02*
Y-48425D01*
G01Y-48622D02*
X7087D01*
G01Y-46654D02*
X5118D01*
G01X7087Y-56890D02*
X5118D01*
G01D02*
Y-55906D01*
G01Y-55709D02*
Y-54134D01*
G01Y-53937D02*
Y-52953D01*
G01D02*
X7087D01*
G01X5118Y-54134D02*
Y-53937D01*
G01Y-55906D02*
Y-55709D01*
G01X7087Y-53937D02*
X5118D01*
G01Y-55906D02*
X7087D01*
G01X-2362Y-57480D02*
G03X-2756Y-57087I-394J0D01*
G01Y-45276D01*
G03X-2362Y-44882I0J394D01*
G01X2756D01*
G03X3150Y-45276I394J0D01*
G01Y-57087D01*
G03X2756Y-57480I0J-394D01*
G01X-2362D01*
G01X5118Y-34843D02*
X6102D01*
G01Y-36811D02*
X5118D01*
G01X4921D02*
X3346D01*
G01Y-34843D02*
X4921D01*
G01X3150Y-36811D02*
X2165D01*
G01D02*
Y-34843D01*
G01D02*
X3150D01*
G01X4921D02*
X5118D01*
G01X3150D02*
X3346D01*
G01Y-36811D02*
X3150D01*
G01X5118D02*
X4921D01*
G01X3150Y-34843D02*
Y-36811D01*
G01X5118D02*
Y-34843D01*
G01Y-38780D02*
X6102D01*
G01Y-40748D02*
X5118D01*
G01X4921D02*
X3346D01*
G01Y-38780D02*
X4921D01*
G01X3150Y-40748D02*
X2165D01*
G01D02*
Y-38780D01*
G01D02*
X3150D01*
G01X4921D02*
X5118D01*
G01X3150D02*
X3346D01*
G01Y-40748D02*
X3150D01*
G01X5118D02*
X4921D01*
G01X3150Y-38780D02*
Y-40748D01*
G01X5118D02*
Y-38780D01*
G01X1181Y-12205D02*
X-6693D01*
Y-5118D01*
X1181D01*
Y-12205D01*
G01X22756Y28346D02*
X1890D01*
G03Y25591I0J-1378D01*
G01X22756D01*
G03Y28346I0J1378D01*
G01X28150Y17323D02*
X1890D01*
G03Y14567I0J-1378D01*
G01X28150D01*
Y17323D01*
G01X22756Y39370D02*
X1890D01*
G03Y36614I0J-1378D01*
G01X22756D01*
G03Y39370I0J1378D01*
G01Y50394D02*
X1890D01*
G03Y47638I0J-1378D01*
G01X22756D01*
G03Y50394I0J1378D01*
G01Y61417D02*
X1890D01*
G03Y58661I0J-1378D01*
G01X22756D01*
G03Y61417I0J1378D01*
G01Y72441D02*
X1890D01*
G03Y69685I0J-1378D01*
G01X22756D01*
G03Y72441I0J1378D01*
G01Y83465D02*
X1890D01*
G03Y80709I0J-1378D01*
G01X22756D01*
G03Y83465I0J1378D01*
G01Y94488D02*
X1890D01*
G03Y91732I0J-1378D01*
G01X22756D01*
G03Y94488I0J1378D01*
G01Y105512D02*
X1890D01*
G03Y102756I0J-1378D01*
G01X22756D01*
G03Y105512I0J1378D01*
G01Y116535D02*
X1890D01*
G03Y113780I0J-1378D01*
G01X22756D01*
G03Y116535I0J1378D01*
G01Y127559D02*
X1890D01*
G03Y124803I0J-1378D01*
G01X22756D01*
G03Y127559I0J1378D01*
G01Y138583D02*
X1890D01*
G03Y135827I0J-1378D01*
G01X22756D01*
G03Y138583I0J1378D01*
G01Y149606D02*
X1890D01*
G03Y146850I0J-1378D01*
G01X22756D01*
G03Y149606I0J1378D01*
G01X18602Y-104724D02*
Y-109449D01*
G01X13681D02*
Y-104724D01*
G01X18602Y-109449D02*
Y-111024D01*
G01D02*
X13681D01*
G01D02*
Y-109449D01*
G01Y-109055D02*
X18602D01*
G01X20669Y-106693D02*
X23819D01*
Y-108071D01*
X20669D01*
Y-106693D01*
G01X16142Y-115945D02*
Y-112795D01*
X17520D01*
Y-115945D01*
X16142D01*
G01X21063D02*
Y-112795D01*
X22441D01*
Y-115945D01*
X21063D01*
G01X17520Y-112835D02*
X21063D01*
Y-115906D01*
X17520D01*
Y-112835D01*
G01X13681Y-104724D02*
Y-103150D01*
G01D02*
X18602D01*
G01D02*
Y-104724D01*
G01Y-105118D02*
X13681D01*
G01X20669Y-101772D02*
X23819D01*
Y-103150D01*
X20669D01*
Y-101772D01*
G01X23780Y-103150D02*
Y-106693D01*
X20709D01*
Y-103150D01*
X23780D01*
G01X19291Y-60039D02*
X18307D01*
G01D02*
Y-58071D01*
G01D02*
X19291D01*
G01X19488D02*
X21063D01*
G01Y-60039D02*
X19488D01*
G01X21260Y-58071D02*
X22244D01*
G01Y-60039D02*
X21260D01*
G01X19488D02*
X19291D01*
G01X21260D02*
X21063D01*
G01Y-58071D02*
X21260D01*
G01X19291D02*
X19488D01*
G01X21260Y-60039D02*
Y-58071D01*
G01X19291D02*
Y-60039D01*
G01X14370Y-57874D02*
Y-56890D01*
G01X16339D02*
Y-57874D01*
G01Y-58071D02*
Y-59646D01*
G01X14370D02*
Y-58071D01*
G01X16339Y-59843D02*
Y-60827D01*
G01D02*
X14370D01*
G01D02*
Y-59843D01*
G01Y-58071D02*
Y-57874D01*
G01Y-59843D02*
Y-59646D01*
G01X16339D02*
Y-59843D01*
G01Y-57874D02*
Y-58071D01*
G01X14370Y-59843D02*
X16339D01*
G01Y-57874D02*
X14370D01*
G01X19291Y-63976D02*
X18307D01*
G01D02*
Y-62008D01*
G01D02*
X19291D01*
G01X19488D02*
X21063D01*
G01Y-63976D02*
X19488D01*
G01X21260Y-62008D02*
X22244D01*
G01Y-63976D02*
X21260D01*
G01X19488D02*
X19291D01*
G01X21260D02*
X21063D01*
G01Y-62008D02*
X21260D01*
G01X19291D02*
X19488D01*
G01X21260Y-63976D02*
Y-62008D01*
G01X19291D02*
Y-63976D01*
G01X14764Y-40748D02*
Y-42323D01*
G01X12795D02*
Y-40748D01*
G01X14764Y-42520D02*
Y-43504D01*
G01D02*
X12795D01*
G01D02*
Y-42520D01*
G01D02*
Y-42323D01*
G01X14764D02*
Y-42520D01*
G01X12795D02*
X14764D01*
G01X19291Y-49016D02*
X18307D01*
G01D02*
Y-47047D01*
G01D02*
X19291D01*
G01X19488D02*
X21063D01*
G01Y-49016D02*
X19488D01*
G01X21260Y-47047D02*
X22244D01*
G01Y-49016D02*
X21260D01*
G01X19488D02*
X19291D01*
G01X21260D02*
X21063D01*
G01Y-47047D02*
X21260D01*
G01X19291D02*
X19488D01*
G01X21260Y-49016D02*
Y-47047D01*
G01X19291D02*
Y-49016D01*
G01X7087Y-45669D02*
Y-46654D01*
G01Y-46850D02*
Y-48425D01*
G01Y-48622D02*
Y-49606D01*
G01Y-48425D02*
Y-48622D01*
G01Y-46654D02*
Y-46850D01*
G01Y-55906D02*
Y-56890D01*
G01Y-54134D02*
Y-55709D01*
G01Y-52953D02*
Y-53937D01*
G01Y-55709D02*
Y-55906D01*
G01Y-53937D02*
Y-54134D01*
G01X14370Y-56890D02*
X16339D01*
G01X23031Y-55709D02*
X21063D01*
G01D02*
Y-54724D01*
G01Y-54528D02*
Y-52953D01*
G01Y-52756D02*
Y-51772D01*
G01D02*
X23031D01*
G01X21063Y-52953D02*
Y-52756D01*
G01Y-54724D02*
Y-54528D01*
G01X23031Y-52756D02*
X21063D01*
G01Y-54724D02*
X23031D01*
G01X33071Y-44488D02*
X17323D01*
Y-28740D01*
X33071D01*
Y-44488D01*
G01X14764Y-31299D02*
Y-32283D01*
G01D02*
X12795D01*
G01D02*
Y-31299D01*
G01Y-31102D02*
Y-29528D01*
G01X14764D02*
Y-31102D01*
G01X12795Y-29331D02*
Y-28346D01*
G01D02*
X14764D01*
G01D02*
Y-29331D01*
G01Y-31102D02*
Y-31299D01*
G01Y-29331D02*
Y-29528D01*
G01X12795D02*
Y-29331D01*
G01Y-31299D02*
Y-31102D01*
G01X14764Y-29331D02*
X12795D01*
G01Y-31299D02*
X14764D01*
G01X12795Y-40551D02*
Y-39567D01*
G01D02*
X14764D01*
G01D02*
Y-40551D01*
G01X12795Y-40748D02*
Y-40551D01*
G01X14764D02*
Y-40748D01*
G01Y-40551D02*
X12795D01*
G01X12992Y-34843D02*
X13976D01*
G01D02*
Y-36811D01*
G01D02*
X12992D01*
G01X12795D02*
X11220D01*
G01Y-34843D02*
X12795D01*
G01X11024Y-36811D02*
X10039D01*
G01D02*
Y-34843D01*
G01D02*
X11024D01*
G01X12795D02*
X12992D01*
G01X11024D02*
X11220D01*
G01Y-36811D02*
X11024D01*
G01X12992D02*
X12795D01*
G01X11024Y-34843D02*
Y-36811D01*
G01X12992D02*
Y-34843D01*
G01X19291Y-25394D02*
X18307D01*
G01D02*
Y-23425D01*
G01X21063Y-25394D02*
X19488D01*
G01X22244D02*
X21260D01*
G01X19488D02*
X19291D01*
G01X21260D02*
X21063D01*
G01X21260D02*
Y-23425D01*
G01X19291D02*
Y-25394D01*
G01X6102Y-34843D02*
Y-36811D01*
G01Y-38780D02*
Y-40748D01*
G01X19291Y-9646D02*
X18307D01*
G01D02*
Y-7677D01*
G01X21063Y-9646D02*
X19488D01*
G01X22244D02*
X21260D01*
G01X19488D02*
X19291D01*
G01X21260D02*
X21063D01*
G01X21260D02*
Y-7677D01*
G01X19291D02*
Y-9646D01*
G01X18307Y-23425D02*
X19291D01*
G01X19488D02*
X21063D01*
G01X21260D02*
X22244D01*
G01X21063D02*
X21260D01*
G01X19291D02*
X19488D01*
G01X19291Y-13583D02*
X18307D01*
G01D02*
Y-11614D01*
G01D02*
X19291D01*
G01X19488D02*
X21063D01*
G01Y-13583D02*
X19488D01*
G01X21260Y-11614D02*
X22244D01*
G01Y-13583D02*
X21260D01*
G01X19488D02*
X19291D01*
G01X21260D02*
X21063D01*
G01Y-11614D02*
X21260D01*
G01X19291D02*
X19488D01*
G01X21260Y-13583D02*
Y-11614D01*
G01X19291D02*
Y-13583D01*
G01X23031Y-20276D02*
X21063D01*
G01D02*
Y-19291D01*
G01Y-19094D02*
Y-17520D01*
G01Y-17323D02*
Y-16339D01*
G01D02*
X23031D01*
G01X21063Y-17520D02*
Y-17323D01*
G01Y-19291D02*
Y-19094D01*
G01X23031Y-17323D02*
X21063D01*
G01Y-19291D02*
X23031D01*
G01X18307Y-7677D02*
X19291D01*
G01X19488D02*
X21063D01*
G01X21260D02*
X22244D01*
G01X21063D02*
X21260D01*
G01X19291D02*
X19488D01*
G01X25787Y-106693D02*
X28937D01*
Y-108071D01*
X25787D01*
Y-106693D01*
G01X33858Y-99213D02*
Y-98228D01*
G01D02*
X35827D01*
G01D02*
Y-99213D01*
G01Y-99409D02*
Y-100984D01*
G01X33858D02*
Y-99409D01*
G01X35827Y-101181D02*
Y-102165D01*
G01D02*
X33858D01*
G01D02*
Y-101181D01*
G01Y-99409D02*
Y-99213D01*
G01Y-101181D02*
Y-100984D01*
G01X35827D02*
Y-101181D01*
G01Y-99213D02*
Y-99409D01*
G01X33858Y-101181D02*
X35827D01*
G01Y-99213D02*
X33858D01*
G01X30512D02*
Y-98228D01*
G01D02*
X32480D01*
G01D02*
Y-99213D01*
G01Y-99409D02*
Y-100984D01*
G01X30512D02*
Y-99409D01*
G01X32480Y-101181D02*
Y-102165D01*
G01D02*
X30512D01*
G01D02*
Y-101181D01*
G01Y-99409D02*
Y-99213D01*
G01Y-101181D02*
Y-100984D01*
G01X32480D02*
Y-101181D01*
G01Y-99213D02*
Y-99409D01*
G01X30512Y-101181D02*
X32480D01*
G01Y-99213D02*
X30512D01*
G01X26969Y-68799D02*
Y-96358D01*
G01X25787Y-101772D02*
X28937D01*
Y-103150D01*
X25787D01*
Y-101772D01*
G01X28898Y-103150D02*
Y-106693D01*
X25827D01*
Y-103150D01*
X28898D01*
G01X33661Y-82087D02*
X32677D01*
G01D02*
Y-80118D01*
G01D02*
X33661D01*
G01X33858D02*
X35433D01*
G01Y-82087D02*
X33858D01*
G01X35630Y-80118D02*
X36614D01*
G01D02*
Y-82087D01*
G01D02*
X35630D01*
G01X33858D02*
X33661D01*
G01X35630D02*
X35433D01*
G01Y-80118D02*
X35630D01*
G01X33661D02*
X33858D01*
G01X35630Y-82087D02*
Y-80118D01*
G01X33661D02*
Y-82087D01*
G01Y-78543D02*
X32677D01*
G01D02*
Y-76575D01*
G01D02*
X33661D01*
G01X33858D02*
X35433D01*
G01Y-78543D02*
X33858D01*
G01X35630Y-76575D02*
X36614D01*
G01D02*
Y-78543D01*
G01D02*
X35630D01*
G01X33858D02*
X33661D01*
G01X35630D02*
X35433D01*
G01Y-76575D02*
X35630D01*
G01X33661D02*
X33858D01*
G01X35630Y-78543D02*
Y-76575D01*
G01X33661D02*
Y-78543D01*
G01X31693Y-70276D02*
X30709D01*
G01D02*
Y-68307D01*
G01D02*
X31693D01*
G01X31890D02*
X33465D01*
G01Y-70276D02*
X31890D01*
G01X33661Y-68307D02*
X34646D01*
G01D02*
Y-70276D01*
G01D02*
X33661D01*
G01X31890D02*
X31693D01*
G01X33661D02*
X33465D01*
G01Y-68307D02*
X33661D01*
G01X31693D02*
X31890D01*
G01X33661Y-70276D02*
Y-68307D01*
G01X31693D02*
Y-70276D01*
G01X22244Y-58071D02*
Y-60039D01*
G01X29331Y-61811D02*
Y-62795D01*
G01D02*
X27362D01*
G01D02*
Y-61811D01*
G01Y-61614D02*
Y-60039D01*
G01X29331D02*
Y-61614D01*
G01X27362Y-59843D02*
Y-58858D01*
G01D02*
X29331D01*
G01D02*
Y-59843D01*
G01Y-61614D02*
Y-61811D01*
G01Y-59843D02*
Y-60039D01*
G01X27362D02*
Y-59843D01*
G01Y-61811D02*
Y-61614D01*
G01X29331Y-59843D02*
X27362D01*
G01Y-61811D02*
X29331D01*
G01X22244Y-62008D02*
Y-63976D01*
G01X25000Y-71654D02*
G03I-984J0D01*
G01X37598Y-40551D02*
Y-42126D01*
G01X35630D02*
Y-40551D01*
G01X37598Y-42323D02*
Y-43307D01*
G01D02*
X35630D01*
G01D02*
Y-42323D01*
G01D02*
Y-42126D01*
G01X37598D02*
Y-42323D01*
G01X35630D02*
X37598D01*
G01X22244Y-47047D02*
Y-49016D01*
G01X29331Y-50787D02*
Y-51772D01*
G01D02*
X27362D01*
G01D02*
Y-50787D01*
G01Y-50591D02*
Y-49016D01*
G01X29331D02*
Y-50591D01*
G01X27362Y-48819D02*
Y-47835D01*
G01D02*
X29331D01*
G01D02*
Y-48819D01*
G01Y-50591D02*
Y-50787D01*
G01Y-48819D02*
Y-49016D01*
G01X27362D02*
Y-48819D01*
G01Y-50787D02*
Y-50591D01*
G01X29331Y-48819D02*
X27362D01*
G01Y-50787D02*
X29331D01*
G01X23031Y-54724D02*
Y-55709D01*
G01Y-52953D02*
Y-54528D01*
G01Y-51772D02*
Y-52756D01*
G01Y-54528D02*
Y-54724D01*
G01Y-52756D02*
Y-52953D01*
G01X31102Y-54528D02*
X32087D01*
G01D02*
Y-56496D01*
G01D02*
X31102D01*
G01X30906D02*
X29331D01*
G01Y-54528D02*
X30906D01*
G01X29134Y-56496D02*
X28150D01*
G01D02*
Y-54528D01*
G01D02*
X29134D01*
G01X30906D02*
X31102D01*
G01X29134D02*
X29331D01*
G01Y-56496D02*
X29134D01*
G01X31102D02*
X30906D01*
G01X29134Y-54528D02*
Y-56496D01*
G01X31102D02*
Y-54528D01*
G01X35630Y-40354D02*
Y-39370D01*
G01D02*
X37598D01*
G01D02*
Y-40354D01*
G01X35630Y-40551D02*
Y-40354D01*
G01X37598D02*
Y-40551D01*
G01Y-40354D02*
X35630D01*
G01X22244Y-23425D02*
Y-25394D01*
G01X22874Y-9646D02*
X21890D01*
G01D02*
Y-7677D01*
G01X24646Y-9646D02*
X23071D01*
G01X25827Y-7677D02*
Y-9646D01*
G01D02*
X24843D01*
G01X23071D02*
X22874D01*
G01X24843D02*
X24646D01*
G01X24843D02*
Y-7677D01*
G01X22874D02*
Y-9646D01*
G01X22244Y-7677D02*
Y-9646D01*
G01X30315D02*
X29331D01*
G01D02*
Y-7677D01*
G01X32087Y-9646D02*
X30512D01*
G01X33268Y-7677D02*
Y-9646D01*
G01D02*
X32283D01*
G01X30512D02*
X30315D01*
G01X32283D02*
X32087D01*
G01X32283D02*
Y-7677D01*
G01X30315D02*
Y-9646D01*
G01X24606Y-17323D02*
Y-16339D01*
G01D02*
X26575D01*
G01D02*
Y-17323D01*
G01Y-17520D02*
Y-19094D01*
G01X24606D02*
Y-17520D01*
G01X26575Y-19291D02*
Y-20276D01*
G01D02*
X24606D01*
G01D02*
Y-19291D01*
G01Y-17520D02*
Y-17323D01*
G01Y-19291D02*
Y-19094D01*
G01X26575D02*
Y-19291D01*
G01Y-17323D02*
Y-17520D01*
G01X24606Y-19291D02*
X26575D01*
G01Y-17323D02*
X24606D01*
G01X22244Y-11614D02*
Y-13583D01*
G01X23031Y-19291D02*
Y-20276D01*
G01Y-17520D02*
Y-19094D01*
G01Y-16339D02*
Y-17323D01*
G01Y-19094D02*
Y-19291D01*
G01Y-17323D02*
Y-17520D01*
G01X21890Y-7677D02*
X22874D01*
G01X23071D02*
X24646D01*
G01X24843D02*
X25827D01*
G01X24646D02*
X24843D01*
G01X22874D02*
X23071D01*
G01X29331D02*
X30315D01*
G01X30512D02*
X32087D01*
G01X32283D02*
X33268D01*
G01X32087D02*
X32283D01*
G01X30315D02*
X30512D01*
G01X28740Y3150D02*
X29724D01*
G01D02*
Y1181D01*
G01D02*
X28740D01*
G01X28543D02*
X26969D01*
G01Y3150D02*
X28543D01*
G01X26772Y1181D02*
X25787D01*
G01D02*
Y3150D01*
G01D02*
X26772D01*
G01X28543D02*
X28740D01*
G01X26772D02*
X26969D01*
G01Y1181D02*
X26772D01*
G01X28740D02*
X28543D01*
G01X26772Y3150D02*
Y1181D01*
G01X28740D02*
Y3150D01*
G01X30512Y-3937D02*
Y-4921D01*
G01D02*
X28543D01*
G01D02*
Y-3937D01*
G01Y-3740D02*
Y-2165D01*
G01X30512D02*
Y-3740D01*
G01X28543Y-1969D02*
Y-984D01*
G01D02*
X30512D01*
G01D02*
Y-1969D01*
G01Y-3740D02*
Y-3937D01*
G01Y-1969D02*
Y-2165D01*
G01X28543D02*
Y-1969D01*
G01Y-3937D02*
Y-3740D01*
G01X30512Y-1969D02*
X28543D01*
G01Y-3937D02*
X30512D01*
G01X28150Y17323D02*
Y14567D01*
G01X50000Y-77559D02*
X49016D01*
G01D02*
Y-75591D01*
G01D02*
X50000D01*
G01X50197D02*
X51772D01*
G01Y-77559D02*
X50197D01*
G01X51969Y-75591D02*
X52953D01*
G01D02*
Y-77559D01*
G01D02*
X51969D01*
G01X50197D02*
X50000D01*
G01X51969D02*
X51772D01*
G01Y-75591D02*
X51969D01*
G01X50000D02*
X50197D01*
G01X51969Y-77559D02*
Y-75591D01*
G01X50000D02*
Y-77559D01*
G01X47441Y-58661D02*
X46457D01*
G01D02*
Y-56693D01*
G01X49213Y-58661D02*
X47638D01*
G01X50394Y-56693D02*
Y-58661D01*
G01D02*
X49409D01*
G01X47638D02*
X47441D01*
G01X49409D02*
X49213D01*
G01X49409D02*
Y-56693D01*
G01X47441D02*
Y-58661D01*
G01X54528Y-72638D02*
Y-62323D01*
G01D02*
G03X54134Y-61929I-394J0D01*
G01Y-73031D02*
G03X54528Y-72638I0J394D01*
G01X54134Y-61929D02*
X46575D01*
G01Y-73031D02*
X54134D01*
G01X46575Y-61929D02*
G03X46181Y-62323I0J-394D01*
G01Y-72638D02*
G03X46575Y-73031I394J0D01*
G01X46181Y-62323D02*
Y-72638D01*
G01X54213Y-61181D02*
G03X55276Y-62244I1063J0D01*
G01X46496Y-61181D02*
X54213D01*
G01X45433Y-62244D02*
G03X46496Y-61181I0J1063D01*
G01X55276Y-72717D02*
G03X54213Y-73780I0J-1063D01*
G01D02*
X46496D01*
G01D02*
G03X45433Y-72717I-1063J0D01*
G01D02*
Y-62244D01*
G01X46457Y-56693D02*
X47441D01*
G01X47638D02*
X49213D01*
G01X49409D02*
X50394D01*
G01X49213D02*
X49409D01*
G01X47441D02*
X47638D01*
G01X41535Y-40748D02*
Y-42323D01*
G01X39567D02*
Y-40748D01*
G01X41535Y-42520D02*
Y-43504D01*
G01D02*
X39567D01*
G01D02*
Y-42520D01*
G01D02*
Y-42323D01*
G01X41535D02*
Y-42520D01*
G01X39567D02*
X41535D01*
G01X39567Y-40551D02*
Y-39567D01*
G01D02*
X41535D01*
G01D02*
Y-40551D01*
G01X39567Y-40748D02*
Y-40551D01*
G01X41535D02*
Y-40748D01*
G01Y-40551D02*
X39567D01*
G01X55276Y-62244D02*
Y-72717D01*
G01X77756Y-106890D02*
X80906D01*
Y-108268D01*
X77756D01*
Y-106890D01*
G01X72835Y-107480D02*
X75984D01*
Y-108858D01*
X72835D01*
Y-107480D01*
G01X77756Y-101969D02*
X80906D01*
Y-103346D01*
X77756D01*
Y-101969D01*
G01X80866Y-103346D02*
Y-106890D01*
X77795D01*
Y-103346D01*
X80866D01*
G01X72835Y-102559D02*
X75984D01*
Y-103937D01*
X72835D01*
Y-102559D01*
G01X75945Y-103937D02*
Y-107480D01*
X72874D01*
Y-103937D01*
X75945D01*
G01X112795Y-149606D02*
G03I-4134J0D01*
G54D13*
G01X53228Y22638D02*
X54606Y27638D01*
X55984Y22638D01*
G01X55488Y24386D02*
X53724D01*
G01X57378Y26803D02*
X57709Y27303D01*
X58094Y27555D01*
X58535Y27638D01*
X59087Y27472D01*
X59472Y27055D01*
X59583Y26555D01*
X59528Y26055D01*
X59307Y25638D01*
X58205Y24803D01*
X57709Y24220D01*
X57378Y23386D01*
X57268Y22638D01*
X59583D01*
G54D14*
G01X59457Y46823D02*
X59476Y46929D01*
G01X59500D02*
X59476Y46823D01*
G01X59449Y46862D02*
X59508D01*
G01Y46890D02*
X59449D01*
G01X59528Y46850D02*
Y46929D01*
X59555D01*
X59563Y46925D01*
X59567Y46921D01*
X59571Y46909D01*
X59567Y46898D01*
X59563Y46894D01*
X59555Y46890D01*
X59528D01*
G01X59555D02*
X59571Y46850D01*
G01X59642D02*
X59598D01*
Y46929D01*
X59642D01*
G01X59626Y46890D02*
X59598D01*
G01X59673Y46850D02*
Y46929D01*
X59709D01*
G01X59697Y46890D02*
X59673D01*
G01X59740Y46850D02*
Y46929D01*
X59760D01*
X59768Y46925D01*
X59776Y46921D01*
X59780Y46913D01*
X59783Y46902D01*
Y46890D01*
Y46878D01*
X59780Y46866D01*
X59776Y46858D01*
X59768Y46854D01*
X59760Y46850D01*
X59740D01*
G01X59854D02*
X59811D01*
Y46929D01*
X59854D01*
G01X59839Y46890D02*
X59811D01*
G01X59882Y46862D02*
X59890Y46854D01*
X59898Y46850D01*
X59909D01*
X59917Y46854D01*
X59921Y46862D01*
X59925Y46870D01*
X59921Y46878D01*
X59917Y46886D01*
X59909Y46894D01*
X59898D01*
X59890Y46902D01*
X59886Y46909D01*
X59890Y46917D01*
X59894Y46925D01*
X59902Y46929D01*
X59909D01*
X59913Y46925D01*
X59921Y46921D01*
M02*
