G04 ================== begin FILE IDENTIFICATION RECORD ==================*
G04 Layout Name:  Z1044-B.brd*
G04 Film Name:    drill*
G04 File Format:  Gerber RS274X*
G04 File Origin:  Cadence Allegro 16.6-S019*
G04 Origin Date:  Fri Nov 18 12:25:08 2016*
G04 *
G04 Layer:  MANUFACTURING/XSECTION_CHART*
G04 Layer:  MANUFACTURING/NCDRILL_LEGEND*
G04 Layer:  MANUFACTURING/NCDRILL_FIGURE*
G04 Layer:  MANUFACTURING/NCLEGEND-1-2*
G04 Layer:  MANUFACTURING/NCLEGEND-1-4*
G04 Layer:  BOARD GEOMETRY/OUTLINE*
G04 *
G04 Offset:    (0.000 0.000)*
G04 Mirror:    No*
G04 Mode:      Positive*
G04 Rotation:  0*
G04 FullContactRelief:  No*
G04 UndefLineWidth:     0.020*
G04 ================== end FILE IDENTIFICATION RECORD ====================*
%FSLAX25Y25*MOIN*%
%IR0*IPPOS*OFA0.00000B0.00000*MIA0B0*SFA1.00000B1.00000*%
%AMMACRO10*
1,1,.000787,.019685,0.0*
20,1,.000787,.019685,0.0,.019386,-.003418,0.0*
1,1,.000787,.019386,-.003418*
20,1,.000787,.019386,-.003418,.018498,-.006733,0.0*
1,1,.000787,.018498,-.006733*
20,1,.000787,.018498,-.006733,.017048,-.009843,0.0*
1,1,.000787,.017048,-.009843*
20,1,.000787,.017048,-.009843,.01508,-.012653,0.0*
1,1,.000787,.01508,-.012653*
20,1,.000787,.01508,-.012653,.012653,-.01508,0.0*
1,1,.000787,.012653,-.01508*
20,1,.000787,.012653,-.01508,.009843,-.017048,0.0*
1,1,.000787,.009843,-.017048*
20,1,.000787,.009843,-.017048,.006733,-.018498,0.0*
1,1,.000787,.006733,-.018498*
20,1,.000787,.006733,-.018498,.003418,-.019386,0.0*
1,1,.000787,.003418,-.019386*
20,1,.000787,.003418,-.019386,0.0,-.019685,0.0*
1,1,.000787,0.0,-.019685*
20,1,.000787,0.0,-.019685,-.003418,-.019386,0.0*
1,1,.000787,-.003418,-.019386*
20,1,.000787,-.003418,-.019386,-.006733,-.018498,0.0*
1,1,.000787,-.006733,-.018498*
20,1,.000787,-.006733,-.018498,-.009843,-.017048,0.0*
1,1,.000787,-.009843,-.017048*
20,1,.000787,-.009843,-.017048,-.012653,-.01508,0.0*
1,1,.000787,-.012653,-.01508*
20,1,.000787,-.012653,-.01508,-.01508,-.012653,0.0*
1,1,.000787,-.01508,-.012653*
20,1,.000787,-.01508,-.012653,-.017048,-.009843,0.0*
1,1,.000787,-.017048,-.009843*
20,1,.000787,-.017048,-.009843,-.018498,-.006733,0.0*
1,1,.000787,-.018498,-.006733*
20,1,.000787,-.018498,-.006733,-.019386,-.003418,0.0*
1,1,.000787,-.019386,-.003418*
20,1,.000787,-.019386,-.003418,-.019685,0.0,0.0*
1,1,.000787,-.019685,0.0*
20,1,.000787,-.019685,0.0,-.019386,.003418,0.0*
1,1,.000787,-.019386,.003418*
20,1,.000787,-.019386,.003418,-.018498,.006733,0.0*
1,1,.000787,-.018498,.006733*
20,1,.000787,-.018498,.006733,-.017048,.009843,0.0*
1,1,.000787,-.017048,.009843*
20,1,.000787,-.017048,.009843,-.01508,.012653,0.0*
1,1,.000787,-.01508,.012653*
20,1,.000787,-.01508,.012653,-.012653,.01508,0.0*
1,1,.000787,-.012653,.01508*
20,1,.000787,-.012653,.01508,-.009843,.017048,0.0*
1,1,.000787,-.009843,.017048*
20,1,.000787,-.009843,.017048,-.006733,.018498,0.0*
1,1,.000787,-.006733,.018498*
20,1,.000787,-.006733,.018498,-.003418,.019386,0.0*
1,1,.000787,-.003418,.019386*
20,1,.000787,-.003418,.019386,0.0,.019685,0.0*
1,1,.000787,0.0,.019685*
20,1,.000787,0.0,.019685,.003418,.019386,0.0*
1,1,.000787,.003418,.019386*
20,1,.000787,.003418,.019386,.006733,.018498,0.0*
1,1,.000787,.006733,.018498*
20,1,.000787,.006733,.018498,.009843,.017048,0.0*
1,1,.000787,.009843,.017048*
20,1,.000787,.009843,.017048,.012653,.01508,0.0*
1,1,.000787,.012653,.01508*
20,1,.000787,.012653,.01508,.01508,.012653,0.0*
1,1,.000787,.01508,.012653*
20,1,.000787,.01508,.012653,.017048,.009843,0.0*
1,1,.000787,.017048,.009843*
20,1,.000787,.017048,.009843,.018498,.006733,0.0*
1,1,.000787,.018498,.006733*
20,1,.000787,.018498,.006733,.019386,.003418,0.0*
1,1,.000787,.019386,.003418*
20,1,.000787,.019386,.003418,.019685,0.0,0.0*
1,1,.000787,.019685,0.0*
1,1,.000787,.009843,0.0*
20,1,.000787,.009843,0.0,-.009843,0.0,0.0*
1,1,.000787,-.009843,0.0*
1,1,.000787,0.0,.009843*
20,1,.000787,0.0,.009843,0.0,-.009843,0.0*
1,1,.000787,0.0,-.009843*
%
%ADD10MACRO10*%
%AMMACRO12*
1,1,.000787,.025,0.0*
20,1,.000787,.025,0.0,.02462,-.004341,0.0*
1,1,.000787,.02462,-.004341*
20,1,.000787,.02462,-.004341,.023492,-.008551,0.0*
1,1,.000787,.023492,-.008551*
20,1,.000787,.023492,-.008551,.021651,-.0125,0.0*
1,1,.000787,.021651,-.0125*
20,1,.000787,.021651,-.0125,.019151,-.01607,0.0*
1,1,.000787,.019151,-.01607*
20,1,.000787,.019151,-.01607,.01607,-.019151,0.0*
1,1,.000787,.01607,-.019151*
20,1,.000787,.01607,-.019151,.0125,-.021651,0.0*
1,1,.000787,.0125,-.021651*
20,1,.000787,.0125,-.021651,.008551,-.023492,0.0*
1,1,.000787,.008551,-.023492*
20,1,.000787,.008551,-.023492,.004341,-.02462,0.0*
1,1,.000787,.004341,-.02462*
20,1,.000787,.004341,-.02462,0.0,-.025,0.0*
1,1,.000787,0.0,-.025*
20,1,.000787,0.0,-.025,-.004341,-.02462,0.0*
1,1,.000787,-.004341,-.02462*
20,1,.000787,-.004341,-.02462,-.008551,-.023492,0.0*
1,1,.000787,-.008551,-.023492*
20,1,.000787,-.008551,-.023492,-.0125,-.021651,0.0*
1,1,.000787,-.0125,-.021651*
20,1,.000787,-.0125,-.021651,-.01607,-.019151,0.0*
1,1,.000787,-.01607,-.019151*
20,1,.000787,-.01607,-.019151,-.019151,-.01607,0.0*
1,1,.000787,-.019151,-.01607*
20,1,.000787,-.019151,-.01607,-.021651,-.0125,0.0*
1,1,.000787,-.021651,-.0125*
20,1,.000787,-.021651,-.0125,-.023492,-.008551,0.0*
1,1,.000787,-.023492,-.008551*
20,1,.000787,-.023492,-.008551,-.02462,-.004341,0.0*
1,1,.000787,-.02462,-.004341*
20,1,.000787,-.02462,-.004341,-.025,0.0,0.0*
1,1,.000787,-.025,0.0*
20,1,.000787,-.025,0.0,-.02462,.004341,0.0*
1,1,.000787,-.02462,.004341*
20,1,.000787,-.02462,.004341,-.023492,.008551,0.0*
1,1,.000787,-.023492,.008551*
20,1,.000787,-.023492,.008551,-.021651,.0125,0.0*
1,1,.000787,-.021651,.0125*
20,1,.000787,-.021651,.0125,-.019151,.01607,0.0*
1,1,.000787,-.019151,.01607*
20,1,.000787,-.019151,.01607,-.01607,.019151,0.0*
1,1,.000787,-.01607,.019151*
20,1,.000787,-.01607,.019151,-.0125,.021651,0.0*
1,1,.000787,-.0125,.021651*
20,1,.000787,-.0125,.021651,-.008551,.023492,0.0*
1,1,.000787,-.008551,.023492*
20,1,.000787,-.008551,.023492,-.004341,.02462,0.0*
1,1,.000787,-.004341,.02462*
20,1,.000787,-.004341,.02462,0.0,.025,0.0*
1,1,.000787,0.0,.025*
20,1,.000787,0.0,.025,.004341,.02462,0.0*
1,1,.000787,.004341,.02462*
20,1,.000787,.004341,.02462,.008551,.023492,0.0*
1,1,.000787,.008551,.023492*
20,1,.000787,.008551,.023492,.0125,.021651,0.0*
1,1,.000787,.0125,.021651*
20,1,.000787,.0125,.021651,.01607,.019151,0.0*
1,1,.000787,.01607,.019151*
20,1,.000787,.01607,.019151,.019151,.01607,0.0*
1,1,.000787,.019151,.01607*
20,1,.000787,.019151,.01607,.021651,.0125,0.0*
1,1,.000787,.021651,.0125*
20,1,.000787,.021651,.0125,.023492,.008551,0.0*
1,1,.000787,.023492,.008551*
20,1,.000787,.023492,.008551,.02462,.004341,0.0*
1,1,.000787,.02462,.004341*
20,1,.000787,.02462,.004341,.025,0.0,0.0*
1,1,.000787,.025,0.0*
1,1,.000787,.0125,0.0*
20,1,.000787,.0125,0.0,-.0125,0.0,0.0*
1,1,.000787,-.0125,0.0*
1,1,.000787,0.0,.0125*
20,1,.000787,0.0,.0125,0.0,-.0125,0.0*
1,1,.000787,0.0,-.0125*
%
%ADD12MACRO12*%
%AMMACRO13*
1,1,.000787,.003937,0.0*
20,1,.000787,.003937,0.0,0.0,-.003937,0.0*
1,1,.000787,0.0,-.003937*
20,1,.000787,0.0,-.003937,-.003937,0.0,0.0*
1,1,.000787,-.003937,0.0*
20,1,.000787,-.003937,0.0,0.0,.003937,0.0*
1,1,.000787,0.0,.003937*
20,1,.000787,0.0,.003937,.003937,0.0,0.0*
1,1,.000787,.003937,0.0*
1,1,.000787,.000394,0.0*
20,1,.000787,.000394,0.0,.001693,0.0,0.0*
1,1,.000787,.001693,0.0*
20,1,.000787,.001693,0.0,.001693,-.001181,0.0*
1,1,.000787,.001693,-.001181*
20,1,.000787,.001693,-.001181,.001299,-.001575,0.0*
1,1,.000787,.001299,-.001575*
20,1,.000787,.001299,-.001575,.000866,-.00185,0.0*
1,1,.000787,.000866,-.00185*
20,1,.000787,.000866,-.00185,.000197,-.001969,0.0*
1,1,.000787,.000197,-.001969*
20,1,.000787,.000197,-.001969,-.000472,-.00185,0.0*
1,1,.000787,-.000472,-.00185*
20,1,.000787,-.000472,-.00185,-.000906,-.001575,0.0*
1,1,.000787,-.000906,-.001575*
20,1,.000787,-.000906,-.001575,-.001299,-.001181,0.0*
1,1,.000787,-.001299,-.001181*
20,1,.000787,-.001299,-.001181,-.001575,-.000709,0.0*
1,1,.000787,-.001575,-.000709*
20,1,.000787,-.001575,-.000709,-.001693,-.000197,0.0*
1,1,.000787,-.001693,-.000197*
20,1,.000787,-.001693,-.000197,-.001693,.000276,0.0*
1,1,.000787,-.001693,.000276*
20,1,.000787,-.001693,.000276,-.001575,.000669,0.0*
1,1,.000787,-.001575,.000669*
20,1,.000787,-.001575,.000669,-.001299,.001102,0.0*
1,1,.000787,-.001299,.001102*
20,1,.000787,-.001299,.001102,-.000906,.001496,0.0*
1,1,.000787,-.000906,.001496*
20,1,.000787,-.000906,.001496,-.000512,.001772,0.0*
1,1,.000787,-.000512,.001772*
20,1,.000787,-.000512,.001772,0.0,.001969,0.0*
1,1,.000787,0.0,.001969*
20,1,.000787,0.0,.001969,.000472,.001969,0.0*
1,1,.000787,.000472,.001969*
20,1,.000787,.000472,.001969,.000984,.00185,0.0*
1,1,.000787,.000984,.00185*
20,1,.000787,.000984,.00185,.001378,.001575,0.0*
1,1,.000787,.001378,.001575*
%
%ADD13MACRO13*%
%AMMACRO11*
1,1,.000787,0.0,.03937*
20,1,.000787,0.0,.03937,.03937,-.03937,0.0*
1,1,.000787,.03937,-.03937*
20,1,.000787,.03937,-.03937,-.03937,-.03937,0.0*
1,1,.000787,-.03937,-.03937*
20,1,.000787,-.03937,-.03937,0.0,.03937,0.0*
1,1,.000787,0.0,.03937*
1,1,.000787,.019685,0.0*
20,1,.000787,.019685,0.0,-.019685,0.0,0.0*
1,1,.000787,-.019685,0.0*
1,1,.000787,0.0,.019685*
20,1,.000787,0.0,.019685,0.0,-.019685,0.0*
1,1,.000787,0.0,-.019685*
%
%ADD11MACRO11*%
%ADD14C,.000787*%
G75*
%LPD*%
G75*
G36*
G01X72772Y264366D02*
Y312594D01*
X152772D01*
Y264366D01*
X72772D01*
G37*
G36*
G01Y413185D02*
Y461413D01*
X152772D01*
Y413185D01*
X72772D01*
G37*
G54D10*
X-29055Y-143917D03*
X-29921Y-140157D03*
X-31102Y-152362D03*
X-35433Y-127520D03*
X-35039Y-133071D03*
X-41732Y-136024D03*
X-35047Y-107480D03*
Y-122520D03*
Y-117323D03*
X-35138Y-112598D03*
X-41929Y-110433D03*
Y-120472D03*
Y-97244D03*
X-28445Y-88583D03*
X-38583Y-77067D03*
X-42126Y-89370D03*
X-33661Y-69291D03*
X-34449Y-56496D03*
X-30512Y-61614D03*
X-38583Y-63681D03*
X-32480Y-44685D03*
X-38583Y-50295D03*
X-31890Y-32677D03*
X-38583Y-26969D03*
Y-36909D03*
X-36614Y-7874D03*
X-28740Y-22441D03*
X-42323Y-13189D03*
X-30315Y-2756D03*
X-35827Y1575D03*
X-19094Y-140551D03*
X-18902Y-143965D03*
X-11811Y-143130D03*
X-20669Y-152953D03*
X-13756Y-127559D03*
Y-132677D03*
X-11024Y-134646D03*
X-11811Y-125197D03*
Y-129921D03*
X-24803Y-138976D03*
X-13756Y-122520D03*
Y-117520D03*
X-12795Y-102520D03*
X-19276Y-82874D03*
X-11811Y-76181D03*
X-16732Y-80118D03*
X-22697Y-65276D03*
X-20079Y-46654D03*
X-24409Y-40354D03*
Y-52264D03*
X-18307Y-29921D03*
X-12520Y-33858D03*
X-25394Y-28740D03*
X-22835Y-7480D03*
X-14370Y-22244D03*
X-20669Y-16732D03*
X-12795Y-13189D03*
X-25984Y-13386D03*
X-16142Y-3937D03*
X-22441Y1575D03*
X-10630D03*
X4331Y-143110D03*
X-5906Y-151969D03*
X1575Y-127854D03*
X-2756Y-135039D03*
X-5118Y-126772D03*
X4921Y-110236D03*
Y-107480D03*
X5906Y-116142D03*
X-5520Y-114563D03*
X-4331Y-100598D03*
X-7874D03*
X-4331Y-106201D03*
X-10047Y-71654D03*
X3346Y-49803D03*
X-1575Y-51181D03*
X3358Y-52559D03*
X-8465Y-43898D03*
X-9252Y-54724D03*
X6496Y-27559D03*
X4331D03*
X-157Y-29563D03*
X1969Y-27953D03*
X-7087Y-27756D03*
X-5276Y-29563D03*
X2283Y-30433D03*
X-7874Y-20472D03*
X1181Y-20079D03*
X-9449Y-7874D03*
X-7874Y-11417D03*
X-5118Y-14567D03*
X-1181D03*
X2756Y-12598D03*
X2362Y1575D03*
X3150Y-4724D03*
X-394Y-2756D03*
X-4331D03*
X-7874Y-4331D03*
X21260Y-143701D03*
X9449Y-152953D03*
X11811Y-135039D03*
X21063Y-111220D03*
X15559Y-99409D03*
X18504Y-57087D03*
X12205Y-57480D03*
X18563Y-63071D03*
X18898Y-45669D03*
X11417D03*
X11024Y-51181D03*
X14173Y-51575D03*
X15354Y-55118D03*
X16929Y-49606D03*
X18504Y-51969D03*
Y-54724D03*
X11417Y-48425D03*
Y-53937D03*
X14567Y-47244D03*
X10827Y-42362D03*
X16535Y-44882D03*
X15354Y-24409D03*
X16732Y-30709D03*
X13583Y-27559D03*
X11024D03*
X8858D03*
X22244Y-33661D03*
Y-35630D03*
Y-37598D03*
Y-39567D03*
X16535Y-28346D03*
X8465Y-33976D03*
X10630Y-19685D03*
X18110Y-20079D03*
X7087Y-12598D03*
X11024D03*
X14961D03*
X18110Y-15354D03*
X14173Y1575D03*
X22835Y1969D03*
X19291Y-4724D03*
X15354D03*
X11417D03*
X7480D03*
X35039Y-152559D03*
X29528Y-133858D03*
X34843Y-114764D03*
X35236Y-108268D03*
X25394Y-114173D03*
X30815Y-108071D03*
X27539Y-115402D03*
X29043Y-111413D03*
X26575Y-111425D03*
X23425Y-111220D03*
X37587Y-100984D03*
X39370Y-81890D03*
Y-78740D03*
X29528Y-66535D03*
X31496Y-60236D03*
X31890Y-57087D03*
X31516Y-63701D03*
X25197Y-57087D03*
Y-61024D03*
X39764Y-62992D03*
X37008Y-69291D03*
X37992Y-66142D03*
X37008Y-49606D03*
X25197Y-46063D03*
X36614Y-44882D03*
X31890Y-49606D03*
Y-46063D03*
Y-53150D03*
X34646Y-55512D03*
X25039Y-49193D03*
X25098Y-53150D03*
X35827Y-24016D03*
X26378D03*
X28150Y-39567D03*
X26181D03*
Y-37598D03*
X28150D03*
Y-35630D03*
X26181D03*
Y-33661D03*
X28150D03*
X24213D03*
Y-35630D03*
Y-37598D03*
Y-39567D03*
X35433Y-29528D03*
X38976Y-33268D03*
X38780Y-28937D03*
X38937Y-37008D03*
X31890Y-27559D03*
X28150D03*
X24803D03*
X34646Y-33071D03*
Y-36614D03*
X37008Y-17323D03*
X29528Y-21260D03*
Y-16929D03*
X29921Y-12598D03*
X25984D03*
X33858Y-12205D03*
X35827Y-8661D03*
X33465Y-5906D03*
Y-1969D03*
Y1969D03*
X25591Y-787D03*
Y-4724D03*
X55906Y-147638D03*
X42913Y-143307D03*
X48819Y-131102D03*
X46063Y-130610D03*
X43307Y-133465D03*
X54331Y-131890D03*
X50394Y-106496D03*
X48819Y-120453D03*
X46063Y-120965D03*
X40157Y-107677D03*
X51575Y-120079D03*
X42520Y-120866D03*
X43504Y-117717D03*
X40551Y-99508D03*
X53150Y-106299D03*
X51969Y-99213D03*
X43307Y-104528D03*
X46437Y-86516D03*
X40551Y-85039D03*
X53465Y-86417D03*
X49587Y-86437D03*
X55126Y-76575D03*
X43307Y-78760D03*
X52567Y-57677D03*
X42126Y-60630D03*
X44094Y-58268D03*
X55709Y-58752D03*
X55512Y-67323D03*
X48425Y-67717D03*
X47244Y-49213D03*
X56220Y-51339D03*
X52559Y-47677D03*
X49094Y-44213D03*
X44567Y-42402D03*
X55906Y-43425D03*
X52205Y-39724D03*
X40551Y-45669D03*
X49016Y-55709D03*
X43701Y-29134D03*
X51969Y-32480D03*
X43307Y-23819D03*
X48228Y-29331D03*
X47677Y-37126D03*
X43268Y-37047D03*
X55709Y-35630D03*
X54331Y-27165D03*
X49606Y-24213D03*
X43701Y-6299D03*
X50787Y-16732D03*
X43898Y-17717D03*
X54528Y-21260D03*
X54921Y-13583D03*
X45669Y-13189D03*
X55118Y-5906D03*
X46850Y-394D03*
X64961Y-140945D03*
X65000Y-134823D03*
X69685Y-108858D03*
X57874Y-113386D03*
X66142Y-120079D03*
X68701Y-99213D03*
X59508Y-78917D03*
X64961Y-84646D03*
X66929Y-80906D03*
X60669Y-69350D03*
X60610Y-62323D03*
X67992Y-62638D03*
X67402Y-70591D03*
X59685Y-47205D03*
X71063Y-47047D03*
X59173Y-54587D03*
X67874Y-54843D03*
X64961Y-43504D03*
Y-49213D03*
X71457Y-41535D03*
X60039Y-39173D03*
X73228Y-35433D03*
X71457Y-26772D03*
X68110Y-38583D03*
X68898Y-30709D03*
X59449Y-30118D03*
X60827Y-24213D03*
X63780Y-34055D03*
X64567Y-27756D03*
X69685Y-6299D03*
X60039Y-19488D03*
X71260Y-22047D03*
X64961Y-18110D03*
X71260Y-13386D03*
Y-17323D03*
X61803Y-14567D03*
X62598Y-394D03*
X81693Y-147047D03*
X75591Y-152953D03*
X85551Y-125102D03*
X85236Y-130039D03*
X82283Y-132087D03*
X81299Y-124409D03*
X82480Y-112008D03*
X84843D03*
X82480Y-109843D03*
X84843D03*
X82480Y-107677D03*
X84843D03*
X74016Y-120472D03*
X83465Y-118110D03*
X85827Y-100000D03*
X88583Y-84646D03*
X76772D03*
X81890Y-85335D03*
X88583Y-72835D03*
Y-61024D03*
X76772Y-72835D03*
Y-61024D03*
X75394Y-54724D03*
X88976Y-52756D03*
X88189Y-45669D03*
X83071Y-49803D03*
X81496Y-43504D03*
X76772Y-49213D03*
X79528Y-27559D03*
X85827Y-26575D03*
X75984Y-31299D03*
X80906Y-35236D03*
X87008Y-38583D03*
X77165Y-39567D03*
X85630Y-32283D03*
X85236Y-19094D03*
X76969Y-13583D03*
X77165Y-21654D03*
X89370Y-13386D03*
X83071Y-5906D03*
X76378Y-394D03*
X89370D03*
X101575Y-140748D03*
X94094Y-151575D03*
X101181Y-152362D03*
X102067Y-144882D03*
X95669Y-130118D03*
Y-125394D03*
X106299Y-134843D03*
X105709Y-110039D03*
X95276Y-120079D03*
X105315Y-119862D03*
X95669Y-115354D03*
Y-110220D03*
X105906Y-94882D03*
X106299Y-98031D03*
X95866Y-100417D03*
X100394Y-84646D03*
X101181Y-88701D03*
X105709Y-82480D03*
X91339Y-83071D03*
X100394Y-72835D03*
Y-61024D03*
X94488Y-40354D03*
X105118Y-52756D03*
X101181Y-39961D03*
X105709Y-46260D03*
X95669Y-47638D03*
X92126Y-23228D03*
X101181Y-23622D03*
X92520Y-33268D03*
X96260Y-28543D03*
X105906Y-27165D03*
X101378Y-33661D03*
X95669Y-6693D03*
X96260Y-18307D03*
X101378Y-13583D03*
X100787Y-787D03*
X112205Y-144685D03*
X112402Y-136024D03*
X112598Y-127362D03*
Y-115157D03*
Y-98031D03*
X112205Y-84646D03*
X111811Y-75984D03*
X112205Y-72835D03*
Y-61024D03*
X111811Y-63386D03*
X111024Y-40551D03*
X111811Y-52362D03*
X111417Y-30709D03*
X107283Y-35433D03*
X112402Y-23228D03*
X107087Y-6693D03*
Y-19291D03*
X112402Y-13386D03*
X112205Y-787D03*
X214823Y-38091D03*
G54D11*
X-24402Y-143772D03*
Y-86268D03*
X95598Y-143772D03*
Y-86268D03*
X214823Y-113091D03*
G54D12*
X5512Y-90551D03*
Y-78740D03*
Y-74803D03*
Y-86614D03*
Y-82677D03*
X21260Y-90551D03*
X17323D03*
X13386D03*
X9449D03*
X17323Y-78740D03*
X21260D03*
Y-74803D03*
X17323D03*
X9449Y-78740D03*
X13386D03*
Y-74803D03*
X9449D03*
X17323Y-86614D03*
X21260D03*
Y-82677D03*
X17323D03*
X9449Y-86614D03*
X13386D03*
Y-82677D03*
X9449D03*
X214823Y-63091D03*
G54D13*
X1890Y26969D03*
Y15945D03*
Y37992D03*
Y49016D03*
Y60039D03*
Y71063D03*
Y82087D03*
Y93110D03*
Y104134D03*
Y115157D03*
Y126181D03*
Y137205D03*
Y148228D03*
X22756Y26969D03*
Y37992D03*
Y49016D03*
Y60039D03*
Y71063D03*
Y82087D03*
Y93110D03*
Y104134D03*
Y115157D03*
Y126181D03*
Y137205D03*
Y148228D03*
X214823Y-88091D03*
G54D14*
G01X-45276Y-156693D02*
X115744D01*
X115748Y-156689D01*
Y151772D01*
X-45276D01*
Y135630D01*
Y-156693D01*
G01X-45610Y218535D02*
Y231035D01*
X-42512D01*
X-41272Y230409D01*
X-40343Y229579D01*
X-39567Y228327D01*
X-38945Y226870D01*
X-38791Y224783D01*
X-38945Y222701D01*
X-39567Y221244D01*
X-40343Y219992D01*
X-41272Y219161D01*
X-42512Y218535D01*
X-45610D01*
G01X-26705D02*
X-32902D01*
Y231035D01*
X-26705D01*
G01X-29185Y224992D02*
X-32902D01*
G01X-20661Y220201D02*
X-19421Y219161D01*
X-18024Y218535D01*
X-16787D01*
X-15547Y219161D01*
X-14614Y220201D01*
X-14150Y221661D01*
X-14461Y223118D01*
X-15236Y224370D01*
X-16630Y225201D01*
X-18492Y225618D01*
X-19575Y226453D01*
X-20039Y227909D01*
X-19728Y229370D01*
X-18957Y230409D01*
X-17870Y231035D01*
X-16787D01*
X-15701Y230618D01*
X-14772Y229579D01*
G01X-6866Y231035D02*
X-3150D01*
G01X-5008D02*
Y218535D01*
G01X-6866D02*
X-3150D01*
G01X8319Y224783D02*
X11421D01*
Y221035D01*
X10488Y219783D01*
X9406Y218953D01*
X7854Y218535D01*
X6303Y218953D01*
X5220Y219783D01*
X4291Y221035D01*
X3669Y222492D01*
X3358Y224161D01*
Y225618D01*
X3669Y226870D01*
X4291Y228327D01*
X5220Y229579D01*
X6150Y230409D01*
X7390Y231035D01*
X8476D01*
X9713Y230618D01*
X10646Y229783D01*
G01X16224Y218535D02*
Y231035D01*
X23350Y218535D01*
Y231035D01*
G01X47992Y229992D02*
X47063Y230618D01*
X45976Y231035D01*
X44736D01*
X43343Y230409D01*
X42260Y229370D01*
X41484Y228118D01*
X40862Y226035D01*
X40709Y224161D01*
X41020Y222283D01*
X41484Y221035D01*
X42413Y219783D01*
X43496Y218953D01*
X44583Y218535D01*
X45669D01*
X46752Y218953D01*
X47681Y219579D01*
X48457Y220409D01*
G01X53882Y218535D02*
Y231035D01*
X57756D01*
X58996Y230409D01*
X59772Y229579D01*
X60079Y227909D01*
X59772Y226244D01*
X58839Y225201D01*
X57756Y224579D01*
X53882D01*
G01X57756D02*
X60079Y218535D01*
G01X69378D02*
X68138Y218744D01*
X67055Y219579D01*
X66122Y220827D01*
X65504Y222283D01*
X65193Y223953D01*
Y225618D01*
X65504Y227287D01*
X66122Y228744D01*
X67055Y229992D01*
X68138Y230827D01*
X69378Y231035D01*
X70618Y230827D01*
X71701Y229992D01*
X72634Y228744D01*
X73252Y227287D01*
X73563Y225618D01*
Y223953D01*
X73252Y222283D01*
X72634Y220827D01*
X71701Y219579D01*
X70618Y218744D01*
X69378Y218535D01*
G01X78520Y220201D02*
X79760Y219161D01*
X81157Y218535D01*
X82394D01*
X83634Y219161D01*
X84567Y220201D01*
X85031Y221661D01*
X84720Y223118D01*
X83945Y224370D01*
X82551Y225201D01*
X80689Y225618D01*
X79606Y226453D01*
X79142Y227909D01*
X79453Y229370D01*
X80224Y230409D01*
X81311Y231035D01*
X82394D01*
X83480Y230618D01*
X84409Y229579D01*
G01X90917Y220201D02*
X92157Y219161D01*
X93555Y218535D01*
X94791D01*
X96031Y219161D01*
X96965Y220201D01*
X97429Y221661D01*
X97118Y223118D01*
X96343Y224370D01*
X94949Y225201D01*
X93087Y225618D01*
X92004Y226453D01*
X91539Y227909D01*
X91850Y229370D01*
X92622Y230409D01*
X93709Y231035D01*
X94791D01*
X95878Y230618D01*
X96807Y229579D01*
G01X115713Y220201D02*
X116953Y219161D01*
X118350Y218535D01*
X119587D01*
X120827Y219161D01*
X121760Y220201D01*
X122224Y221661D01*
X121913Y223118D01*
X121138Y224370D01*
X119744Y225201D01*
X117882Y225618D01*
X116799Y226453D01*
X116335Y227909D01*
X116646Y229370D01*
X117417Y230409D01*
X118504Y231035D01*
X119587D01*
X120673Y230618D01*
X121602Y229579D01*
G01X134465Y218535D02*
X128268D01*
Y231035D01*
X134465D01*
G01X131984Y224992D02*
X128268D01*
G01X147173Y229992D02*
X146244Y230618D01*
X145157Y231035D01*
X143917D01*
X142524Y230409D01*
X141441Y229370D01*
X140665Y228118D01*
X140043Y226035D01*
X139890Y224161D01*
X140201Y222283D01*
X140665Y221035D01*
X141594Y219783D01*
X142677Y218953D01*
X143764Y218535D01*
X144850D01*
X145933Y218953D01*
X146862Y219579D01*
X147638Y220409D01*
G01X156161Y231035D02*
Y218535D01*
G01X152598Y231035D02*
X159724D01*
G01X166701D02*
X170417D01*
G01X168559D02*
Y218535D01*
G01X166701D02*
X170417D01*
G01X180957D02*
X179717Y218744D01*
X178634Y219579D01*
X177701Y220827D01*
X177083Y222283D01*
X176772Y223953D01*
Y225618D01*
X177083Y227287D01*
X177701Y228744D01*
X178634Y229992D01*
X179717Y230827D01*
X180957Y231035D01*
X182197Y230827D01*
X183280Y229992D01*
X184213Y228744D01*
X184831Y227287D01*
X185142Y225618D01*
Y223953D01*
X184831Y222283D01*
X184213Y220827D01*
X183280Y219579D01*
X182197Y218744D01*
X180957Y218535D01*
G01X189791D02*
Y231035D01*
X196917Y218535D01*
Y231035D01*
G01X221559Y229992D02*
X220630Y230618D01*
X219543Y231035D01*
X218303D01*
X216909Y230409D01*
X215827Y229370D01*
X215051Y228118D01*
X214429Y226035D01*
X214276Y224161D01*
X214587Y222283D01*
X215051Y221035D01*
X215980Y219783D01*
X217063Y218953D01*
X218150Y218535D01*
X219236D01*
X220319Y218953D01*
X221248Y219579D01*
X222024Y220409D01*
G01X227291Y218535D02*
Y231035D01*
G01X233803D02*
Y218535D01*
G01Y224783D02*
X227291D01*
G01X239071Y218535D02*
X242945Y231035D01*
X246819Y218535D01*
G01X245425Y222909D02*
X240465D01*
G01X252244Y218535D02*
Y231035D01*
X256118D01*
X257358Y230409D01*
X258134Y229579D01*
X258441Y227909D01*
X258134Y226244D01*
X257201Y225201D01*
X256118Y224579D01*
X252244D01*
G01X256118D02*
X258441Y218535D01*
G01X267740Y231035D02*
Y218535D01*
G01X264177Y231035D02*
X271303D01*
G01X-17406Y206035D02*
Y193535D01*
G01X-20969Y206035D02*
X-13843D01*
G01X-5008Y193535D02*
X-6248Y193744D01*
X-7331Y194579D01*
X-8264Y195827D01*
X-8882Y197283D01*
X-9193Y198953D01*
Y200618D01*
X-8882Y202287D01*
X-8264Y203744D01*
X-7331Y204992D01*
X-6248Y205827D01*
X-5008Y206035D01*
X-3768Y205827D01*
X-2685Y204992D01*
X-1752Y203744D01*
X-1134Y202287D01*
X-823Y200618D01*
Y198953D01*
X-1134Y197283D01*
X-1752Y195827D01*
X-2685Y194579D01*
X-3768Y193744D01*
X-5008Y193535D01*
G01X7390Y206035D02*
Y193535D01*
G01X3827Y206035D02*
X10953D01*
G01X15913Y193535D02*
X19787Y206035D01*
X23661Y193535D01*
G01X22268Y197909D02*
X17307D01*
G01X29087Y206035D02*
Y193535D01*
X35283D01*
G01X56980Y206035D02*
Y193535D01*
G01X53417Y206035D02*
X60543D01*
G01X66122Y193535D02*
Y206035D01*
G01X72634D02*
Y193535D01*
G01Y199783D02*
X66122D01*
G01X79917Y206035D02*
X83634D01*
G01X81776D02*
Y193535D01*
G01X79917D02*
X83634D01*
G01X97583Y204992D02*
X96654Y205618D01*
X95567Y206035D01*
X94327D01*
X92933Y205409D01*
X91850Y204370D01*
X91075Y203118D01*
X90453Y201035D01*
X90299Y199161D01*
X90610Y197283D01*
X91075Y196035D01*
X92004Y194783D01*
X93087Y193953D01*
X94173Y193535D01*
X95260D01*
X96343Y193953D01*
X97272Y194579D01*
X98047Y195409D01*
G01X103161Y193535D02*
Y206035D01*
G01X109051D02*
X103161Y198327D01*
G01X109980Y193535D02*
X105795Y201870D01*
G01X115406Y193535D02*
Y206035D01*
X122531Y193535D01*
Y206035D01*
G01X134465Y193535D02*
X128268D01*
Y206035D01*
X134465D01*
G01X131984Y199992D02*
X128268D01*
G01X140508Y195201D02*
X141748Y194161D01*
X143146Y193535D01*
X144382D01*
X145622Y194161D01*
X146555Y195201D01*
X147020Y196661D01*
X146709Y198118D01*
X145933Y199370D01*
X144539Y200201D01*
X142677Y200618D01*
X141594Y201453D01*
X141130Y202909D01*
X141441Y204370D01*
X142213Y205409D01*
X143299Y206035D01*
X144382D01*
X145469Y205618D01*
X146398Y204579D01*
G01X152906Y195201D02*
X154146Y194161D01*
X155543Y193535D01*
X156780D01*
X158020Y194161D01*
X158953Y195201D01*
X159417Y196661D01*
X159106Y198118D01*
X158331Y199370D01*
X156937Y200201D01*
X155075Y200618D01*
X153992Y201453D01*
X153528Y202909D01*
X153839Y204370D01*
X154610Y205409D01*
X155697Y206035D01*
X156780D01*
X157866Y205618D01*
X158795Y204579D01*
G01X180957Y206035D02*
X179717Y205618D01*
X178787Y204579D01*
X178165Y203327D01*
X177701Y201661D01*
X177547Y199783D01*
X177701Y197909D01*
X178165Y196244D01*
X178787Y194992D01*
X179717Y193953D01*
X180957Y193535D01*
X182197Y193953D01*
X183126Y194992D01*
X183748Y196244D01*
X184213Y197909D01*
X184366Y199783D01*
X184213Y201661D01*
X183748Y203327D01*
X183126Y204579D01*
X182197Y205618D01*
X180957Y206035D01*
G01X193354Y193118D02*
X193043Y193327D01*
Y193744D01*
X193354Y193953D01*
X193665Y193744D01*
Y193327D01*
X193354Y193118D01*
G01X205752Y193535D02*
X206839Y193744D01*
X208075Y194370D01*
X208850Y195409D01*
X209161Y196870D01*
X208850Y198327D01*
X207921Y199579D01*
X206528Y200201D01*
X204976D01*
X204047Y200618D01*
X203272Y201661D01*
X202961Y203118D01*
X203429Y204579D01*
X204512Y205618D01*
X205752Y206035D01*
X206992Y205618D01*
X208075Y204579D01*
X208543Y203118D01*
X208232Y201661D01*
X207457Y200618D01*
X206528Y200201D01*
X204976D01*
X203583Y199579D01*
X202654Y198327D01*
X202343Y196870D01*
X202654Y195409D01*
X203429Y194370D01*
X204665Y193744D01*
X205752Y193535D01*
G01X226516D02*
Y206035D01*
X230547Y195618D01*
X234579Y206035D01*
Y193535D01*
G01X238913D02*
Y206035D01*
X242945Y195618D01*
X246976Y206035D01*
Y193535D01*
G01X72772Y312594D02*
Y413185D01*
X152772D01*
Y312594D01*
X72772D01*
G01X191205Y247283D02*
X198024Y256453D01*
G01X194614Y258118D02*
Y245618D01*
G01X198024Y247283D02*
X191205Y256453D01*
G01X189965Y251866D02*
X199264D01*
G01X228551Y249366D02*
X229791Y248327D01*
X231189Y247701D01*
X232425D01*
X233665Y248327D01*
X234598Y249366D01*
X235063Y250827D01*
X234752Y252283D01*
X233976Y253535D01*
X232583Y254366D01*
X230720Y254783D01*
X229638Y255618D01*
X229173Y257075D01*
X229484Y258535D01*
X230256Y259575D01*
X231343Y260201D01*
X232425D01*
X233512Y259783D01*
X234441Y258744D01*
G01X240795Y260201D02*
Y251244D01*
X241413Y249366D01*
X242654Y248118D01*
X244205Y247701D01*
X245756Y248118D01*
X246996Y249366D01*
X247614Y251244D01*
Y260201D01*
G01X253504Y247701D02*
Y260201D01*
X257378D01*
X258618Y259575D01*
X259394Y258744D01*
X259701Y257075D01*
X259394Y255409D01*
X258461Y254366D01*
X257378Y253744D01*
X253504D01*
G01X257378D02*
X259701Y247701D01*
G01X266055D02*
Y260201D01*
X271945D01*
G01X269776Y254157D02*
X266055D01*
G01X277524Y247701D02*
X281398Y260201D01*
X285272Y247701D01*
G01X283878Y252075D02*
X278917D01*
G01X297205Y259157D02*
X296276Y259783D01*
X295189Y260201D01*
X293949D01*
X292555Y259575D01*
X291472Y258535D01*
X290697Y257283D01*
X290075Y255201D01*
X289921Y253327D01*
X290232Y251449D01*
X290697Y250201D01*
X291626Y248949D01*
X292709Y248118D01*
X293795Y247701D01*
X294882D01*
X295965Y248118D01*
X296894Y248744D01*
X297669Y249575D01*
G01X309291Y247701D02*
X303094D01*
Y260201D01*
X309291D01*
G01X306811Y254157D02*
X303094D01*
G01X328972Y251866D02*
X333004D01*
G01X351909Y247701D02*
X355783Y260201D01*
X359657Y247701D01*
G01X358264Y252075D02*
X353303D01*
G01X366323Y260201D02*
X370039D01*
G01X368181D02*
Y247701D01*
G01X366323D02*
X370039D01*
G01X377480D02*
Y260201D01*
X381354D01*
X382594Y259575D01*
X383370Y258744D01*
X383677Y257075D01*
X383370Y255409D01*
X382437Y254366D01*
X381354Y253744D01*
X377480D01*
G01X381354D02*
X383677Y247701D01*
G01X405374Y260201D02*
X404134Y259783D01*
X403205Y258744D01*
X402583Y257492D01*
X402118Y255827D01*
X401965Y253949D01*
X402118Y252075D01*
X402583Y250409D01*
X403205Y249157D01*
X404134Y248118D01*
X405374Y247701D01*
X406614Y248118D01*
X407543Y249157D01*
X408165Y250409D01*
X408630Y252075D01*
X408783Y253949D01*
X408630Y255827D01*
X408165Y257492D01*
X407543Y258744D01*
X406614Y259783D01*
X405374Y260201D01*
G01X426138Y247701D02*
Y260201D01*
X430169Y249783D01*
X434201Y260201D01*
Y247701D01*
G01X438535D02*
Y260201D01*
X442567Y249783D01*
X446598Y260201D01*
Y247701D01*
G01X166720Y300980D02*
Y288480D01*
X172917D01*
G01X179272Y298898D02*
X180201Y300146D01*
X181287Y300772D01*
X182528Y300980D01*
X184075Y300563D01*
X185161Y299524D01*
X185472Y298272D01*
X185315Y297024D01*
X184697Y295980D01*
X181598Y293898D01*
X180201Y292437D01*
X179272Y290354D01*
X178961Y288480D01*
X185472D01*
G01X194614Y288063D02*
X194303Y288272D01*
Y288689D01*
X194614Y288898D01*
X194925Y288689D01*
Y288272D01*
X194614Y288063D01*
G01Y293689D02*
X194303Y293898D01*
Y294315D01*
X194614Y294524D01*
X194925Y294315D01*
Y293898D01*
X194614Y293689D01*
G01X220650Y295146D02*
X221268Y295772D01*
X221732Y296815D01*
X222043Y298272D01*
X221732Y299524D01*
X221114Y300354D01*
X220028Y300980D01*
X215846D01*
Y288480D01*
X220961D01*
X222043Y289315D01*
X222665Y290563D01*
X222972Y292024D01*
X222665Y293480D01*
X221732Y294728D01*
X220650Y295146D01*
X215846D01*
G01X231807Y288480D02*
X230567Y288689D01*
X229484Y289524D01*
X228551Y290772D01*
X227933Y292228D01*
X227622Y293898D01*
Y295563D01*
X227933Y297232D01*
X228551Y298689D01*
X229484Y299937D01*
X230567Y300772D01*
X231807Y300980D01*
X233047Y300772D01*
X234130Y299937D01*
X235063Y298689D01*
X235681Y297232D01*
X235992Y295563D01*
Y293898D01*
X235681Y292228D01*
X235063Y290772D01*
X234130Y289524D01*
X233047Y288689D01*
X231807Y288480D01*
G01X244205Y300980D02*
Y288480D01*
G01X240642Y300980D02*
X247768D01*
G01X256602D02*
Y288480D01*
G01X253039Y300980D02*
X260165D01*
G01X269000Y288480D02*
X267760Y288689D01*
X266677Y289524D01*
X265744Y290772D01*
X265126Y292228D01*
X264815Y293898D01*
Y295563D01*
X265126Y297232D01*
X265744Y298689D01*
X266677Y299937D01*
X267760Y300772D01*
X269000Y300980D01*
X270240Y300772D01*
X271323Y299937D01*
X272256Y298689D01*
X272874Y297232D01*
X273185Y295563D01*
Y293898D01*
X272874Y292228D01*
X272256Y290772D01*
X271323Y289524D01*
X270240Y288689D01*
X269000Y288480D01*
G01X277366D02*
Y300980D01*
X281398Y290563D01*
X285429Y300980D01*
Y288480D01*
G01X309602Y299937D02*
X308673Y300563D01*
X307587Y300980D01*
X306346D01*
X304953Y300354D01*
X303870Y299315D01*
X303094Y298063D01*
X302472Y295980D01*
X302319Y294106D01*
X302630Y292228D01*
X303094Y290980D01*
X304024Y289728D01*
X305106Y288898D01*
X306193Y288480D01*
X307280D01*
X308362Y288898D01*
X309291Y289524D01*
X310067Y290354D01*
G01X318591Y288480D02*
X317350Y288689D01*
X316268Y289524D01*
X315335Y290772D01*
X314717Y292228D01*
X314406Y293898D01*
Y295563D01*
X314717Y297232D01*
X315335Y298689D01*
X316268Y299937D01*
X317350Y300772D01*
X318591Y300980D01*
X319831Y300772D01*
X320913Y299937D01*
X321846Y298689D01*
X322465Y297232D01*
X322776Y295563D01*
Y293898D01*
X322465Y292228D01*
X321846Y290772D01*
X320913Y289524D01*
X319831Y288689D01*
X318591Y288480D01*
G01X327425D02*
Y300980D01*
X334551Y288480D01*
Y300980D01*
G01X339976Y288480D02*
Y300980D01*
X343075D01*
X344315Y300354D01*
X345244Y299524D01*
X346020Y298272D01*
X346642Y296815D01*
X346795Y294728D01*
X346642Y292646D01*
X346020Y291189D01*
X345244Y289937D01*
X344315Y289106D01*
X343075Y288480D01*
X339976D01*
G01X352374Y300980D02*
Y292024D01*
X352992Y290146D01*
X354232Y288898D01*
X355783Y288480D01*
X357335Y288898D01*
X358575Y290146D01*
X359193Y292024D01*
Y300980D01*
G01X371591Y299937D02*
X370661Y300563D01*
X369575Y300980D01*
X368335D01*
X366941Y300354D01*
X365858Y299315D01*
X365083Y298063D01*
X364461Y295980D01*
X364307Y294106D01*
X364618Y292228D01*
X365083Y290980D01*
X366012Y289728D01*
X367094Y288898D01*
X368181Y288480D01*
X369268D01*
X370350Y288898D01*
X371280Y289524D01*
X372055Y290354D01*
G01X380579Y300980D02*
Y288480D01*
G01X377016Y300980D02*
X384142D01*
G01X392976Y288480D02*
X391736Y288689D01*
X390654Y289524D01*
X389720Y290772D01*
X389102Y292228D01*
X388791Y293898D01*
Y295563D01*
X389102Y297232D01*
X389720Y298689D01*
X390654Y299937D01*
X391736Y300772D01*
X392976Y300980D01*
X394217Y300772D01*
X395299Y299937D01*
X396232Y298689D01*
X396850Y297232D01*
X397161Y295563D01*
Y293898D01*
X396850Y292228D01*
X396232Y290772D01*
X395299Y289524D01*
X394217Y288689D01*
X392976Y288480D01*
G01X402276D02*
Y300980D01*
X406150D01*
X407390Y300354D01*
X408165Y299524D01*
X408472Y297854D01*
X408165Y296189D01*
X407232Y295146D01*
X406150Y294524D01*
X402276D01*
G01X406150D02*
X408472Y288480D01*
G01X428154Y292646D02*
X432185D01*
G01X458374Y299937D02*
X457445Y300563D01*
X456358Y300980D01*
X455118D01*
X453724Y300354D01*
X452642Y299315D01*
X451866Y298063D01*
X451244Y295980D01*
X451091Y294106D01*
X451402Y292228D01*
X451866Y290980D01*
X452795Y289728D01*
X453878Y288898D01*
X454965Y288480D01*
X456051D01*
X457134Y288898D01*
X458063Y289524D01*
X458839Y290354D01*
G01X467362Y288480D02*
X466122Y288689D01*
X465039Y289524D01*
X464106Y290772D01*
X463488Y292228D01*
X463177Y293898D01*
Y295563D01*
X463488Y297232D01*
X464106Y298689D01*
X465039Y299937D01*
X466122Y300772D01*
X467362Y300980D01*
X468602Y300772D01*
X469685Y299937D01*
X470618Y298689D01*
X471236Y297232D01*
X471547Y295563D01*
Y293898D01*
X471236Y292228D01*
X470618Y290772D01*
X469685Y289524D01*
X468602Y288689D01*
X467362Y288480D01*
G01X476661D02*
Y300980D01*
X480378D01*
X481618Y300354D01*
X482551Y298898D01*
X482858Y297232D01*
X482551Y295563D01*
X481776Y294315D01*
X480378Y293689D01*
X476661D01*
G01X489059Y288480D02*
Y300980D01*
X492776D01*
X494016Y300354D01*
X494949Y298898D01*
X495256Y297232D01*
X494949Y295563D01*
X494173Y294315D01*
X492776Y293689D01*
X489059D01*
G01X507654Y288480D02*
X501457D01*
Y300980D01*
X507654D01*
G01X505173Y294937D02*
X501457D01*
G01X513854Y288480D02*
Y300980D01*
X517728D01*
X518969Y300354D01*
X519744Y299524D01*
X520051Y297854D01*
X519744Y296189D01*
X518811Y295146D01*
X517728Y294524D01*
X513854D01*
G01X517728D02*
X520051Y288480D01*
G01X541748Y300980D02*
X540508Y300563D01*
X539579Y299524D01*
X538957Y298272D01*
X538492Y296606D01*
X538339Y294728D01*
X538492Y292854D01*
X538957Y291189D01*
X539579Y289937D01*
X540508Y288898D01*
X541748Y288480D01*
X542988Y288898D01*
X543917Y289937D01*
X544539Y291189D01*
X545004Y292854D01*
X545157Y294728D01*
X545004Y296606D01*
X544539Y298272D01*
X543917Y299524D01*
X542988Y300563D01*
X541748Y300980D01*
G01X554146Y288063D02*
X553835Y288272D01*
Y288689D01*
X554146Y288898D01*
X554457Y288689D01*
Y288272D01*
X554146Y288063D01*
G01X566543Y300980D02*
X565303Y300563D01*
X564374Y299524D01*
X563752Y298272D01*
X563287Y296606D01*
X563134Y294728D01*
X563287Y292854D01*
X563752Y291189D01*
X564374Y289937D01*
X565303Y288898D01*
X566543Y288480D01*
X567783Y288898D01*
X568713Y289937D01*
X569335Y291189D01*
X569799Y292854D01*
X569953Y294728D01*
X569799Y296606D01*
X569335Y298272D01*
X568713Y299524D01*
X567783Y300563D01*
X566543Y300980D01*
G01X575531Y290980D02*
X576461Y289524D01*
X577701Y288689D01*
X579094Y288480D01*
X580335Y288689D01*
X581575Y289728D01*
X582350Y290980D01*
X582504Y292228D01*
X582197Y293689D01*
X581110Y294728D01*
X580028Y295146D01*
X578630D01*
G01X580028D02*
X580957Y295772D01*
X581732Y296815D01*
X582039Y298063D01*
X581732Y299315D01*
X580957Y300354D01*
X579559Y300980D01*
X578165Y300772D01*
X576772Y299937D01*
G01X587929Y290354D02*
X588858Y289315D01*
X589945Y288689D01*
X591339Y288480D01*
X592732Y288898D01*
X593819Y289728D01*
X594594Y291189D01*
X594748Y292854D01*
X594437Y294524D01*
X593661Y295563D01*
X592579Y296398D01*
X591492Y296606D01*
X590409Y296398D01*
X589016Y295563D01*
X589480Y300980D01*
X593661D01*
G01X612102Y288480D02*
Y300980D01*
X616134Y290563D01*
X620165Y300980D01*
Y288480D01*
G01X624500D02*
Y300980D01*
X628531Y290563D01*
X632563Y300980D01*
Y288480D01*
G01X191205Y362472D02*
X198024Y371642D01*
G01X194614Y373307D02*
Y360807D01*
G01X198024Y362472D02*
X191205Y371642D01*
G01X189965Y367055D02*
X199264D01*
G01X228398Y362890D02*
Y375390D01*
X231496D01*
X232736Y374764D01*
X233665Y373933D01*
X234441Y372681D01*
X235063Y371224D01*
X235217Y369138D01*
X235063Y367055D01*
X234441Y365598D01*
X233665Y364346D01*
X232736Y363516D01*
X231496Y362890D01*
X228398D01*
G01X242346Y375390D02*
X246063D01*
G01X244205D02*
Y362890D01*
G01X242346D02*
X246063D01*
G01X259701D02*
X253504D01*
Y375390D01*
X259701D01*
G01X257220Y369346D02*
X253504D01*
G01X265902Y375390D02*
Y362890D01*
X272098D01*
G01X284496D02*
X278299D01*
Y375390D01*
X284496D01*
G01X282016Y369346D02*
X278299D01*
G01X297205Y374346D02*
X296276Y374972D01*
X295189Y375390D01*
X293949D01*
X292555Y374764D01*
X291472Y373724D01*
X290697Y372472D01*
X290075Y370390D01*
X289921Y368516D01*
X290232Y366638D01*
X290697Y365390D01*
X291626Y364138D01*
X292709Y363307D01*
X293795Y362890D01*
X294882D01*
X295965Y363307D01*
X296894Y363933D01*
X297669Y364764D01*
G01X306193Y375390D02*
Y362890D01*
G01X302630Y375390D02*
X309756D01*
G01X315492Y362890D02*
Y375390D01*
X319366D01*
X320606Y374764D01*
X321382Y373933D01*
X321689Y372264D01*
X321382Y370598D01*
X320449Y369555D01*
X319366Y368933D01*
X315492D01*
G01X319366D02*
X321689Y362890D01*
G01X329130Y375390D02*
X332846D01*
G01X330988D02*
Y362890D01*
G01X329130D02*
X332846D01*
G01X346795Y374346D02*
X345866Y374972D01*
X344780Y375390D01*
X343539D01*
X342146Y374764D01*
X341063Y373724D01*
X340287Y372472D01*
X339665Y370390D01*
X339512Y368516D01*
X339823Y366638D01*
X340287Y365390D01*
X341217Y364138D01*
X342299Y363307D01*
X343386Y362890D01*
X344472D01*
X345555Y363307D01*
X346484Y363933D01*
X347260Y364764D01*
G01X366165Y367055D02*
X370197D01*
G01X390031Y362890D02*
Y375390D01*
X395921D01*
G01X393752Y369346D02*
X390031D01*
G01X402276Y362890D02*
Y375390D01*
X406150D01*
X407390Y374764D01*
X408165Y373933D01*
X408472Y372264D01*
X408165Y370598D01*
X407232Y369555D01*
X406150Y368933D01*
X402276D01*
G01X406150D02*
X408472Y362890D01*
G01X415756Y367055D02*
X419787D01*
G01X432028Y362890D02*
Y375390D01*
X426295Y366433D01*
X434043D01*
G01X454965Y375390D02*
X453724Y374972D01*
X452795Y373933D01*
X452173Y372681D01*
X451709Y371016D01*
X451555Y369138D01*
X451709Y367264D01*
X452173Y365598D01*
X452795Y364346D01*
X453724Y363307D01*
X454965Y362890D01*
X456205Y363307D01*
X457134Y364346D01*
X457756Y365598D01*
X458220Y367264D01*
X458374Y369138D01*
X458220Y371016D01*
X457756Y372681D01*
X457134Y373933D01*
X456205Y374972D01*
X454965Y375390D01*
G01X467362Y362472D02*
X467051Y362681D01*
Y363098D01*
X467362Y363307D01*
X467673Y363098D01*
Y362681D01*
X467362Y362472D01*
G01X479449Y362890D02*
X479760Y365598D01*
X480224Y367890D01*
X480846Y369972D01*
X481618Y372264D01*
X482858Y375390D01*
X476661D01*
G01X488748Y365390D02*
X489677Y363933D01*
X490917Y363098D01*
X492311Y362890D01*
X493551Y363098D01*
X494791Y364138D01*
X495567Y365390D01*
X495720Y366638D01*
X495413Y368098D01*
X494327Y369138D01*
X493244Y369555D01*
X491846D01*
G01X493244D02*
X494173Y370181D01*
X494949Y371224D01*
X495256Y372472D01*
X494949Y373724D01*
X494173Y374764D01*
X492776Y375390D01*
X491382Y375181D01*
X489988Y374346D01*
G01X512921Y362890D02*
Y375390D01*
X516953Y364972D01*
X520984Y375390D01*
Y362890D01*
G01X525319D02*
Y375390D01*
X529350Y364972D01*
X533382Y375390D01*
Y362890D01*
G01X166720Y449799D02*
Y437299D01*
X172917D01*
G01X182217D02*
Y449799D01*
X180358Y447299D01*
G01Y437299D02*
X184075D01*
G01X194614Y436882D02*
X194303Y437091D01*
Y437508D01*
X194614Y437717D01*
X194925Y437508D01*
Y437091D01*
X194614Y436882D01*
G01Y442508D02*
X194303Y442717D01*
Y443134D01*
X194614Y443343D01*
X194925Y443134D01*
Y442717D01*
X194614Y442508D01*
G01X219409Y449799D02*
Y437299D01*
G01X215846Y449799D02*
X222972D01*
G01X231807Y437299D02*
X230567Y437508D01*
X229484Y438343D01*
X228551Y439591D01*
X227933Y441047D01*
X227622Y442717D01*
Y444382D01*
X227933Y446051D01*
X228551Y447508D01*
X229484Y448756D01*
X230567Y449591D01*
X231807Y449799D01*
X233047Y449591D01*
X234130Y448756D01*
X235063Y447508D01*
X235681Y446051D01*
X235992Y444382D01*
Y442717D01*
X235681Y441047D01*
X235063Y439591D01*
X234130Y438343D01*
X233047Y437508D01*
X231807Y437299D01*
G01X241106D02*
Y449799D01*
X244823D01*
X246063Y449173D01*
X246996Y447717D01*
X247303Y446051D01*
X246996Y444382D01*
X246220Y443134D01*
X244823Y442508D01*
X241106D01*
G01X272409Y448756D02*
X271480Y449382D01*
X270394Y449799D01*
X269154D01*
X267760Y449173D01*
X266677Y448134D01*
X265902Y446882D01*
X265280Y444799D01*
X265126Y442925D01*
X265437Y441047D01*
X265902Y439799D01*
X266831Y438547D01*
X267913Y437717D01*
X269000Y437299D01*
X270087D01*
X271169Y437717D01*
X272098Y438343D01*
X272874Y439173D01*
G01X281398Y437299D02*
X280157Y437508D01*
X279075Y438343D01*
X278142Y439591D01*
X277524Y441047D01*
X277213Y442717D01*
Y444382D01*
X277524Y446051D01*
X278142Y447508D01*
X279075Y448756D01*
X280157Y449591D01*
X281398Y449799D01*
X282638Y449591D01*
X283720Y448756D01*
X284654Y447508D01*
X285272Y446051D01*
X285583Y444382D01*
Y442717D01*
X285272Y441047D01*
X284654Y439591D01*
X283720Y438343D01*
X282638Y437508D01*
X281398Y437299D01*
G01X290232D02*
Y449799D01*
X297358Y437299D01*
Y449799D01*
G01X302783Y437299D02*
Y449799D01*
X305882D01*
X307122Y449173D01*
X308051Y448343D01*
X308827Y447091D01*
X309449Y445634D01*
X309602Y443547D01*
X309449Y441465D01*
X308827Y440008D01*
X308051Y438756D01*
X307122Y437925D01*
X305882Y437299D01*
X302783D01*
G01X315181Y449799D02*
Y440843D01*
X315799Y438965D01*
X317039Y437717D01*
X318591Y437299D01*
X320142Y437717D01*
X321382Y438965D01*
X322000Y440843D01*
Y449799D01*
G01X334398Y448756D02*
X333469Y449382D01*
X332382Y449799D01*
X331142D01*
X329748Y449173D01*
X328665Y448134D01*
X327890Y446882D01*
X327268Y444799D01*
X327114Y442925D01*
X327425Y441047D01*
X327890Y439799D01*
X328819Y438547D01*
X329902Y437717D01*
X330988Y437299D01*
X332075D01*
X333157Y437717D01*
X334087Y438343D01*
X334862Y439173D01*
G01X343386Y449799D02*
Y437299D01*
G01X339823Y449799D02*
X346949D01*
G01X355783Y437299D02*
X354543Y437508D01*
X353461Y438343D01*
X352528Y439591D01*
X351909Y441047D01*
X351598Y442717D01*
Y444382D01*
X351909Y446051D01*
X352528Y447508D01*
X353461Y448756D01*
X354543Y449591D01*
X355783Y449799D01*
X357024Y449591D01*
X358106Y448756D01*
X359039Y447508D01*
X359657Y446051D01*
X359969Y444382D01*
Y442717D01*
X359657Y441047D01*
X359039Y439591D01*
X358106Y438343D01*
X357024Y437508D01*
X355783Y437299D01*
G01X365083D02*
Y449799D01*
X368957D01*
X370197Y449173D01*
X370972Y448343D01*
X371280Y446673D01*
X370972Y445008D01*
X370039Y443965D01*
X368957Y443343D01*
X365083D01*
G01X368957D02*
X371280Y437299D01*
G01X390961Y441465D02*
X394992D01*
G01X421181Y448756D02*
X420252Y449382D01*
X419165Y449799D01*
X417925D01*
X416531Y449173D01*
X415449Y448134D01*
X414673Y446882D01*
X414051Y444799D01*
X413898Y442925D01*
X414209Y441047D01*
X414673Y439799D01*
X415602Y438547D01*
X416685Y437717D01*
X417772Y437299D01*
X418858D01*
X419941Y437717D01*
X420870Y438343D01*
X421646Y439173D01*
G01X430169Y437299D02*
X428929Y437508D01*
X427846Y438343D01*
X426913Y439591D01*
X426295Y441047D01*
X425984Y442717D01*
Y444382D01*
X426295Y446051D01*
X426913Y447508D01*
X427846Y448756D01*
X428929Y449591D01*
X430169Y449799D01*
X431409Y449591D01*
X432492Y448756D01*
X433425Y447508D01*
X434043Y446051D01*
X434354Y444382D01*
Y442717D01*
X434043Y441047D01*
X433425Y439591D01*
X432492Y438343D01*
X431409Y437508D01*
X430169Y437299D01*
G01X439469D02*
Y449799D01*
X443185D01*
X444425Y449173D01*
X445358Y447717D01*
X445665Y446051D01*
X445358Y444382D01*
X444583Y443134D01*
X443185Y442508D01*
X439469D01*
G01X451866Y437299D02*
Y449799D01*
X455583D01*
X456823Y449173D01*
X457756Y447717D01*
X458063Y446051D01*
X457756Y444382D01*
X456980Y443134D01*
X455583Y442508D01*
X451866D01*
G01X470461Y437299D02*
X464264D01*
Y449799D01*
X470461D01*
G01X467980Y443756D02*
X464264D01*
G01X476661Y437299D02*
Y449799D01*
X480535D01*
X481776Y449173D01*
X482551Y448343D01*
X482858Y446673D01*
X482551Y445008D01*
X481618Y443965D01*
X480535Y443343D01*
X476661D01*
G01X480535D02*
X482858Y437299D01*
G01X504555Y449799D02*
X503315Y449382D01*
X502386Y448343D01*
X501764Y447091D01*
X501299Y445425D01*
X501146Y443547D01*
X501299Y441673D01*
X501764Y440008D01*
X502386Y438756D01*
X503315Y437717D01*
X504555Y437299D01*
X505795Y437717D01*
X506724Y438756D01*
X507346Y440008D01*
X507811Y441673D01*
X507965Y443547D01*
X507811Y445425D01*
X507346Y447091D01*
X506724Y448343D01*
X505795Y449382D01*
X504555Y449799D01*
G01X516953Y436882D02*
X516642Y437091D01*
Y437508D01*
X516953Y437717D01*
X517264Y437508D01*
Y437091D01*
X516953Y436882D01*
G01X529350Y449799D02*
X528110Y449382D01*
X527181Y448343D01*
X526559Y447091D01*
X526094Y445425D01*
X525941Y443547D01*
X526094Y441673D01*
X526559Y440008D01*
X527181Y438756D01*
X528110Y437717D01*
X529350Y437299D01*
X530591Y437717D01*
X531520Y438756D01*
X532142Y440008D01*
X532606Y441673D01*
X532760Y443547D01*
X532606Y445425D01*
X532142Y447091D01*
X531520Y448343D01*
X530591Y449382D01*
X529350Y449799D01*
G01X538339Y439799D02*
X539268Y438343D01*
X540508Y437508D01*
X541902Y437299D01*
X543142Y437508D01*
X544382Y438547D01*
X545157Y439799D01*
X545311Y441047D01*
X545004Y442508D01*
X543917Y443547D01*
X542835Y443965D01*
X541437D01*
G01X542835D02*
X543764Y444591D01*
X544539Y445634D01*
X544846Y446882D01*
X544539Y448134D01*
X543764Y449173D01*
X542366Y449799D01*
X540972Y449591D01*
X539579Y448756D01*
G01X550736Y439173D02*
X551665Y438134D01*
X552752Y437508D01*
X554146Y437299D01*
X555539Y437717D01*
X556626Y438547D01*
X557402Y440008D01*
X557555Y441673D01*
X557244Y443343D01*
X556469Y444382D01*
X555386Y445217D01*
X554299Y445425D01*
X553217Y445217D01*
X551823Y444382D01*
X552287Y449799D01*
X556469D01*
G01X574909Y437299D02*
Y449799D01*
X578941Y439382D01*
X582972Y449799D01*
Y437299D01*
G01X587307D02*
Y449799D01*
X591339Y439382D01*
X595370Y449799D01*
Y437299D01*
G01X191205Y465161D02*
X198024Y474331D01*
G01X194614Y475996D02*
Y463496D01*
G01X198024Y465161D02*
X191205Y474331D01*
G01X189965Y469744D02*
X199264D01*
G01X228551Y467244D02*
X229791Y466205D01*
X231189Y465579D01*
X232425D01*
X233665Y466205D01*
X234598Y467244D01*
X235063Y468705D01*
X234752Y470161D01*
X233976Y471413D01*
X232583Y472244D01*
X230720Y472661D01*
X229638Y473496D01*
X229173Y474953D01*
X229484Y476413D01*
X230256Y477453D01*
X231343Y478079D01*
X232425D01*
X233512Y477661D01*
X234441Y476622D01*
G01X240795Y478079D02*
Y469122D01*
X241413Y467244D01*
X242654Y465996D01*
X244205Y465579D01*
X245756Y465996D01*
X246996Y467244D01*
X247614Y469122D01*
Y478079D01*
G01X253504Y465579D02*
Y478079D01*
X257378D01*
X258618Y477453D01*
X259394Y476622D01*
X259701Y474953D01*
X259394Y473287D01*
X258461Y472244D01*
X257378Y471622D01*
X253504D01*
G01X257378D02*
X259701Y465579D01*
G01X266055D02*
Y478079D01*
X271945D01*
G01X269776Y472035D02*
X266055D01*
G01X277524Y465579D02*
X281398Y478079D01*
X285272Y465579D01*
G01X283878Y469953D02*
X278917D01*
G01X297205Y477035D02*
X296276Y477661D01*
X295189Y478079D01*
X293949D01*
X292555Y477453D01*
X291472Y476413D01*
X290697Y475161D01*
X290075Y473079D01*
X289921Y471205D01*
X290232Y469327D01*
X290697Y468079D01*
X291626Y466827D01*
X292709Y465996D01*
X293795Y465579D01*
X294882D01*
X295965Y465996D01*
X296894Y466622D01*
X297669Y467453D01*
G01X309291Y465579D02*
X303094D01*
Y478079D01*
X309291D01*
G01X306811Y472035D02*
X303094D01*
G01X328972Y469744D02*
X333004D01*
G01X351909Y465579D02*
X355783Y478079D01*
X359657Y465579D01*
G01X358264Y469953D02*
X353303D01*
G01X366323Y478079D02*
X370039D01*
G01X368181D02*
Y465579D01*
G01X366323D02*
X370039D01*
G01X377480D02*
Y478079D01*
X381354D01*
X382594Y477453D01*
X383370Y476622D01*
X383677Y474953D01*
X383370Y473287D01*
X382437Y472244D01*
X381354Y471622D01*
X377480D01*
G01X381354D02*
X383677Y465579D01*
G01X405374Y478079D02*
X404134Y477661D01*
X403205Y476622D01*
X402583Y475370D01*
X402118Y473705D01*
X401965Y471827D01*
X402118Y469953D01*
X402583Y468287D01*
X403205Y467035D01*
X404134Y465996D01*
X405374Y465579D01*
X406614Y465996D01*
X407543Y467035D01*
X408165Y468287D01*
X408630Y469953D01*
X408783Y471827D01*
X408630Y473705D01*
X408165Y475370D01*
X407543Y476622D01*
X406614Y477661D01*
X405374Y478079D01*
G01X426138Y465579D02*
Y478079D01*
X430169Y467661D01*
X434201Y478079D01*
Y465579D01*
G01X438535D02*
Y478079D01*
X442567Y467661D01*
X446598Y478079D01*
Y465579D01*
G01X169882Y-125591D02*
Y50000D01*
X653386D01*
Y-125591D01*
X169882D01*
G01Y-100591D02*
X653386D01*
G01X169882Y-75591D02*
X653386D01*
G01X169882Y-50591D02*
X653386D01*
G01X169882Y-25591D02*
X653386D01*
G01X169882Y-591D02*
X653386D01*
G01X169882Y24409D02*
X653386D01*
G01X180882Y-19339D02*
Y-6839D01*
X186772D01*
G01X184602Y-12882D02*
X180882D01*
G01X194366Y-6839D02*
X198083D01*
G01X196224D02*
Y-19339D01*
G01X194366D02*
X198083D01*
G01X209551Y-13091D02*
X212654D01*
Y-16839D01*
X211720Y-18091D01*
X210638Y-18921D01*
X209087Y-19339D01*
X207535Y-18921D01*
X206453Y-18091D01*
X205524Y-16839D01*
X204902Y-15382D01*
X204591Y-13713D01*
Y-12256D01*
X204902Y-11004D01*
X205524Y-9547D01*
X206453Y-8295D01*
X207382Y-7465D01*
X208622Y-6839D01*
X209709D01*
X210945Y-7256D01*
X211878Y-8091D01*
G01X217610Y-6839D02*
Y-15795D01*
X218228Y-17673D01*
X219469Y-18921D01*
X221020Y-19339D01*
X222571Y-18921D01*
X223811Y-17673D01*
X224429Y-15795D01*
Y-6839D01*
G01X230319Y-19339D02*
Y-6839D01*
X234193D01*
X235433Y-7465D01*
X236209Y-8295D01*
X236516Y-9965D01*
X236209Y-11630D01*
X235276Y-12673D01*
X234193Y-13295D01*
X230319D01*
G01X234193D02*
X236516Y-19339D01*
G01X248913D02*
X242717D01*
Y-6839D01*
X248913D01*
G01X246433Y-12882D02*
X242717D01*
G01X240390Y5661D02*
X244264Y18161D01*
X248138Y5661D01*
G01X246744Y10035D02*
X241783D01*
G01X253563Y18161D02*
Y5661D01*
X259760D01*
G01X265961Y18161D02*
Y5661D01*
X272157D01*
G01X290445Y18161D02*
Y9205D01*
X291063Y7327D01*
X292303Y6079D01*
X293854Y5661D01*
X295406Y6079D01*
X296646Y7327D01*
X297264Y9205D01*
Y18161D01*
G01X302689Y5661D02*
Y18161D01*
X309815Y5661D01*
Y18161D01*
G01X316791D02*
X320508D01*
G01X318650D02*
Y5661D01*
G01X316791D02*
X320508D01*
G01X331047Y18161D02*
Y5661D01*
G01X327484Y18161D02*
X334610D01*
G01X340189Y7327D02*
X341429Y6287D01*
X342827Y5661D01*
X344063D01*
X345303Y6287D01*
X346236Y7327D01*
X346701Y8787D01*
X346390Y10244D01*
X345614Y11496D01*
X344220Y12327D01*
X342358Y12744D01*
X341276Y13579D01*
X340811Y15035D01*
X341122Y16496D01*
X341894Y17535D01*
X342980Y18161D01*
X344063D01*
X345150Y17744D01*
X346079Y16705D01*
G01X364366Y5661D02*
X368240Y18161D01*
X372114Y5661D01*
G01X370720Y10035D02*
X365760D01*
G01X377539Y5661D02*
Y18161D01*
X381413D01*
X382654Y17535D01*
X383429Y16705D01*
X383736Y15035D01*
X383429Y13370D01*
X382496Y12327D01*
X381413Y11705D01*
X377539D01*
G01X381413D02*
X383736Y5661D01*
G01X396134D02*
X389937D01*
Y18161D01*
X396134D01*
G01X393654Y12118D02*
X389937D01*
G01X415972Y18161D02*
X419689D01*
G01X417831D02*
Y5661D01*
G01X415972D02*
X419689D01*
G01X426665D02*
Y18161D01*
X433791Y5661D01*
Y18161D01*
G01X450992Y5661D02*
Y18161D01*
X455024Y7744D01*
X459055Y18161D01*
Y5661D01*
G01X465563Y18161D02*
X469280D01*
G01X467421D02*
Y5661D01*
G01X465563D02*
X469280D01*
G01X476720Y18161D02*
Y5661D01*
X482917D01*
G01X489118Y18161D02*
Y5661D01*
X495315D01*
G01X502756Y18161D02*
X506472D01*
G01X504614D02*
Y5661D01*
G01X502756D02*
X506472D01*
G01X512980D02*
Y18161D01*
X517012Y7744D01*
X521043Y18161D01*
Y5661D01*
G01X532508D02*
X526311D01*
Y18161D01*
X532508D01*
G01X530028Y12118D02*
X526311D01*
G01X541807Y18161D02*
Y5661D01*
G01X538244Y18161D02*
X545370D01*
G01X557303Y5661D02*
X551106D01*
Y18161D01*
X557303D01*
G01X554823Y12118D02*
X551106D01*
G01X563504Y5661D02*
Y18161D01*
X567378D01*
X568618Y17535D01*
X569394Y16705D01*
X569701Y15035D01*
X569394Y13370D01*
X568461Y12327D01*
X567378Y11705D01*
X563504D01*
G01X567378D02*
X569701Y5661D01*
G01X575744Y7327D02*
X576984Y6287D01*
X578382Y5661D01*
X579618D01*
X580858Y6287D01*
X581791Y7327D01*
X582256Y8787D01*
X581945Y10244D01*
X581169Y11496D01*
X579776Y12327D01*
X577913Y12744D01*
X576831Y13579D01*
X576366Y15035D01*
X576677Y16496D01*
X577449Y17535D01*
X578535Y18161D01*
X579618D01*
X580705Y17744D01*
X581634Y16705D01*
G01X253252Y31252D02*
Y43752D01*
X256350D01*
X257591Y43126D01*
X258520Y42295D01*
X259295Y41043D01*
X259917Y39587D01*
X260071Y37500D01*
X259917Y35417D01*
X259295Y33961D01*
X258520Y32709D01*
X257591Y31878D01*
X256350Y31252D01*
X253252D01*
G01X265961D02*
Y43752D01*
X269835D01*
X271075Y43126D01*
X271850Y42295D01*
X272157Y40626D01*
X271850Y38961D01*
X270917Y37917D01*
X269835Y37295D01*
X265961D01*
G01X269835D02*
X272157Y31252D01*
G01X279598Y43752D02*
X283315D01*
G01X281457D02*
Y31252D01*
G01X279598D02*
X283315D01*
G01X290756Y43752D02*
Y31252D01*
X296953D01*
G01X303154Y43752D02*
Y31252D01*
X309350D01*
G01X334457Y42709D02*
X333528Y43335D01*
X332441Y43752D01*
X331201D01*
X329807Y43126D01*
X328724Y42087D01*
X327949Y40835D01*
X327327Y38752D01*
X327173Y36878D01*
X327484Y35000D01*
X327949Y33752D01*
X328878Y32500D01*
X329961Y31669D01*
X331047Y31252D01*
X332134D01*
X333217Y31669D01*
X334146Y32295D01*
X334921Y33126D01*
G01X340189Y31252D02*
Y43752D01*
G01X346701D02*
Y31252D01*
G01Y37500D02*
X340189D01*
G01X351969Y31252D02*
X355843Y43752D01*
X359717Y31252D01*
G01X358323Y35626D02*
X353362D01*
G01X365142Y31252D02*
Y43752D01*
X369016D01*
X370256Y43126D01*
X371031Y42295D01*
X371339Y40626D01*
X371031Y38961D01*
X370098Y37917D01*
X369016Y37295D01*
X365142D01*
G01X369016D02*
X371339Y31252D01*
G01X380638Y43752D02*
Y31252D01*
G01X377075Y43752D02*
X384201D01*
G01X393035Y30835D02*
X392724Y31043D01*
Y31461D01*
X393035Y31669D01*
X393346Y31461D01*
Y31043D01*
X393035Y30835D01*
G01Y36461D02*
X392724Y36669D01*
Y37087D01*
X393035Y37295D01*
X393346Y37087D01*
Y36669D01*
X393035Y36461D01*
G01X417831Y43752D02*
Y31252D01*
G01X414268Y43752D02*
X421394D01*
G01X430228Y31252D02*
X428988Y31461D01*
X427906Y32295D01*
X426972Y33543D01*
X426354Y35000D01*
X426043Y36669D01*
Y38335D01*
X426354Y40004D01*
X426972Y41461D01*
X427906Y42709D01*
X428988Y43543D01*
X430228Y43752D01*
X431469Y43543D01*
X432551Y42709D01*
X433484Y41461D01*
X434102Y40004D01*
X434413Y38335D01*
Y36669D01*
X434102Y35000D01*
X433484Y33543D01*
X432551Y32295D01*
X431469Y31461D01*
X430228Y31252D01*
G01X439528D02*
Y43752D01*
X443244D01*
X444484Y43126D01*
X445417Y41669D01*
X445724Y40004D01*
X445417Y38335D01*
X444642Y37087D01*
X443244Y36461D01*
X439528D01*
G01X467421Y43752D02*
Y31252D01*
G01X465252Y39587D02*
X469591D01*
G01X479819Y31252D02*
X478890Y31461D01*
X477961Y32295D01*
X477339Y33752D01*
X477028Y35417D01*
X477339Y37087D01*
X477961Y38543D01*
X478890Y39378D01*
X479819Y39587D01*
X480748Y39378D01*
X481677Y38543D01*
X482299Y37087D01*
X482453Y35417D01*
X482299Y33752D01*
X481677Y32295D01*
X480748Y31461D01*
X479819Y31252D01*
G01X505854Y37917D02*
X506472Y38543D01*
X506937Y39587D01*
X507248Y41043D01*
X506937Y42295D01*
X506319Y43126D01*
X505232Y43752D01*
X501051D01*
Y31252D01*
X506165D01*
X507248Y32087D01*
X507870Y33335D01*
X508177Y34795D01*
X507870Y36252D01*
X506937Y37500D01*
X505854Y37917D01*
X501051D01*
G01X517012Y31252D02*
X515772Y31461D01*
X514689Y32295D01*
X513756Y33543D01*
X513138Y35000D01*
X512827Y36669D01*
Y38335D01*
X513138Y40004D01*
X513756Y41461D01*
X514689Y42709D01*
X515772Y43543D01*
X517012Y43752D01*
X518252Y43543D01*
X519335Y42709D01*
X520268Y41461D01*
X520886Y40004D01*
X521197Y38335D01*
Y36669D01*
X520886Y35000D01*
X520268Y33543D01*
X519335Y32295D01*
X518252Y31461D01*
X517012Y31252D01*
G01X529409Y43752D02*
Y31252D01*
G01X525846Y43752D02*
X532972D01*
G01X541807D02*
Y31252D01*
G01X538244Y43752D02*
X545370D01*
G01X554205Y31252D02*
X552965Y31461D01*
X551882Y32295D01*
X550949Y33543D01*
X550331Y35000D01*
X550020Y36669D01*
Y38335D01*
X550331Y40004D01*
X550949Y41461D01*
X551882Y42709D01*
X552965Y43543D01*
X554205Y43752D01*
X555445Y43543D01*
X556528Y42709D01*
X557461Y41461D01*
X558079Y40004D01*
X558390Y38335D01*
Y36669D01*
X558079Y35000D01*
X557461Y33543D01*
X556528Y32295D01*
X555445Y31461D01*
X554205Y31252D01*
G01X562571D02*
Y43752D01*
X566602Y33335D01*
X570634Y43752D01*
Y31252D01*
G01X259764Y-591D02*
Y-125591D01*
G01X329500Y-119339D02*
Y-106839D01*
X327642Y-109339D01*
G01Y-119339D02*
X331358D01*
G01X341898Y-119756D02*
X341587Y-119547D01*
Y-119130D01*
X341898Y-118921D01*
X342209Y-119130D01*
Y-119547D01*
X341898Y-119756D01*
G01X350886Y-117465D02*
X351815Y-118504D01*
X352902Y-119130D01*
X354295Y-119339D01*
X355689Y-118921D01*
X356776Y-118091D01*
X357551Y-116630D01*
X357705Y-114965D01*
X357394Y-113295D01*
X356618Y-112256D01*
X355535Y-111421D01*
X354449Y-111213D01*
X353366Y-111421D01*
X351972Y-112256D01*
X352437Y-106839D01*
X356618D01*
G01X366693D02*
X365453Y-107256D01*
X364524Y-108295D01*
X363902Y-109547D01*
X363437Y-111213D01*
X363283Y-113091D01*
X363437Y-114965D01*
X363902Y-116630D01*
X364524Y-117882D01*
X365453Y-118921D01*
X366693Y-119339D01*
X367933Y-118921D01*
X368862Y-117882D01*
X369484Y-116630D01*
X369949Y-114965D01*
X370102Y-113091D01*
X369949Y-111213D01*
X369484Y-109547D01*
X368862Y-108295D01*
X367933Y-107256D01*
X366693Y-106839D01*
G01X379091Y-119339D02*
Y-106839D01*
X377232Y-109339D01*
G01Y-119339D02*
X380949D01*
G01X341898Y-81839D02*
X340657Y-82256D01*
X339728Y-83295D01*
X339106Y-84547D01*
X338642Y-86213D01*
X338488Y-88091D01*
X338642Y-89965D01*
X339106Y-91630D01*
X339728Y-92882D01*
X340657Y-93921D01*
X341898Y-94339D01*
X343138Y-93921D01*
X344067Y-92882D01*
X344689Y-91630D01*
X345154Y-89965D01*
X345307Y-88091D01*
X345154Y-86213D01*
X344689Y-84547D01*
X344067Y-83295D01*
X343138Y-82256D01*
X341898Y-81839D01*
G01X354295Y-94756D02*
X353984Y-94547D01*
Y-94130D01*
X354295Y-93921D01*
X354606Y-94130D01*
Y-94547D01*
X354295Y-94756D01*
G01X368551Y-94339D02*
Y-81839D01*
X362819Y-90795D01*
X370567D01*
G01X341898Y-56839D02*
X340657Y-57256D01*
X339728Y-58295D01*
X339106Y-59547D01*
X338642Y-61213D01*
X338488Y-63091D01*
X338642Y-64965D01*
X339106Y-66630D01*
X339728Y-67882D01*
X340657Y-68921D01*
X341898Y-69339D01*
X343138Y-68921D01*
X344067Y-67882D01*
X344689Y-66630D01*
X345154Y-64965D01*
X345307Y-63091D01*
X345154Y-61213D01*
X344689Y-59547D01*
X344067Y-58295D01*
X343138Y-57256D01*
X341898Y-56839D01*
G01X354295Y-69756D02*
X353984Y-69547D01*
Y-69130D01*
X354295Y-68921D01*
X354606Y-69130D01*
Y-69547D01*
X354295Y-69756D01*
G01X363748Y-58921D02*
X364677Y-57673D01*
X365764Y-57047D01*
X367004Y-56839D01*
X368551Y-57256D01*
X369638Y-58295D01*
X369949Y-59547D01*
X369791Y-60795D01*
X369173Y-61839D01*
X366075Y-63921D01*
X364677Y-65382D01*
X363748Y-67465D01*
X363437Y-69339D01*
X369949D01*
G01X341898Y-31843D02*
X340657Y-32260D01*
X339728Y-33299D01*
X339106Y-34551D01*
X338642Y-36217D01*
X338488Y-38094D01*
X338642Y-39969D01*
X339106Y-41634D01*
X339728Y-42886D01*
X340657Y-43925D01*
X341898Y-44343D01*
X343138Y-43925D01*
X344067Y-42886D01*
X344689Y-41634D01*
X345154Y-39969D01*
X345307Y-38094D01*
X345154Y-36217D01*
X344689Y-34551D01*
X344067Y-33299D01*
X343138Y-32260D01*
X341898Y-31843D01*
G01X354295Y-44760D02*
X353984Y-44551D01*
Y-44134D01*
X354295Y-43925D01*
X354606Y-44134D01*
Y-44551D01*
X354295Y-44760D01*
G01X363748Y-33925D02*
X364677Y-32677D01*
X365764Y-32051D01*
X367004Y-31843D01*
X368551Y-32260D01*
X369638Y-33299D01*
X369949Y-34551D01*
X369791Y-35799D01*
X369173Y-36843D01*
X366075Y-38925D01*
X364677Y-40386D01*
X363748Y-42469D01*
X363437Y-44343D01*
X369949D01*
G01X332441Y-17673D02*
X333681Y-18713D01*
X335079Y-19339D01*
X336315D01*
X337555Y-18713D01*
X338488Y-17673D01*
X338953Y-16213D01*
X338642Y-14756D01*
X337866Y-13504D01*
X336472Y-12673D01*
X334610Y-12256D01*
X333528Y-11421D01*
X333063Y-9965D01*
X333374Y-8504D01*
X334146Y-7465D01*
X335232Y-6839D01*
X336315D01*
X337402Y-7256D01*
X338331Y-8295D01*
G01X346236Y-6839D02*
X349953D01*
G01X348094D02*
Y-19339D01*
G01X346236D02*
X349953D01*
G01X357547Y-6839D02*
X363437D01*
X357547Y-19339D01*
X363437D01*
G01X375988D02*
X369791D01*
Y-6839D01*
X375988D01*
G01X373508Y-12882D02*
X369791D01*
G01X448827Y-591D02*
Y-125591D01*
G01X453008Y-119339D02*
Y-106839D01*
X460134Y-119339D01*
Y-106839D01*
G01X468969Y-119339D02*
X467728Y-119130D01*
X466646Y-118295D01*
X465713Y-117047D01*
X465094Y-115591D01*
X464783Y-113921D01*
Y-112256D01*
X465094Y-110587D01*
X465713Y-109130D01*
X466646Y-107882D01*
X467728Y-107047D01*
X468969Y-106839D01*
X470209Y-107047D01*
X471291Y-107882D01*
X472224Y-109130D01*
X472843Y-110587D01*
X473154Y-112256D01*
Y-113921D01*
X472843Y-115591D01*
X472224Y-117047D01*
X471291Y-118295D01*
X470209Y-119130D01*
X468969Y-119339D01*
G01X477803D02*
Y-106839D01*
X484929Y-119339D01*
Y-106839D01*
G01X491748Y-115173D02*
X495780D01*
G01X503063Y-119339D02*
Y-106839D01*
X506780D01*
X508020Y-107465D01*
X508953Y-108921D01*
X509260Y-110587D01*
X508953Y-112256D01*
X508177Y-113504D01*
X506780Y-114130D01*
X503063D01*
G01X515461Y-106839D02*
Y-119339D01*
X521657D01*
G01X527083D02*
X530957Y-106839D01*
X534831Y-119339D01*
G01X533437Y-114965D02*
X528476D01*
G01X543354Y-106839D02*
Y-119339D01*
G01X539791Y-106839D02*
X546917D01*
G01X558850Y-119339D02*
X552654D01*
Y-106839D01*
X558850D01*
G01X556370Y-112882D02*
X552654D01*
G01X564740Y-119339D02*
Y-106839D01*
X567839D01*
X569079Y-107465D01*
X570008Y-108295D01*
X570783Y-109547D01*
X571406Y-111004D01*
X571559Y-113091D01*
X571406Y-115173D01*
X570783Y-116630D01*
X570008Y-117882D01*
X569079Y-118713D01*
X567839Y-119339D01*
X564740D01*
G01X478268Y-94339D02*
Y-81839D01*
X481984D01*
X483224Y-82465D01*
X484157Y-83921D01*
X484465Y-85587D01*
X484157Y-87256D01*
X483382Y-88504D01*
X481984Y-89130D01*
X478268D01*
G01X490665Y-81839D02*
Y-94339D01*
X496862D01*
G01X502287D02*
X506161Y-81839D01*
X510035Y-94339D01*
G01X508642Y-89965D02*
X503681D01*
G01X518559Y-81839D02*
Y-94339D01*
G01X514996Y-81839D02*
X522122D01*
G01X534055Y-94339D02*
X527858D01*
Y-81839D01*
X534055D01*
G01X531575Y-87882D02*
X527858D01*
G01X539945Y-94339D02*
Y-81839D01*
X543043D01*
X544283Y-82465D01*
X545213Y-83295D01*
X545988Y-84547D01*
X546610Y-86004D01*
X546764Y-88091D01*
X546610Y-90173D01*
X545988Y-91630D01*
X545213Y-92882D01*
X544283Y-93713D01*
X543043Y-94339D01*
X539945D01*
G01X478268Y-69339D02*
Y-56839D01*
X481984D01*
X483224Y-57465D01*
X484157Y-58921D01*
X484465Y-60587D01*
X484157Y-62256D01*
X483382Y-63504D01*
X481984Y-64130D01*
X478268D01*
G01X490665Y-56839D02*
Y-69339D01*
X496862D01*
G01X502287D02*
X506161Y-56839D01*
X510035Y-69339D01*
G01X508642Y-64965D02*
X503681D01*
G01X518559Y-56839D02*
Y-69339D01*
G01X514996Y-56839D02*
X522122D01*
G01X534055Y-69339D02*
X527858D01*
Y-56839D01*
X534055D01*
G01X531575Y-62882D02*
X527858D01*
G01X539945Y-69339D02*
Y-56839D01*
X543043D01*
X544283Y-57465D01*
X545213Y-58295D01*
X545988Y-59547D01*
X546610Y-61004D01*
X546764Y-63091D01*
X546610Y-65173D01*
X545988Y-66630D01*
X545213Y-67882D01*
X544283Y-68713D01*
X543043Y-69339D01*
X539945D01*
G01X478268Y-44343D02*
Y-31843D01*
X481984D01*
X483224Y-32469D01*
X484157Y-33925D01*
X484465Y-35591D01*
X484157Y-37260D01*
X483382Y-38508D01*
X481984Y-39134D01*
X478268D01*
G01X490665Y-31843D02*
Y-44343D01*
X496862D01*
G01X502287D02*
X506161Y-31843D01*
X510035Y-44343D01*
G01X508642Y-39969D02*
X503681D01*
G01X518559Y-31843D02*
Y-44343D01*
G01X514996Y-31843D02*
X522122D01*
G01X534055Y-44343D02*
X527858D01*
Y-31843D01*
X534055D01*
G01X531575Y-37886D02*
X527858D01*
G01X539945Y-44343D02*
Y-31843D01*
X543043D01*
X544283Y-32469D01*
X545213Y-33299D01*
X545988Y-34551D01*
X546610Y-36008D01*
X546764Y-38094D01*
X546610Y-40177D01*
X545988Y-41634D01*
X545213Y-42886D01*
X544283Y-43717D01*
X543043Y-44343D01*
X539945D01*
G01X478268Y-19339D02*
Y-6839D01*
X481984D01*
X483224Y-7465D01*
X484157Y-8921D01*
X484465Y-10587D01*
X484157Y-12256D01*
X483382Y-13504D01*
X481984Y-14130D01*
X478268D01*
G01X490665Y-6839D02*
Y-19339D01*
X496862D01*
G01X502287D02*
X506161Y-6839D01*
X510035Y-19339D01*
G01X508642Y-14965D02*
X503681D01*
G01X518559Y-6839D02*
Y-19339D01*
G01X514996Y-6839D02*
X522122D01*
G01X534055Y-19339D02*
X527858D01*
Y-6839D01*
X534055D01*
G01X531575Y-12882D02*
X527858D01*
G01X539945Y-19339D02*
Y-6839D01*
X543043D01*
X544283Y-7465D01*
X545213Y-8295D01*
X545988Y-9547D01*
X546610Y-11004D01*
X546764Y-13091D01*
X546610Y-15173D01*
X545988Y-16630D01*
X545213Y-17882D01*
X544283Y-18713D01*
X543043Y-19339D01*
X539945D01*
G01X575902Y-591D02*
Y-125591D01*
G01X605500Y-83921D02*
X606429Y-82673D01*
X607516Y-82047D01*
X608756Y-81839D01*
X610303Y-82256D01*
X611390Y-83295D01*
X611701Y-84547D01*
X611543Y-85795D01*
X610925Y-86839D01*
X607827Y-88921D01*
X606429Y-90382D01*
X605500Y-92465D01*
X605189Y-94339D01*
X611701D01*
G01X617433Y-92465D02*
X618362Y-93504D01*
X619449Y-94130D01*
X620843Y-94339D01*
X622236Y-93921D01*
X623323Y-93091D01*
X624098Y-91630D01*
X624252Y-89965D01*
X623941Y-88295D01*
X623165Y-87256D01*
X622083Y-86421D01*
X620996Y-86213D01*
X619913Y-86421D01*
X618520Y-87256D01*
X618984Y-81839D01*
X623165D01*
G01X605500Y-58921D02*
X606429Y-57673D01*
X607516Y-57047D01*
X608756Y-56839D01*
X610303Y-57256D01*
X611390Y-58295D01*
X611701Y-59547D01*
X611543Y-60795D01*
X610925Y-61839D01*
X607827Y-63921D01*
X606429Y-65382D01*
X605500Y-67465D01*
X605189Y-69339D01*
X611701D01*
G01X617433Y-67465D02*
X618362Y-68504D01*
X619449Y-69130D01*
X620843Y-69339D01*
X622236Y-68921D01*
X623323Y-68091D01*
X624098Y-66630D01*
X624252Y-64965D01*
X623941Y-63295D01*
X623165Y-62256D01*
X622083Y-61421D01*
X620996Y-61213D01*
X619913Y-61421D01*
X618520Y-62256D01*
X618984Y-56839D01*
X623165D01*
G01X598839Y-41843D02*
X599768Y-43299D01*
X601008Y-44134D01*
X602402Y-44343D01*
X603642Y-44134D01*
X604882Y-43094D01*
X605657Y-41843D01*
X605811Y-40594D01*
X605504Y-39134D01*
X604417Y-38094D01*
X603335Y-37677D01*
X601937D01*
G01X603335D02*
X604264Y-37051D01*
X605039Y-36008D01*
X605346Y-34760D01*
X605039Y-33508D01*
X604264Y-32469D01*
X602866Y-31843D01*
X601472Y-32051D01*
X600079Y-32886D01*
G01X612012Y-42886D02*
X613094Y-43925D01*
X614335Y-44343D01*
X615575Y-43925D01*
X616661Y-42677D01*
X617437Y-40799D01*
X617744Y-38925D01*
Y-36634D01*
X617437Y-34760D01*
X616661Y-33094D01*
X615732Y-32260D01*
X614646Y-31843D01*
X613406Y-32260D01*
X612476Y-33094D01*
X611854Y-34343D01*
X611547Y-36008D01*
X611854Y-37469D01*
X612630Y-38925D01*
X613559Y-39760D01*
X614646Y-39969D01*
X615886Y-39551D01*
X616815Y-38508D01*
X617744Y-36634D01*
G01X626732Y-44343D02*
X627043Y-41634D01*
X627508Y-39343D01*
X628130Y-37260D01*
X628902Y-34969D01*
X630142Y-31843D01*
X623945D01*
G01X602248Y-19339D02*
X601008Y-19130D01*
X599925Y-18295D01*
X598992Y-17047D01*
X598374Y-15591D01*
X598063Y-13921D01*
Y-12256D01*
X598374Y-10587D01*
X598992Y-9130D01*
X599925Y-7882D01*
X601008Y-7047D01*
X602248Y-6839D01*
X603488Y-7047D01*
X604571Y-7882D01*
X605504Y-9130D01*
X606122Y-10587D01*
X606433Y-12256D01*
Y-13921D01*
X606122Y-15591D01*
X605504Y-17047D01*
X604571Y-18295D01*
X603488Y-19130D01*
X602248Y-19339D01*
G01X603488Y-16004D02*
X605346Y-19339D01*
G01X614646Y-6839D02*
Y-19339D01*
G01X611083Y-6839D02*
X618209D01*
G01X627043Y-19339D02*
Y-13713D01*
X623945Y-6839D01*
G01X630142D02*
X627043Y-13713D01*
G01X616504Y-119339D02*
Y-106839D01*
X610772Y-115795D01*
X618520D01*
M02*
