G04 ================== begin FILE IDENTIFICATION RECORD ==================*
G04 Layout Name:  Z1044-B.brd*
G04 Film Name:    DRM*
G04 File Format:  Gerber RS274X*
G04 File Origin:  Cadence Allegro 16.6-S019*
G04 Origin Date:  Fri Nov 18 12:25:08 2016*
G04 *
G04 Layer:  VIA CLASS/BOTTOM*
G04 Layer:  VIA CLASS/TOP*
G04 Layer:  BOARD GEOMETRY/TOOLING_CORNERS*
G04 Layer:  MANUFACTURING/NCLEGEND-1-4*
G04 Layer:  MANUFACTURING/NCDRILL_LEGEND*
G04 Layer:  MANUFACTURING/NCDRILL_FIGURE*
G04 Layer:  DRAWING FORMAT/OUTLINE*
G04 Layer:  BOARD GEOMETRY/OUTLINE*
G04 Layer:  BOARD GEOMETRY/DIMENSION*
G04 *
G04 Offset:    (0.000 0.000)*
G04 Mirror:    No*
G04 Mode:      Positive*
G04 Rotation:  0*
G04 FullContactRelief:  No*
G04 UndefLineWidth:     0.100*
G04 ================== end FILE IDENTIFICATION RECORD ====================*
%FSLAX25Y25*MOIN*%
%IR0*IPPOS*OFA0.00000B0.00000*MIA0B0*SFA1.00000B1.00000*%
%ADD10C,.019685*%
%ADD11C,.031496*%
%ADD12C,.003937*%
G75*
%LPD*%
G75*
G54D10*
X-29055Y-143917D03*
D03*
X-29921Y-140157D03*
D03*
X-31102Y-152362D03*
D03*
X-35433Y-127520D03*
D03*
X-35039Y-133071D03*
D03*
X-41732Y-136024D03*
D03*
X-35047Y-107480D03*
D03*
Y-122520D03*
D03*
Y-117323D03*
D03*
X-35138Y-112598D03*
D03*
X-41929Y-110433D03*
D03*
Y-120472D03*
D03*
Y-97244D03*
D03*
X-28445Y-88583D03*
D03*
X-38583Y-77067D03*
D03*
X-42126Y-89370D03*
D03*
X-33661Y-69291D03*
D03*
X-34449Y-56496D03*
D03*
X-30512Y-61614D03*
D03*
X-38583Y-63681D03*
D03*
X-32480Y-44685D03*
D03*
X-38583Y-50295D03*
D03*
X-31890Y-32677D03*
D03*
X-38583Y-26969D03*
D03*
Y-36909D03*
D03*
X-36614Y-7874D03*
D03*
X-28740Y-22441D03*
D03*
X-42323Y-13189D03*
D03*
X-30315Y-2756D03*
D03*
X-35827Y1575D03*
D03*
X-19094Y-140551D03*
D03*
X-18902Y-143965D03*
D03*
X-11811Y-143130D03*
D03*
X-20669Y-152953D03*
D03*
X-13756Y-127559D03*
D03*
Y-132677D03*
D03*
X-11024Y-134646D03*
D03*
X-11811Y-125197D03*
D03*
Y-129921D03*
D03*
X-24803Y-138976D03*
D03*
X-13756Y-122520D03*
D03*
Y-117520D03*
D03*
X-12795Y-102520D03*
D03*
X-19276Y-82874D03*
D03*
X-11811Y-76181D03*
D03*
X-16732Y-80118D03*
D03*
X-22697Y-65276D03*
D03*
X-20079Y-46654D03*
D03*
X-24409Y-40354D03*
D03*
Y-52264D03*
D03*
X-18307Y-29921D03*
D03*
X-12520Y-33858D03*
D03*
X-25394Y-28740D03*
D03*
X-22835Y-7480D03*
D03*
X-14370Y-22244D03*
D03*
X-20669Y-16732D03*
D03*
X-12795Y-13189D03*
D03*
X-25984Y-13386D03*
D03*
X-16142Y-3937D03*
D03*
X-22441Y1575D03*
D03*
X-10630D03*
D03*
X4331Y-143110D03*
D03*
X-5906Y-151969D03*
D03*
X1575Y-127854D03*
D03*
X-2756Y-135039D03*
D03*
X-5118Y-126772D03*
D03*
X4921Y-110236D03*
D03*
Y-107480D03*
D03*
X5906Y-116142D03*
D03*
X-5520Y-114563D03*
D03*
X5512Y-90551D03*
D03*
X-4331Y-100598D03*
D03*
X-7874D03*
D03*
X-4331Y-106201D03*
D03*
X5512Y-78740D03*
D03*
Y-74803D03*
D03*
Y-86614D03*
D03*
Y-82677D03*
D03*
X-10047Y-71654D03*
D03*
X3346Y-49803D03*
D03*
X-1575Y-51181D03*
D03*
X3358Y-52559D03*
D03*
X-8465Y-43898D03*
D03*
X-9252Y-54724D03*
D03*
X6496Y-27559D03*
D03*
X4331D03*
D03*
X-157Y-29563D03*
D03*
X1969Y-27953D03*
D03*
X-7087Y-27756D03*
D03*
X-5276Y-29563D03*
D03*
X2283Y-30433D03*
D03*
X-7874Y-20472D03*
D03*
X1181Y-20079D03*
D03*
X-9449Y-7874D03*
D03*
X-7874Y-11417D03*
D03*
X-5118Y-14567D03*
D03*
X-1181D03*
D03*
X2756Y-12598D03*
D03*
X2362Y1575D03*
D03*
X3150Y-4724D03*
D03*
X-394Y-2756D03*
D03*
X-4331D03*
D03*
X-7874Y-4331D03*
D03*
X21260Y-143701D03*
D03*
X9449Y-152953D03*
D03*
X11811Y-135039D03*
D03*
X21063Y-111220D03*
D03*
X15559Y-99409D03*
D03*
X21260Y-90551D03*
D03*
X17323D03*
D03*
X13386D03*
D03*
X9449D03*
D03*
X17323Y-78740D03*
D03*
X21260D03*
D03*
Y-74803D03*
D03*
X17323D03*
D03*
X9449Y-78740D03*
D03*
X13386D03*
D03*
Y-74803D03*
D03*
X9449D03*
D03*
X17323Y-86614D03*
D03*
X21260D03*
D03*
Y-82677D03*
D03*
X17323D03*
D03*
X9449Y-86614D03*
D03*
X13386D03*
D03*
Y-82677D03*
D03*
X9449D03*
D03*
X18504Y-57087D03*
D03*
X12205Y-57480D03*
D03*
X18563Y-63071D03*
D03*
X18898Y-45669D03*
D03*
X11417D03*
D03*
X11024Y-51181D03*
D03*
X14173Y-51575D03*
D03*
X15354Y-55118D03*
D03*
X16929Y-49606D03*
D03*
X18504Y-51969D03*
D03*
Y-54724D03*
D03*
X11417Y-48425D03*
D03*
Y-53937D03*
D03*
X14567Y-47244D03*
D03*
X10827Y-42362D03*
D03*
X16535Y-44882D03*
D03*
X15354Y-24409D03*
D03*
X16732Y-30709D03*
D03*
X13583Y-27559D03*
D03*
X11024D03*
D03*
X8858D03*
D03*
X22244Y-33661D03*
D03*
Y-35630D03*
D03*
Y-37598D03*
D03*
Y-39567D03*
D03*
X16535Y-28346D03*
D03*
X8465Y-33976D03*
D03*
X10630Y-19685D03*
D03*
X18110Y-20079D03*
D03*
X7087Y-12598D03*
D03*
X11024D03*
D03*
X14961D03*
D03*
X18110Y-15354D03*
D03*
X14173Y1575D03*
D03*
X22835Y1969D03*
D03*
X19291Y-4724D03*
D03*
X15354D03*
D03*
X11417D03*
D03*
X7480D03*
D03*
X35039Y-152559D03*
D03*
X29528Y-133858D03*
D03*
X34843Y-114764D03*
D03*
X35236Y-108268D03*
D03*
X25394Y-114173D03*
D03*
X30815Y-108071D03*
D03*
X27539Y-115402D03*
D03*
X29043Y-111413D03*
D03*
X26575Y-111425D03*
D03*
X23425Y-111220D03*
D03*
X37587Y-100984D03*
D03*
X39370Y-81890D03*
D03*
Y-78740D03*
D03*
X29528Y-66535D03*
D03*
X31496Y-60236D03*
D03*
X31890Y-57087D03*
D03*
X31516Y-63701D03*
D03*
X25197Y-57087D03*
D03*
Y-61024D03*
D03*
X39764Y-62992D03*
D03*
X37008Y-69291D03*
D03*
X37992Y-66142D03*
D03*
X37008Y-49606D03*
D03*
X25197Y-46063D03*
D03*
X36614Y-44882D03*
D03*
X31890Y-49606D03*
D03*
Y-46063D03*
D03*
Y-53150D03*
D03*
X34646Y-55512D03*
D03*
X25039Y-49193D03*
D03*
X25098Y-53150D03*
D03*
X35827Y-24016D03*
D03*
X26378D03*
D03*
X28150Y-39567D03*
D03*
X26181D03*
D03*
Y-37598D03*
D03*
X28150D03*
D03*
Y-35630D03*
D03*
X26181D03*
D03*
Y-33661D03*
D03*
X28150D03*
D03*
X24213D03*
D03*
Y-35630D03*
D03*
Y-37598D03*
D03*
Y-39567D03*
D03*
X35433Y-29528D03*
D03*
X38976Y-33268D03*
D03*
X38780Y-28937D03*
D03*
X38937Y-37008D03*
D03*
X31890Y-27559D03*
D03*
X28150D03*
D03*
X24803D03*
D03*
X34646Y-33071D03*
D03*
Y-36614D03*
D03*
X37008Y-17323D03*
D03*
X29528Y-21260D03*
D03*
Y-16929D03*
D03*
X29921Y-12598D03*
D03*
X25984D03*
D03*
X33858Y-12205D03*
D03*
X35827Y-8661D03*
D03*
X33465Y-5906D03*
D03*
Y-1969D03*
D03*
Y1969D03*
D03*
X25591Y-787D03*
D03*
Y-4724D03*
D03*
X55906Y-147638D03*
D03*
X42913Y-143307D03*
D03*
X48819Y-131102D03*
D03*
X46063Y-130610D03*
D03*
X43307Y-133465D03*
D03*
X54331Y-131890D03*
D03*
X50394Y-106496D03*
D03*
X48819Y-120453D03*
D03*
X46063Y-120965D03*
D03*
X40157Y-107677D03*
D03*
X51575Y-120079D03*
D03*
X42520Y-120866D03*
D03*
X43504Y-117717D03*
D03*
X40551Y-99508D03*
D03*
X53150Y-106299D03*
D03*
X51969Y-99213D03*
D03*
X43307Y-104528D03*
D03*
X46437Y-86516D03*
D03*
X40551Y-85039D03*
D03*
X53465Y-86417D03*
D03*
X49587Y-86437D03*
D03*
X55126Y-76575D03*
D03*
X43307Y-78760D03*
D03*
X52567Y-57677D03*
D03*
X42126Y-60630D03*
D03*
X44094Y-58268D03*
D03*
X55709Y-58752D03*
D03*
X55512Y-67323D03*
D03*
X48425Y-67717D03*
D03*
X47244Y-49213D03*
D03*
X56220Y-51339D03*
D03*
X52559Y-47677D03*
D03*
X49094Y-44213D03*
D03*
X44567Y-42402D03*
D03*
X55906Y-43425D03*
D03*
X52205Y-39724D03*
D03*
X40551Y-45669D03*
D03*
X49016Y-55709D03*
D03*
X43701Y-29134D03*
D03*
X51969Y-32480D03*
D03*
X43307Y-23819D03*
D03*
X48228Y-29331D03*
D03*
X47677Y-37126D03*
D03*
X43268Y-37047D03*
D03*
X55709Y-35630D03*
D03*
X54331Y-27165D03*
D03*
X49606Y-24213D03*
D03*
X43701Y-6299D03*
D03*
X50787Y-16732D03*
D03*
X43898Y-17717D03*
D03*
X54528Y-21260D03*
D03*
X54921Y-13583D03*
D03*
X45669Y-13189D03*
D03*
X55118Y-5906D03*
D03*
X46850Y-394D03*
D03*
X64961Y-140945D03*
D03*
X65000Y-134823D03*
D03*
X69685Y-108858D03*
D03*
X57874Y-113386D03*
D03*
X66142Y-120079D03*
D03*
X68701Y-99213D03*
D03*
X59508Y-78917D03*
D03*
X64961Y-84646D03*
D03*
X66929Y-80906D03*
D03*
X60669Y-69350D03*
D03*
X60610Y-62323D03*
D03*
X67992Y-62638D03*
D03*
X67402Y-70591D03*
D03*
X59685Y-47205D03*
D03*
X71063Y-47047D03*
D03*
X59173Y-54587D03*
D03*
X67874Y-54843D03*
D03*
X64961Y-43504D03*
D03*
Y-49213D03*
D03*
X71457Y-41535D03*
D03*
X60039Y-39173D03*
D03*
X73228Y-35433D03*
D03*
X71457Y-26772D03*
D03*
X68110Y-38583D03*
D03*
X68898Y-30709D03*
D03*
X59449Y-30118D03*
D03*
X60827Y-24213D03*
D03*
X63780Y-34055D03*
D03*
X64567Y-27756D03*
D03*
X69685Y-6299D03*
D03*
X60039Y-19488D03*
D03*
X71260Y-22047D03*
D03*
X64961Y-18110D03*
D03*
X71260Y-13386D03*
D03*
Y-17323D03*
D03*
X61803Y-14567D03*
D03*
X62598Y-394D03*
D03*
X81693Y-147047D03*
D03*
X75591Y-152953D03*
D03*
X85551Y-125102D03*
D03*
X85236Y-130039D03*
D03*
X82283Y-132087D03*
D03*
X81299Y-124409D03*
D03*
X82480Y-112008D03*
D03*
X84843D03*
D03*
X82480Y-109843D03*
D03*
X84843D03*
D03*
X82480Y-107677D03*
D03*
X84843D03*
D03*
X74016Y-120472D03*
D03*
X83465Y-118110D03*
D03*
X85827Y-100000D03*
D03*
X88583Y-84646D03*
D03*
X76772D03*
D03*
X81890Y-85335D03*
D03*
X88583Y-72835D03*
D03*
Y-61024D03*
D03*
X76772Y-72835D03*
D03*
Y-61024D03*
D03*
X75394Y-54724D03*
D03*
X88976Y-52756D03*
D03*
X88189Y-45669D03*
D03*
X83071Y-49803D03*
D03*
X81496Y-43504D03*
D03*
X76772Y-49213D03*
D03*
X79528Y-27559D03*
D03*
X85827Y-26575D03*
D03*
X75984Y-31299D03*
D03*
X80906Y-35236D03*
D03*
X87008Y-38583D03*
D03*
X77165Y-39567D03*
D03*
X85630Y-32283D03*
D03*
X85236Y-19094D03*
D03*
X76969Y-13583D03*
D03*
X77165Y-21654D03*
D03*
X89370Y-13386D03*
D03*
X83071Y-5906D03*
D03*
X76378Y-394D03*
D03*
X89370D03*
D03*
X101575Y-140748D03*
D03*
X94094Y-151575D03*
D03*
X101181Y-152362D03*
D03*
X102067Y-144882D03*
D03*
X95669Y-130118D03*
D03*
Y-125394D03*
D03*
X106299Y-134843D03*
D03*
X105709Y-110039D03*
D03*
X95276Y-120079D03*
D03*
X105315Y-119862D03*
D03*
X95669Y-115354D03*
D03*
Y-110220D03*
D03*
X105906Y-94882D03*
D03*
X106299Y-98031D03*
D03*
X95866Y-100417D03*
D03*
X100394Y-84646D03*
D03*
X101181Y-88701D03*
D03*
X105709Y-82480D03*
D03*
X91339Y-83071D03*
D03*
X100394Y-72835D03*
D03*
Y-61024D03*
D03*
X94488Y-40354D03*
D03*
X105118Y-52756D03*
D03*
X101181Y-39961D03*
D03*
X105709Y-46260D03*
D03*
X95669Y-47638D03*
D03*
X92126Y-23228D03*
D03*
X101181Y-23622D03*
D03*
X92520Y-33268D03*
D03*
X96260Y-28543D03*
D03*
X105906Y-27165D03*
D03*
X101378Y-33661D03*
D03*
X95669Y-6693D03*
D03*
X96260Y-18307D03*
D03*
X101378Y-13583D03*
D03*
X100787Y-787D03*
D03*
X112205Y-144685D03*
D03*
X112402Y-136024D03*
D03*
X112598Y-127362D03*
D03*
Y-115157D03*
D03*
Y-98031D03*
D03*
X112205Y-84646D03*
D03*
X111811Y-75984D03*
D03*
X112205Y-72835D03*
D03*
Y-61024D03*
D03*
X111811Y-63386D03*
D03*
X111024Y-40551D03*
D03*
X111811Y-52362D03*
D03*
X111417Y-30709D03*
D03*
X107283Y-35433D03*
D03*
X112402Y-23228D03*
D03*
X107087Y-6693D03*
D03*
Y-19291D03*
D03*
X112402Y-13386D03*
D03*
X112205Y-787D03*
D03*
G54D11*
X1890Y26969D03*
D03*
Y15945D03*
D03*
Y37992D03*
D03*
Y49016D03*
D03*
Y60039D03*
D03*
Y71063D03*
D03*
Y82087D03*
D03*
Y93110D03*
D03*
Y104134D03*
D03*
Y115157D03*
D03*
Y126181D03*
D03*
Y137205D03*
D03*
Y148228D03*
D03*
X22756Y26969D03*
D03*
Y37992D03*
D03*
Y49016D03*
D03*
Y60039D03*
D03*
Y71063D03*
D03*
Y82087D03*
D03*
Y93110D03*
D03*
Y104134D03*
D03*
Y115157D03*
D03*
Y126181D03*
D03*
Y137205D03*
D03*
Y148228D03*
D03*
G54D12*
G01X-45276Y-156693D02*
X115744D01*
X115748Y-156689D01*
Y151772D01*
X-45276D01*
Y135630D01*
Y-156693D01*
M02*
