G04 ================== begin FILE IDENTIFICATION RECORD ==================*
G04 Layout Name:  Z1044-B.brd*
G04 Film Name:    Layer1*
G04 File Format:  Gerber RS274X*
G04 File Origin:  Cadence Allegro 16.6-S019*
G04 Origin Date:  Fri Nov 18 12:25:08 2016*
G04 *
G04 Layer:  DRAWING FORMAT/ANTENNA_GROUND*
G04 Layer:  VIA CLASS/TOP*
G04 Layer:  PIN/TOP*
G04 Layer:  ETCH/TOP*
G04 *
G04 Offset:    (0.000 0.000)*
G04 Mirror:    No*
G04 Mode:      Positive*
G04 Rotation:  0*
G04 FullContactRelief:  No*
G04 UndefLineWidth:     0.020*
G04 ================== end FILE IDENTIFICATION RECORD ====================*
%FSLAX25Y25*MOIN*%
%IR0*IPPOS*OFA0.00000B0.00000*MIA0B0*SFA1.00000B1.00000*%
%AMMACRO27*
4,1,40,-.019685,-.009409,
-.019685,.009409,
-.019533,.011032,
-.019101,.012604,
-.018403,.014077,
-.017459,.015406,
-.0163,.016551,
-.014959,.017477,
-.013477,.018157,
-.0119,.018569,
-.010315,.018701,
.010315,.018701,
.011939,.018562,
.013514,.018144,
.014993,.017458,
.01633,.016526,
.017485,.015376,
.018423,.014043,
.019115,.012567,
.01954,.010994,
.019685,.009409,
.019685,-.009409,
.019533,-.011032,
.019101,-.012604,
.018403,-.014077,
.017459,-.015406,
.0163,-.016551,
.014959,-.017477,
.013477,-.018157,
.0119,-.018569,
.010315,-.018701,
-.010315,-.018701,
-.011939,-.018562,
-.013514,-.018144,
-.014993,-.017458,
-.01633,-.016526,
-.017485,-.015376,
-.018423,-.014043,
-.019115,-.012567,
-.01954,-.010994,
-.019685,-.009409,
0.0*
%
%ADD27MACRO27*%
%AMMACRO26*
4,1,40,-.026614,-.009409,
-.026614,.009409,
-.026459,.011034,
-.026025,.012608,
-.025324,.014081,
-.024377,.015411,
-.023214,.016556,
-.02187,.017482,
-.020386,.018161,
-.018806,.018571,
-.017205,.018701,
.017205,.018701,
.018831,.018567,
.02041,.018152,
.021893,.017469,
.023234,.01654,
.024394,.015391,
.025337,.014059,
.026034,.012583,
.026464,.011009,
.026614,.009409,
.026614,-.009409,
.026459,-.011034,
.026025,-.012608,
.025324,-.014081,
.024377,-.015411,
.023214,-.016556,
.02187,-.017482,
.020386,-.018161,
.018806,-.018571,
.017205,-.018701,
-.017205,-.018701,
-.018831,-.018567,
-.02041,-.018152,
-.021893,-.017469,
-.023234,-.01654,
-.024394,-.015391,
-.025337,-.014059,
-.026034,-.012583,
-.026464,-.011009,
-.026614,-.009409,
0.0*
%
%ADD26MACRO26*%
%AMMACRO34*
4,1,40,.010827,.005315,
.010827,-.005315,
.010746,-.006238,
.010506,-.007133,
.010115,-.007972,
.009583,-.008731,
.008928,-.009386,
.008169,-.009918,
.00733,-.010309,
.006435,-.010549,
.005512,-.01063,
-.005512,-.01063,
-.006435,-.010549,
-.00733,-.010309,
-.008169,-.009918,
-.008928,-.009386,
-.009583,-.008731,
-.010115,-.007972,
-.010506,-.007133,
-.010746,-.006238,
-.010827,-.005315,
-.010827,.005315,
-.010746,.006238,
-.010506,.007133,
-.010115,.007972,
-.009583,.008731,
-.008928,.009386,
-.008169,.009918,
-.00733,.010309,
-.006435,.010549,
-.005512,.01063,
.005512,.01063,
.006435,.010549,
.00733,.010309,
.008169,.009918,
.008928,.009386,
.009583,.008731,
.010115,.007972,
.010506,.007133,
.010746,.006238,
.010827,.005315,
0.0*
%
%ADD34MACRO34*%
%AMMACRO13*
4,1,40,.005315,-.010827,
-.005315,-.010827,
-.006238,-.010746,
-.007133,-.010506,
-.007972,-.010115,
-.008731,-.009583,
-.009386,-.008928,
-.009918,-.008169,
-.010309,-.00733,
-.010549,-.006435,
-.01063,-.005512,
-.01063,.005512,
-.010549,.006435,
-.010309,.00733,
-.009918,.008169,
-.009386,.008928,
-.008731,.009583,
-.007972,.010115,
-.007133,.010506,
-.006238,.010746,
-.005315,.010827,
.005315,.010827,
.006238,.010746,
.007133,.010506,
.007972,.010115,
.008731,.009583,
.009386,.008928,
.009918,.008169,
.010309,.00733,
.010549,.006435,
.01063,.005512,
.01063,-.005512,
.010549,-.006435,
.010309,-.00733,
.009918,-.008169,
.009386,-.008928,
.008731,-.009583,
.007972,-.010115,
.007133,-.010506,
.006238,-.010746,
.005315,-.010827,
0.0*
%
%ADD13MACRO13*%
%AMMACRO29*
4,1,40,.012795,.006299,
.012795,-.006299,
.0127,-.007393,
.012415,-.008454,
.011951,-.009449,
.011322,-.010348,
.010545,-.011125,
.009646,-.011754,
.008651,-.012219,
.00759,-.012503,
.006496,-.012598,
-.006496,-.012598,
-.00759,-.012503,
-.008651,-.012219,
-.009646,-.011754,
-.010545,-.011125,
-.011322,-.010348,
-.011951,-.009449,
-.012415,-.008454,
-.0127,-.007393,
-.012795,-.006299,
-.012795,.006299,
-.0127,.007393,
-.012415,.008454,
-.011951,.009449,
-.011322,.010348,
-.010545,.011125,
-.009646,.011754,
-.008651,.012219,
-.00759,.012503,
-.006496,.012598,
.006496,.012598,
.00759,.012503,
.008651,.012219,
.009646,.011754,
.010545,.011125,
.011322,.010348,
.011951,.009449,
.012415,.008454,
.0127,.007393,
.012795,.006299,
0.0*
%
%ADD29MACRO29*%
%AMMACRO20*
4,1,40,.006299,-.012795,
-.006299,-.012795,
-.007393,-.0127,
-.008454,-.012415,
-.009449,-.011951,
-.010348,-.011322,
-.011125,-.010545,
-.011754,-.009646,
-.012219,-.008651,
-.012503,-.00759,
-.012598,-.006496,
-.012598,.006496,
-.012503,.00759,
-.012219,.008651,
-.011754,.009646,
-.011125,.010545,
-.010348,.011322,
-.009449,.011951,
-.008454,.012415,
-.007393,.0127,
-.006299,.012795,
.006299,.012795,
.007393,.0127,
.008454,.012415,
.009449,.011951,
.010348,.011322,
.011125,.010545,
.011754,.009646,
.012219,.008651,
.012503,.00759,
.012598,.006496,
.012598,-.006496,
.012503,-.00759,
.012219,-.008651,
.011754,-.009646,
.011125,-.010545,
.010348,-.011322,
.009449,-.011951,
.008454,-.012415,
.007393,-.0127,
.006299,-.012795,
0.0*
%
%ADD20MACRO20*%
%AMMACRO22*
4,1,8,.033465,-.011811,
-.033465,-.011811,
-.033465,.011811,
-.019685,.011811,
-.005906,.003937,
.005906,.003937,
.019685,.011811,
.033465,.011811,
.033465,-.011811,
0.0*
%
%ADD22MACRO22*%
%ADD32R,.086614X.086614*%
%ADD16R,.206693X.206693*%
%ADD12C,.003898*%
%AMMACRO19*
4,1,40,-.035433,.009843,
-.035433,-.009843,
-.035284,-.011552,
-.034839,-.013209,
-.034114,-.014764,
-.03313,-.016169,
-.031917,-.017382,
-.030512,-.018366,
-.028957,-.019091,
-.0273,-.019536,
-.025591,-.019685,
.025591,-.019685,
.0273,-.019536,
.028957,-.019091,
.030512,-.018366,
.031917,-.017382,
.03313,-.016169,
.034114,-.014764,
.034839,-.013209,
.035284,-.011552,
.035433,-.009843,
.035433,.009843,
.035284,.011552,
.034839,.013209,
.034114,.014764,
.03313,.016169,
.031917,.017382,
.030512,.018366,
.028957,.019091,
.0273,.019536,
.025591,.019685,
-.025591,.019685,
-.0273,.019536,
-.028957,.019091,
-.030512,.018366,
-.031917,.017382,
-.03313,.016169,
-.034114,.014764,
-.034839,.013209,
-.035284,.011552,
-.035433,.009843,
0.0*
%
%ADD19MACRO19*%
%ADD10O,.03937X.03937*%
%AMMACRO28*
4,1,40,.009409,-.019685,
-.009409,-.019685,
-.011032,-.019533,
-.012604,-.019101,
-.014077,-.018403,
-.015406,-.017459,
-.016551,-.0163,
-.017477,-.014959,
-.018157,-.013477,
-.018569,-.0119,
-.018701,-.010315,
-.018701,.010315,
-.018562,.011939,
-.018144,.013514,
-.017458,.014993,
-.016526,.01633,
-.015376,.017485,
-.014043,.018423,
-.012567,.019115,
-.010994,.01954,
-.009409,.019685,
.009409,.019685,
.011032,.019533,
.012604,.019101,
.014077,.018403,
.015406,.017459,
.016551,.0163,
.017477,.014959,
.018157,.013477,
.018569,.0119,
.018701,.010315,
.018701,-.010315,
.018562,-.011939,
.018144,-.013514,
.017458,-.014993,
.016526,-.01633,
.015376,-.017485,
.014043,-.018423,
.012567,-.019115,
.010994,-.01954,
.009409,-.019685,
0.0*
%
%ADD28MACRO28*%
%AMMACRO31*
4,1,40,-.005315,.010827,
.005315,.010827,
.006238,.010746,
.007133,.010506,
.007972,.010115,
.008731,.009583,
.009386,.008928,
.009918,.008169,
.010309,.00733,
.010549,.006435,
.01063,.005512,
.01063,-.005512,
.010549,-.006435,
.010309,-.00733,
.009918,-.008169,
.009386,-.008928,
.008731,-.009583,
.007972,-.010115,
.007133,-.010506,
.006238,-.010746,
.005315,-.010827,
-.005315,-.010827,
-.006238,-.010746,
-.007133,-.010506,
-.007972,-.010115,
-.008731,-.009583,
-.009386,-.008928,
-.009918,-.008169,
-.010309,-.00733,
-.010549,-.006435,
-.01063,-.005512,
-.01063,.005512,
-.010549,.006435,
-.010309,.00733,
-.009918,.008169,
-.009386,.008928,
-.008731,.009583,
-.007972,.010115,
-.007133,.010506,
-.006238,.010746,
-.005315,.010827,
0.0*
%
%ADD31MACRO31*%
%AMMACRO17*
4,1,40,-.010827,-.005315,
-.010827,.005315,
-.010746,.006238,
-.010506,.007133,
-.010115,.007972,
-.009583,.008731,
-.008928,.009386,
-.008169,.009918,
-.00733,.010309,
-.006435,.010549,
-.005512,.01063,
.005512,.01063,
.006435,.010549,
.00733,.010309,
.008169,.009918,
.008928,.009386,
.009583,.008731,
.010115,.007972,
.010506,.007133,
.010746,.006238,
.010827,.005315,
.010827,-.005315,
.010746,-.006238,
.010506,-.007133,
.010115,-.007972,
.009583,-.008731,
.008928,-.009386,
.008169,-.009918,
.00733,-.010309,
.006435,-.010549,
.005512,-.01063,
-.005512,-.01063,
-.006435,-.010549,
-.00733,-.010309,
-.008169,-.009918,
-.008928,-.009386,
-.009583,-.008731,
-.010115,-.007972,
-.010506,-.007133,
-.010746,-.006238,
-.010827,-.005315,
0.0*
%
%ADD17MACRO17*%
%AMMACRO37*
4,1,44,-.017717,-.007402,
-.017717,.007402,
-.017601,.008683,
-.017265,.009925,
-.016718,.01109,
-.015977,.012142,
-.015065,.013049,
-.014009,.013785,
-.012841,.014325,
-.011597,.014655,
-.010315,.014764,
-.010315,.014764,
.010315,.014764,
.011597,.014655,
.012841,.014325,
.014009,.013785,
.015065,.013049,
.015977,.012142,
.016718,.01109,
.017265,.009925,
.017601,.008683,
.017717,.007402,
.017717,-.007402,
.017601,-.008683,
.017265,-.009925,
.016718,-.01109,
.015977,-.012142,
.015065,-.013049,
.014009,-.013785,
.012841,-.014325,
.011597,-.014655,
.010315,-.014764,
.010315,-.014764,
-.010315,-.014764,
-.011597,-.014655,
-.012841,-.014325,
-.014009,-.013785,
-.015065,-.013049,
-.015977,-.012142,
-.016718,-.01109,
-.017265,-.009925,
-.017601,-.008683,
-.017717,-.007402,
-.017717,-.007402,
0.0*
%
%ADD37MACRO37*%
%AMMACRO21*
4,1,40,-.012795,-.006299,
-.012795,.006299,
-.0127,.007393,
-.012415,.008454,
-.011951,.009449,
-.011322,.010348,
-.010545,.011125,
-.009646,.011754,
-.008651,.012219,
-.00759,.012503,
-.006496,.012598,
.006496,.012598,
.00759,.012503,
.008651,.012219,
.009646,.011754,
.010545,.011125,
.011322,.010348,
.011951,.009449,
.012415,.008454,
.0127,.007393,
.012795,.006299,
.012795,-.006299,
.0127,-.007393,
.012415,-.008454,
.011951,-.009449,
.011322,-.010348,
.010545,-.011125,
.009646,-.011754,
.008651,-.012219,
.00759,-.012503,
.006496,-.012598,
-.006496,-.012598,
-.00759,-.012503,
-.008651,-.012219,
-.009646,-.011754,
-.010545,-.011125,
-.011322,-.010348,
-.011951,-.009449,
-.012415,-.008454,
-.0127,-.007393,
-.012795,-.006299,
0.0*
%
%ADD21MACRO21*%
%AMMACRO18*
4,1,40,-.006299,.012795,
.006299,.012795,
.007393,.0127,
.008454,.012415,
.009449,.011951,
.010348,.011322,
.011125,.010545,
.011754,.009646,
.012219,.008651,
.012503,.00759,
.012598,.006496,
.012598,-.006496,
.012503,-.00759,
.012219,-.008651,
.011754,-.009646,
.011125,-.010545,
.010348,-.011322,
.009449,-.011951,
.008454,-.012415,
.007393,-.0127,
.006299,-.012795,
-.006299,-.012795,
-.007393,-.0127,
-.008454,-.012415,
-.009449,-.011951,
-.010348,-.011322,
-.011125,-.010545,
-.011754,-.009646,
-.012219,-.008651,
-.012503,-.00759,
-.012598,-.006496,
-.012598,.006496,
-.012503,.00759,
-.012219,.008651,
-.011754,.009646,
-.011125,.010545,
-.010348,.011322,
-.009449,.011951,
-.008454,.012415,
-.007393,.0127,
-.006299,.012795,
0.0*
%
%ADD18MACRO18*%
%ADD23R,.019685X.015748*%
%ADD15O,.035433X.011811*%
%ADD14O,.011811X.035433*%
%ADD11C,.019685*%
%ADD33R,.025591X.015748*%
%ADD30R,.015748X.025591*%
%ADD25C,.031496*%
%AMMACRO24*
4,1,8,-.033465,.011811,
.033465,.011811,
.033465,-.011811,
.019685,-.011811,
.005906,-.003937,
-.005906,-.003937,
-.019685,-.011811,
-.033465,-.011811,
-.033465,.011811,
0.0*
%
%ADD24MACRO24*%
%ADD35R,.027559X.027559*%
%AMMACRO36*
4,1,45,0.0,-.027559,
.012283,-.027559,
.014249,-.027391,
.016156,-.026883,
.017946,-.026052,
.019564,-.024924,
.020961,-.023531,
.022096,-.021917,
.022933,-.02013,
.023447,-.018225,
.023622,-.01626,
.023622,-.01622,
.023622,.01622,
.023454,.018186,
.022946,.020093,
.022115,.021883,
.020987,.023501,
.019594,.024898,
.01798,.026033,
.016193,.02687,
.014288,.027384,
.012323,.027559,
.012283,.027559,
-.012283,.027559,
-.014249,.027391,
-.016156,.026883,
-.017946,.026052,
-.019564,.024924,
-.020961,.023531,
-.022096,.021917,
-.022933,.02013,
-.023447,.018225,
-.023622,.01626,
-.023622,.01622,
-.023622,-.01622,
-.023454,-.018186,
-.022946,-.020093,
-.022115,-.021883,
-.020987,-.023501,
-.019594,-.024898,
-.01798,-.026033,
-.016193,-.02687,
-.014288,-.027384,
-.012323,-.027559,
-.012283,-.027559,
0.0,-.027559,
0.0*
%
%ADD36MACRO36*%
%ADD38C,.007874*%
%ADD39C,.011811*%
%ADD40C,.015748*%
%ADD41C,.023622*%
%ADD42C,.005906*%
%ADD43C,.027559*%
%ADD44C,.009843*%
%ADD45C,.01*%
%ADD46C,.071102*%
%ADD47C,.029843*%
G75*
%LPD*%
G75*
G36*
G01X23850Y-25461D02*
G03X23925Y-25039I-1153J422D01*
G01Y-23780D01*
G03X23850Y-23358I-1228J-1D01*
G01X23827Y-23291D01*
Y-22291D01*
X23831Y-22220D01*
X23854Y-22138D01*
G02X24232Y-21858I377J-115D01*
G01X24472D01*
X24539Y-21882D01*
G03X24961Y-21957I422J1153D01*
G01X26220D01*
G03X27449Y-20728I0J1228D01*
G01Y-19429D01*
G03X27220Y-18717I-1228J-1D01*
G01X27189Y-18673D01*
X27126Y-18492D01*
G02X27106Y-18366I375J123D01*
G01Y-18248D01*
G02X27126Y-18122I394J3D01*
G01X27189Y-17941D01*
X27220Y-17898D01*
G03X27449Y-17185I-1000J713D01*
G01Y-15886D01*
G03X26220Y-14657I-1228J0D01*
G01X24961D01*
G03X24539Y-14732I1J-1228D01*
G01X24472Y-14756D01*
X24220D01*
G02X23827Y-14362I0J394D01*
G01Y-13717D01*
X23850Y-13650D01*
G03X23925Y-13228I-1153J422D01*
G01Y-11969D01*
G03X23850Y-11547I-1228J-1D01*
G01X23827Y-11480D01*
Y-11307D01*
X23835Y-11240D01*
X23850Y-11130D01*
X23890Y-11067D01*
X23925Y-11004D01*
X24291Y-10697D01*
G02X24602Y-10606I256J-300D01*
G01X24650Y-10614D01*
X24669Y-10618D01*
X24673D01*
X24717Y-10626D01*
G03X24980Y-10657I293J1332D01*
G01X26268D01*
G03X26378Y-10642I0J394D01*
G01X27020Y-10453D01*
X27063Y-10445D01*
X27106Y-10441D01*
X28390D01*
X28480Y-10457D01*
X28508Y-10465D01*
X28559Y-10476D01*
X28563D01*
X28610Y-10488D01*
G03X28866Y-10520I277J1195D01*
G01X30177D01*
G03X31406Y-9291I0J1228D01*
G01Y-8031D01*
G03X31331Y-7610I-1228J-1D01*
G01X31307Y-7543D01*
Y-5862D01*
X31323Y-5772D01*
X31331Y-5744D01*
X31343Y-5693D01*
Y-5689D01*
X31354Y-5642D01*
G03X31386Y-5374I-1196J276D01*
G01Y-4075D01*
G03X31157Y-3362I-1228J-1D01*
G01X31126Y-3319D01*
X31063Y-3138D01*
G02X31043Y-3012I375J123D01*
G01Y-2894D01*
G02X31063Y-2768I394J3D01*
G01X31126Y-2587D01*
X31157Y-2543D01*
G03X31386Y-1831I-1000J713D01*
G01Y-531D01*
G03X31327Y-154I-1229J2D01*
G01X31307Y-94D01*
Y1047D01*
X31331Y1114D01*
G03X31406Y1535I-1153J422D01*
G01Y2795D01*
G03X31331Y3217I-1228J-1D01*
G01X31307Y3283D01*
Y3504D01*
X31311Y3575D01*
X31335Y3657D01*
G02X31713Y3937I377J-115D01*
G01X113740D01*
X113811Y3933D01*
X113886Y3913D01*
G02X114173Y3531I-107J-379D01*
G01Y-155118D01*
G02X113780Y-155512I-394J0D01*
G01X-43110D01*
G02X-43504Y-155118I0J394D01*
G01Y-154528D01*
X-43315Y-12205D01*
X-43307D01*
Y3504D01*
X-43303Y3575D01*
X-43280Y3657D01*
G02X-42902Y3937I377J-115D01*
G01X27315D01*
X27386Y3933D01*
X27469Y3909D01*
G02X27748Y3531I-115J-377D01*
G01Y3283D01*
X27724Y3217D01*
G03X27650Y2795I1153J-422D01*
G01Y1535D01*
G03X27724Y1114I1228J1D01*
G01X27748Y1047D01*
Y-43D01*
X27732Y-134D01*
X27724Y-161D01*
X27713Y-213D01*
Y-217D01*
X27701Y-264D01*
G03X27669Y-531I1196J-276D01*
G01Y-1831D01*
G03X27898Y-2543I1228J1D01*
G01X27929Y-2587D01*
X27992Y-2768D01*
G02X28012Y-2894I-375J-123D01*
G01Y-3012D01*
G02X27992Y-3138I-394J-3D01*
G01X27929Y-3319D01*
X27898Y-3362D01*
G03X27669Y-4075I1000J-713D01*
G01Y-5374D01*
G03X27728Y-5752I1229J-2D01*
G01X27748Y-5811D01*
Y-6488D01*
G02X27354Y-6882I-394J0D01*
G01X27122D01*
G02X27039Y-6874I-4J394D01*
G01X26969Y-6858D01*
X26917Y-6831D01*
G03X26280Y-6665I-651J-1198D01*
G01X24980D01*
G03X24051Y-7031I1J-1366D01*
G02X23744Y-7138I-271J286D01*
G01X23689Y-7134D01*
X23488Y-7059D01*
X23445Y-7028D01*
G03X22736Y-6803I-708J-1004D01*
G01X21398D01*
G03X20685Y-7031I1J-1228D01*
G01X20642Y-7063D01*
X20461Y-7126D01*
G02X20335Y-7146I-123J375D01*
G01X20217D01*
G02X20091Y-7126I-3J394D01*
G01X19909Y-7063D01*
X19866Y-7031D01*
G03X19154Y-6803I-713J-1000D01*
G01X17850D01*
G03X17476Y-6862I2J-1229D01*
G01X17417Y-6882D01*
X1772D01*
G03X748Y-7205I0J-1784D01*
G02X524Y-7276I-225J323D01*
G01X-205D01*
G03X-598Y-7669I0J-394D01*
G01Y-9654D01*
G03X-205Y-10047I394J0D01*
G01X429D01*
G02X516Y-10051I25J-394D01*
G01X610Y-10063D01*
X677Y-10083D01*
X748Y-10118D01*
X772Y-10134D01*
G03X1764Y-10441I1001J1477D01*
G01X17366D01*
X17457Y-10457D01*
X17484Y-10465D01*
X17535Y-10476D01*
X17539D01*
X17587Y-10488D01*
G03X17843Y-10520I277J1195D01*
G01X19157D01*
G03X19224Y-10516I-38J1224D01*
G01X19236Y-10512D01*
X19382Y-10504D01*
X19390D01*
X19496Y-10496D01*
X19618Y-10559D01*
X19661Y-10583D01*
X20154Y-11000D01*
X20185Y-11043D01*
X20224Y-11094D01*
X20248Y-11165D01*
G02X20268Y-11287I-374J-123D01*
G01Y-11480D01*
X20244Y-11547D01*
G03X20169Y-11969I1153J-422D01*
G01Y-13228D01*
G03X20244Y-13650I1228J1D01*
G01X20268Y-13717D01*
Y-15398D01*
X20252Y-15488D01*
X20244Y-15516D01*
X20232Y-15567D01*
Y-15571D01*
X20220Y-15618D01*
G03X20189Y-15886I1195J-276D01*
G01Y-17185D01*
G03X20417Y-17898I1228J1D01*
G01X20449Y-17941D01*
X20512Y-18122D01*
G02X20531Y-18248I-375J-123D01*
G01Y-18366D01*
G02X20512Y-18492I-394J-3D01*
G01X20449Y-18673D01*
X20417Y-18717D01*
G03X20189Y-19429I1000J-713D01*
G01Y-20728D01*
G03X20248Y-21106I1229J-2D01*
G01X20268Y-21165D01*
Y-23291D01*
X20244Y-23358D01*
G03X20169Y-23780I1153J-422D01*
G01Y-25039D01*
G03X20244Y-25461I1228J1D01*
G01X20268Y-25528D01*
Y-27165D01*
G03X20591Y-28189I1784J0D01*
G01X20626Y-28236D01*
X20646Y-28299D01*
G02X20661Y-28413I-378J-110D01*
G01Y-30913D01*
G03X21055Y-31307I394J0D01*
G01X23039D01*
G03X23433Y-30913I0J394D01*
G01Y-28421D01*
X23449Y-28323D01*
X23488Y-28220D01*
X23516Y-28181D01*
G03X23827Y-27173I-1475J1007D01*
G01Y-25528D01*
X23850Y-25461D01*
G37*
G36*
G01X22756Y28346D02*
X1890D01*
G03Y25591I0J-1378D01*
G01X22756D01*
G03Y28346I0J1378D01*
G37*
G36*
G01X28150Y17323D02*
X1890D01*
G03Y14567I0J-1378D01*
G01X28150D01*
Y17323D01*
G37*
G36*
G01X22756Y39370D02*
X1890D01*
G03Y36614I0J-1378D01*
G01X22756D01*
G03Y39370I0J1378D01*
G37*
G36*
G01Y50394D02*
X1890D01*
G03Y47638I0J-1378D01*
G01X22756D01*
G03Y50394I0J1378D01*
G37*
G36*
G01Y61417D02*
X1890D01*
G03Y58661I0J-1378D01*
G01X22756D01*
G03Y61417I0J1378D01*
G37*
G36*
G01Y72441D02*
X1890D01*
G03Y69685I0J-1378D01*
G01X22756D01*
G03Y72441I0J1378D01*
G37*
G36*
G01Y83465D02*
X1890D01*
G03Y80709I0J-1378D01*
G01X22756D01*
G03Y83465I0J1378D01*
G37*
G36*
G01Y94488D02*
X1890D01*
G03Y91732I0J-1378D01*
G01X22756D01*
G03Y94488I0J1378D01*
G37*
G36*
G01Y105512D02*
X1890D01*
G03Y102756I0J-1378D01*
G01X22756D01*
G03Y105512I0J1378D01*
G37*
G36*
G01Y116535D02*
X1890D01*
G03Y113780I0J-1378D01*
G01X22756D01*
G03Y116535I0J1378D01*
G37*
G36*
G01Y127559D02*
X1890D01*
G03Y124803I0J-1378D01*
G01X22756D01*
G03Y127559I0J1378D01*
G37*
G36*
G01Y138583D02*
X1890D01*
G03Y135827I0J-1378D01*
G01X22756D01*
G03Y138583I0J1378D01*
G37*
G36*
G01Y149606D02*
X1890D01*
G03Y146850I0J-1378D01*
G01X22756D01*
G03Y149606I0J1378D01*
G37*
%LPC*%
G75*
G36*
G01X-37992Y-145661D02*
X-37598D01*
G02X-37795Y-153551I-199J-3942D01*
G02X-37992Y-145661I3J3947D01*
G37*
G36*
G01X108465D02*
X108858D01*
G02X108661Y-153551I-199J-3942D01*
G02X108465Y-145661I3J3947D01*
G37*
G36*
G01X-38386Y-15346D02*
X-37992D01*
G02X-38189Y-23236I-199J-3942D01*
G02X-38386Y-15346I3J3947D01*
G37*
G36*
G01X20189Y-51319D02*
G02X20240Y-50965I1229J3D01*
G03X20252Y-50913I-377J114D01*
G01X20268Y-50819D01*
Y-49150D01*
X20244Y-49083D01*
G02X20169Y-48661I1153J422D01*
G01Y-47402D01*
G02X20244Y-46980I1228J-1D01*
G01X20268Y-46913D01*
Y-45669D01*
G02X20591Y-44646I1784J0D01*
G03X20661Y-44421I-323J225D01*
G01Y-42315D01*
G02X21055Y-41921I394J0D01*
G01X23039D01*
G02X23433Y-42315I0J-394D01*
G01Y-44421D01*
G03X23504Y-44646I394J1D01*
G02X23827Y-45669I-1461J-1024D01*
G01Y-46913D01*
X23850Y-46980D01*
G02X23925Y-47402I-1153J-422D01*
G01Y-48661D01*
G02X23850Y-49083I-1228J1D01*
G01X23827Y-49150D01*
Y-50787D01*
G03X23831Y-50850I394J-7D01*
G01X23846Y-50941D01*
G02X23906Y-51319I-1169J-376D01*
G01Y-52618D01*
G02X23646Y-53374I-1228J0D01*
G01X23602Y-53429D01*
X23563Y-53547D01*
Y-53933D01*
X23602Y-54051D01*
X23646Y-54106D01*
G02X23906Y-54862I-969J-756D01*
G01Y-56161D01*
G02X23846Y-56539I-1229J-2D01*
G01X23827Y-56598D01*
Y-57937D01*
X23850Y-58004D01*
G02X23925Y-58425I-1153J-422D01*
G01Y-59685D01*
G02X23850Y-60106I-1228J1D01*
G01X23827Y-60173D01*
Y-61874D01*
X23850Y-61941D01*
G02X23925Y-62362I-1153J-422D01*
G01Y-63622D01*
G02X23402Y-64626I-1228J2D01*
G01X23323Y-64681D01*
X23236Y-64850D01*
Y-65866D01*
G03X23480Y-66232I394J-2D01*
G01X23591Y-66276D01*
X23819Y-66232D01*
X24091Y-65961D01*
G03X24205Y-65693I-279J277D01*
G02X24724Y-64488I1780J-53D01*
G01X26374Y-62843D01*
G03X26488Y-62567I-280J277D01*
G01Y-61949D01*
G02X26748Y-61193I1228J0D01*
G01X26791Y-61138D01*
X26831Y-61020D01*
Y-60634D01*
X26791Y-60516D01*
X26748Y-60461D01*
G02X26488Y-59705I969J756D01*
G01Y-58406D01*
G02X26547Y-58028I1229J2D01*
G01X26567Y-57969D01*
Y-56630D01*
X26543Y-56563D01*
G02X26469Y-56142I1153J422D01*
G01Y-54882D01*
G02X26543Y-54461I1228J-1D01*
G01X26567Y-54394D01*
Y-52756D01*
G03X26563Y-52693I-394J7D01*
G01X26547Y-52602D01*
G02X26488Y-52224I1169J376D01*
G01Y-50925D01*
G02X26748Y-50169I1228J0D01*
G01X26791Y-50114D01*
X26831Y-49996D01*
Y-49610D01*
X26791Y-49492D01*
X26748Y-49437D01*
G02X26488Y-48681I969J756D01*
G01Y-47382D01*
G02X26547Y-47004I1229J2D01*
G01X26567Y-46945D01*
Y-46063D01*
G02X26890Y-45039I1784J0D01*
G03X26961Y-44815I-323J225D01*
G01Y-42315D01*
G02X27354Y-41921I394J0D01*
G01X29339D01*
G02X29732Y-42315I0J-394D01*
G01Y-44815D01*
G03X29803Y-45039I394J1D01*
G02X30126Y-46063I-1461J-1024D01*
G01Y-46945D01*
X30146Y-47004D01*
G02X30205Y-47382I-1169J-376D01*
G01Y-48681D01*
G02X29945Y-49437I-1228J0D01*
G01X29902Y-49492D01*
X29862Y-49610D01*
Y-49996D01*
X29902Y-50114D01*
X29945Y-50169D01*
G02X30205Y-50925I-969J-756D01*
G01Y-52224D01*
G02X30154Y-52579I-1229J-3D01*
G03X30142Y-52630I377J-114D01*
G01X30126Y-52724D01*
Y-54394D01*
X30150Y-54461D01*
G02X30224Y-54882I-1153J-422D01*
G01Y-56142D01*
G02X30150Y-56563I-1228J1D01*
G01X30126Y-56630D01*
Y-57969D01*
X30146Y-58028D01*
G02X30205Y-58406I-1169J-376D01*
G01Y-59705D01*
G02X29945Y-60461I-1228J0D01*
G01X29902Y-60516D01*
X29862Y-60634D01*
Y-61020D01*
X29902Y-61138D01*
X29945Y-61193D01*
G02X30205Y-61949I-969J-756D01*
G01Y-63248D01*
G02X30154Y-63602I-1229J-3D01*
G03X30142Y-63654I377J-114D01*
G01X30126Y-63748D01*
Y-63961D01*
G02X30012Y-64236I-394J2D01*
G01X27244Y-67008D01*
G02X26268Y-67504I-1255J1262D01*
G03X26039Y-67626I61J-389D01*
G01X25878Y-67799D01*
G03X25776Y-68067I292J-265D01*
G01Y-68079D01*
X26004Y-68307D01*
X27425D01*
X27433Y-68299D01*
X29287D01*
G03X29614Y-68126I1J394D01*
G02X30024Y-67760I936J-634D01*
G01X30079Y-67732D01*
X44949Y-52862D01*
G02X45224Y-52748I277J-280D01*
G01X55169D01*
G02X55445Y-52862I-2J-394D01*
G01X58949Y-56366D01*
G02X59063Y-56642I-280J-277D01*
G01Y-76823D01*
G02X58949Y-77098I-394J2D01*
G01X55898Y-80150D01*
G03X55815Y-80579I280J-276D01*
G01X55858Y-80689D01*
X56055Y-80819D01*
X59811D01*
G03X60087Y-80705I-2J394D01*
G01X62280Y-78512D01*
G03X62394Y-78236I-280J277D01*
G01Y-56157D01*
G03X62280Y-55882I-394J-2D01*
G01X47858Y-41461D01*
G03X47583Y-41346I-277J-280D01*
G01X42110D01*
G03X41886Y-41417I1J-394D01*
G02X41181Y-41642I-708J1003D01*
G01X39921D01*
G02X39217Y-41417I3J1228D01*
G01X39161Y-41382D01*
X39055Y-41346D01*
X37614D01*
X37543Y-41370D01*
G02X37146Y-41445I-404J1054D01*
G01X36083D01*
G02X35685Y-41370I6J1129D01*
G01X35614Y-41346D01*
X32382D01*
G02X31693Y-41189I0J1586D01*
G01X31689D01*
G03X31520Y-41150I-171J-354D01*
G01X30898D01*
G02X30504Y-40756I0J394D01*
G01Y-38772D01*
G02X30898Y-38378I394J0D01*
G01X31520D01*
G03X31689Y-38339I-2J393D01*
G01X31693D01*
G02X32382Y-38181I689J-1428D01*
G01X35614D01*
X35685Y-38157D01*
G02X36083Y-38083I404J-1054D01*
G01X37146D01*
G02X37543Y-38157I-6J-1129D01*
G01X37614Y-38181D01*
X38992D01*
G03X39217Y-38110I-1J394D01*
G02X39921Y-37886I708J-1003D01*
G01X41181D01*
G02X41886Y-38110I-3J-1228D01*
G01X41941Y-38146D01*
X42047Y-38181D01*
X48898D01*
G02X49173Y-38295I-2J-394D01*
G01X65445Y-54567D01*
G02X65559Y-54843I-280J-277D01*
G01Y-79551D01*
G02X65445Y-79827I-394J2D01*
G01X61402Y-83870D01*
G02X61126Y-83984I-277J280D01*
G01X44008D01*
G03X43732Y-84098I2J-394D01*
G01X42484Y-85346D01*
G03X42402Y-85776I280J-276D01*
G01X42445Y-85886D01*
X42642Y-86016D01*
X43492D01*
G03X43768Y-85902I-2J394D01*
G01X44031Y-85638D01*
G02X44307Y-85524I277J-280D01*
G01X45157D01*
G03X45425Y-85417I-1J393D01*
G02X47909Y-86768I1013J-1097D01*
G03X47996Y-87091I388J-69D01*
G01X48382Y-87547D01*
G03X48685Y-87689I302J252D01*
G01X90268D01*
G02X90543Y-87803I-2J-394D01*
G01X97846Y-95106D01*
Y-95142D01*
X101965Y-99260D01*
G02X102079Y-99535I-280J-277D01*
G01Y-101091D01*
X102075Y-101094D01*
Y-115197D01*
G03X102189Y-115472I394J2D01*
G01X105031Y-118315D01*
X105185Y-118374D01*
X105264Y-118370D01*
G02X105890Y-118484I51J-1492D01*
G03X106264Y-118449I154J362D01*
G01X106807Y-118087D01*
G03X106980Y-117760I-221J326D01*
G01Y-112736D01*
G03X106866Y-112461I-394J-2D01*
G01X105992Y-111587D01*
X105839Y-111528D01*
X105760Y-111531D01*
G02X107201Y-110091I-51J1492D01*
G01X107197Y-110169D01*
X107256Y-110323D01*
X107492Y-110559D01*
G03X107921Y-110642I276J280D01*
G01X108031Y-110598D01*
X108161Y-110402D01*
Y-100039D01*
G03X107972Y-99705I-394J-2D01*
G01X107303Y-99299D01*
X107098Y-99295D01*
X107004Y-99346D01*
G02X104807Y-97980I-705J1315D01*
G01Y-97976D01*
G03X104693Y-97689I-394J10D01*
G01X103157Y-96154D01*
G02X103043Y-95878I280J277D01*
G01Y-93185D01*
G02X103157Y-92909I394J-2D01*
G01X104043Y-92024D01*
G02X104319Y-91909I277J-280D01*
G01X106902D01*
G02X107177Y-92024I-2J-394D01*
G01X111016Y-95862D01*
G02X111130Y-96138I-280J-277D01*
G01Y-126980D01*
G02X111016Y-127256I-394J2D01*
G01X102256Y-136016D01*
G02X101980Y-136130I-277J280D01*
G01X93768D01*
G03X93528Y-136213I1J-393D01*
G01X93146Y-136504D01*
G03X93008Y-136705I240J-312D01*
G01X92996Y-136744D01*
X92992Y-136752D01*
G02X92843Y-136941I-369J138D01*
G01X92803Y-136969D01*
X92693Y-137000D01*
X87492D01*
G02X87161Y-136815I3J393D01*
G01X86839Y-136311D01*
G03X86508Y-136130I-331J-212D01*
G01X84752D01*
G03X84386Y-136378I0J-394D01*
G01X84236Y-136752D01*
G02X83870Y-137000I-366J146D01*
G01X76220D01*
G02X75945Y-136886I2J394D01*
G01X75858Y-136799D01*
G02X75744Y-136524I279J277D01*
G03X75350Y-136130I-394J0D01*
G01X72626D01*
G02X72350Y-136016I2J394D01*
G01X66083Y-129748D01*
G03X65807Y-129634I-277J-280D01*
G01X50996D01*
G03X50677Y-129795I-1J-394D01*
G01X50303Y-130307D01*
G03X50244Y-130654I317J-232D01*
G01Y-130657D01*
G02X48878Y-132594I-1425J-445D01*
G01X48870D01*
G03X48614Y-132709I22J-393D01*
G01X41469Y-139854D01*
G02X41193Y-139969I-277J280D01*
G01X-17571D01*
G02X-17846Y-139854I2J394D01*
G01X-20177Y-137524D01*
G03X-20453Y-137409I-277J-280D01*
G01X-37059D01*
G02X-37335Y-137295I2J394D01*
G01X-40051Y-134579D01*
G02X-40165Y-134303I280J277D01*
G01Y-113925D01*
G02X-40051Y-113650I394J-2D01*
G01X-38508Y-112106D01*
G03X-38394Y-111831I-280J277D01*
G01Y-83020D01*
G02X-38280Y-82744I394J-2D01*
G01X-23319Y-67780D01*
G03X-23209Y-67457I-280J276D01*
G01X-23291Y-66748D01*
X-23386Y-66598D01*
X-23469Y-66551D01*
G02X-22878Y-63795I773J1276D01*
G03X-22642Y-63681I-43J391D01*
G01X-16165Y-57201D01*
G03X-16051Y-56925I-280J277D01*
G01Y-40654D01*
G02X-15937Y-40378I394J-2D01*
G01X-7693Y-32134D01*
G02X-7417Y-32020I277J-280D01*
G01X3402D01*
G03X3677Y-31906I-2J394D01*
G01X4669Y-30913D01*
G02X4945Y-30799I277J-280D01*
G01X12138D01*
X12295Y-30720D01*
X12354Y-30646D01*
G02X13248Y-30209I894J-695D01*
G01X14311D01*
G02X15441Y-31339I0J-1130D01*
G01Y-32051D01*
X15469Y-32079D01*
X19496D01*
G02X19890Y-32472I0J-394D01*
G01Y-40756D01*
G02X19496Y-41150I-394J0D01*
G01X16134D01*
X15933Y-40949D01*
X15736D01*
G03X15417Y-41114I2J-394D01*
G02X14409Y-41642I-1009J701D01*
G01X13150D01*
G02X12055Y-40972I-1J1229D01*
G03X11705Y-40756I-352J-177D01*
G01X7878D01*
X7693Y-40866D01*
X7642Y-40965D01*
G02X6555Y-41622I-1087J571D01*
G01X5256D01*
G02X4500Y-41362I0J1228D01*
G01X4445Y-41319D01*
X4327Y-41280D01*
X3941D01*
X3823Y-41319D01*
X3768Y-41362D01*
G02X3012Y-41622I-756J969D01*
G01X1713D01*
G02X626Y-40965I1J1228D01*
G01X575Y-40866D01*
X390Y-40756D01*
X-8878D01*
G03X-9154Y-40870I2J-394D01*
G01X-10705Y-42421D01*
G03X-10819Y-42697I280J-277D01*
G01Y-55925D01*
G03X-10705Y-56201I394J2D01*
G01X-8169Y-58736D01*
G03X-7894Y-58850I277J280D01*
G01X-4524D01*
G03X-4189Y-58669I3J394D01*
G01X-3831Y-58110D01*
G03X-3803Y-57740I-332J211D01*
G01Y-57736D01*
G02X-3945Y-57087I1435J653D01*
G01Y-55118D01*
G02X-2362Y-53535I1583J0D01*
G01X2756D01*
G02X4189Y-54445I0J-1584D01*
G03X4386Y-54638I356J167D01*
G01X4854Y-54846D01*
G03X5122Y-54866I161J359D01*
G01X5126D01*
G02X5472Y-54815I351J-1177D01*
G01X6732D01*
G02X6882Y-54823I10J-1229D01*
G01X6969Y-54835D01*
X7126Y-54787D01*
X7634Y-54339D01*
G03X7768Y-54043I-260J296D01*
G01Y-48516D01*
G03X7634Y-48220I-394J0D01*
G01X7126Y-47772D01*
X6969Y-47724D01*
X6882Y-47736D01*
G02X6732Y-47744I-139J1221D01*
G01X5469D01*
G02X5071Y-47677I2J1229D01*
G01X5004Y-47654D01*
X4870D01*
X4335Y-47854D01*
G03X4130Y-48031I140J-368D01*
G02X2756Y-48827I-1374J789D01*
G01X-2362D01*
G02X-3945Y-47244I0J1583D01*
G01Y-45276D01*
G02X-2362Y-43693I1583J0D01*
G01X2756D01*
G02X3823Y-44110I-3J-1580D01*
G03X3831Y-44118I282J274D01*
G03X4059Y-44217I262J294D01*
G01X4551Y-44252D01*
G03X4791Y-44197I36J392D01*
G01X4795Y-44193D01*
G02X5472Y-43988I679J-1023D01*
G01X6732D01*
G02X7862Y-44732I1J-1229D01*
G03X8224Y-44972I363J154D01*
G01X8366D01*
G02X8642Y-45087I-2J-394D01*
G01X9441Y-45886D01*
G02X9555Y-46161I-280J-277D01*
G01Y-56949D01*
G03X9669Y-57224I394J2D01*
G01X12827Y-60382D01*
G03X13256Y-60465I276J280D01*
G01X13366Y-60421D01*
X13496Y-60224D01*
Y-59980D01*
G02X14724Y-58752I1228J0D01*
G01X15984D01*
G02X17213Y-59980I0J-1228D01*
G01Y-60791D01*
G03X17327Y-61067I394J2D01*
G01X17354Y-61094D01*
X17496Y-61154D01*
X17642D01*
X17669Y-61150D01*
G02X17854Y-61134I196J-1212D01*
G01X19154D01*
G02X19354Y-61150I5J-1229D01*
G01X19358D01*
G03X19673Y-61059I59J389D01*
G01X20130Y-60673D01*
G03X20268Y-60374I-256J299D01*
G01Y-60173D01*
X20244Y-60106D01*
G02X20169Y-59685I1153J422D01*
G01Y-58425D01*
G02X20244Y-58004I1228J-1D01*
G01X20268Y-57937D01*
Y-56598D01*
X20248Y-56539D01*
G02X20189Y-56161I1169J376D01*
G01Y-54862D01*
G02X20449Y-54106I1228J0D01*
G01X20492Y-54051D01*
X20531Y-53933D01*
Y-53547D01*
X20492Y-53429D01*
X20449Y-53374D01*
G02X20189Y-52618I969J756D01*
G01Y-51319D01*
G37*
G54D46*
X95598Y-86268D03*
Y-143772D03*
X-24402D03*
%LPD*%
G75*
G36*
G01X-21102Y-135425D02*
X-36236D01*
G02X-36516Y-135311I-2J394D01*
G01X-38067Y-133760D01*
G02X-38181Y-133480I280J277D01*
G01Y-114748D01*
G02X-38067Y-114469I394J2D01*
G01X-37280Y-113681D01*
G02X-37004Y-113567I277J-280D01*
G01X-36374Y-113559D01*
X-36232Y-113618D01*
X-36173Y-113673D01*
G03X-33646Y-112547I1036J1074D01*
G01X-33650Y-112465D01*
X-33591Y-112315D01*
X-33394Y-112118D01*
X-33390D01*
X-33059Y-111787D01*
G02X-32630Y-111705I276J-280D01*
G01X-32520Y-111748D01*
X-32390Y-111945D01*
Y-115020D01*
G02X-32504Y-115295I-394J2D01*
G01X-33524Y-116315D01*
G02X-33799Y-116429I-277J280D01*
G01X-33854D01*
G03X-33957Y-118343I-1193J-896D01*
G02X-33669Y-118217I289J-267D01*
G01X-32957D01*
G02X-32591Y-118461I2J-394D01*
G01X-32547Y-118571D01*
X-32594Y-118799D01*
X-34764Y-120972D01*
X-34913Y-121031D01*
X-34996Y-121028D01*
G03X-33555Y-122469I-51J-1492D01*
G01X-33559Y-122386D01*
X-33500Y-122236D01*
X-29535Y-118272D01*
G03X-29421Y-117996I-280J277D01*
G01Y-90854D01*
G02X-29295Y-90563I394J2D01*
G01X-28803Y-90114D01*
X-28654Y-90063D01*
X-28567Y-90071D01*
G03X-27268Y-89500I121J1488D01*
G01X-27220Y-89441D01*
X-27102Y-89370D01*
X-26441Y-89248D01*
X-26303Y-89272D01*
X-26240Y-89311D01*
G03X-25256Y-89720I1842J3041D01*
G01X-25154Y-89744D01*
X-25000Y-89890D01*
X-24787Y-90657D01*
G02X-24890Y-91039I-380J-103D01*
G01X-24894Y-91043D01*
G03X-25008Y-91323I280J-277D01*
G01Y-130528D01*
G03X-24894Y-130807I394J-2D01*
G01X-20945Y-134756D01*
G02X-20858Y-135185I-278J-279D01*
G01X-20906Y-135295D01*
X-21102Y-135425D01*
G37*
G36*
G01X-17827Y-82500D02*
X-17862Y-82402D01*
G03X-18256Y-81783I-1416J-468D01*
G02X-18382Y-81496I267J289D01*
G01Y-76240D01*
G02X-18268Y-75965I394J-2D01*
G01X-10831Y-68528D01*
G02X-10555Y-68413I277J-280D01*
G01X-933D01*
G02X-657Y-68528I-2J-394D01*
G01X709Y-69894D01*
G02X791Y-70323I-280J-276D01*
G01X748Y-70433D01*
X551Y-70563D01*
X-1673D01*
G03X-2220Y-70697I0J-1186D01*
G01X-2264Y-70717D01*
X-2350Y-70740D01*
X-2575D01*
X-2752Y-70638D01*
X-2807Y-70547D01*
G03X-3780Y-69992I-972J-574D01*
G01X-4882D01*
G03X-6012Y-71122I0J-1130D01*
G01Y-72000D01*
G02X-6126Y-72276I-394J2D01*
G01X-9661Y-75811D01*
G02X-10220I-280J276D01*
G01X-10437Y-75594D01*
X-10465Y-75535D01*
G03X-12457Y-77528I-1346J-646D01*
G01X-12398Y-77555D01*
X-12181Y-77772D01*
G02Y-78331I-276J-280D01*
G01X-16559Y-82709D01*
G02X-16925Y-82811I-276J280D01*
G01X-17681Y-82634D01*
X-17827Y-82500D01*
G37*
G36*
G01X40370Y-137984D02*
X-7909D01*
G02X-8276Y-137740I-2J394D01*
G01X-8319Y-137630D01*
X-8276Y-137402D01*
X-6996Y-136122D01*
G03X-6882Y-135843I-280J277D01*
G01Y-134496D01*
X-6831Y-134366D01*
X-6783Y-134307D01*
G03X-6681Y-134047I-291J265D01*
G01Y-132524D01*
G03X-6685Y-132457I-395J10D01*
G01X-6693Y-132421D01*
Y-132390D01*
G02X-6299Y-131996I394J0D01*
G01X45504D01*
X45571Y-132020D01*
G03X45650Y-132043I468J1417D01*
G01X45697Y-132059D01*
X45783Y-132106D01*
X45819Y-132142D01*
G02Y-132701I-279J-280D01*
G01X40650Y-137870D01*
G02X40370Y-137984I-277J280D01*
G37*
G36*
G01X-6882Y-128831D02*
Y-115909D01*
G03X-6996Y-115630I-394J2D01*
G01X-7161Y-115465D01*
G02X-7276Y-115189I279J277D01*
G01Y-115173D01*
X-8736Y-113713D01*
G02X-8850Y-113437I279J277D01*
G01Y-99272D01*
X-8909Y-99130D01*
X-8929Y-99110D01*
Y-97193D01*
G02X-8815Y-96917I394J-2D01*
G01X-8575Y-96677D01*
G02X-8299Y-96563I277J-279D01*
G01X-7343D01*
G03X-6610Y-96295I0J1135D01*
G01X-6555Y-96248D01*
X-6429Y-96201D01*
X-5776D01*
X-5650Y-96248D01*
X-5594Y-96295D01*
G03X-4862Y-96563I732J868D01*
G01X-3799D01*
G03X-2669Y-95433I0J1130D01*
G01Y-95370D01*
G02X-2539Y-95079I394J-1D01*
G01X-2039Y-94630D01*
X-1882Y-94579D01*
X-1799Y-94587D01*
G03X-1752Y-94591I122J1182D01*
G01X-1492Y-94870D01*
G02X-1386Y-95142I-288J-269D01*
G01Y-121764D01*
G03X-1272Y-122039I394J2D01*
G01X5244Y-128555D01*
G02X5327Y-128984I-280J-276D01*
G01X5283Y-129094D01*
X5087Y-129224D01*
X-6488D01*
G02X-6882Y-128831I0J394D01*
G37*
G36*
G01X4713Y-111717D02*
X4799Y-111724D01*
G03X6413Y-110185I122J1488D01*
G01X6409Y-110102D01*
X6469Y-109953D01*
X7295Y-109126D01*
G02X7724Y-109043I276J-280D01*
G01X7835Y-109087D01*
X7965Y-109283D01*
Y-121913D01*
G02X7720Y-122280I-394J-2D01*
G01X7610Y-122323D01*
X7382Y-122276D01*
X4059Y-118957D01*
G02X3945Y-118681I280J277D01*
G01Y-112508D01*
G02X4071Y-112217I394J2D01*
G01X4563Y-111768D01*
X4713Y-111717D01*
G37*
G36*
G01X13642Y-121827D02*
X11047Y-119232D01*
G02X10933Y-118957I280J277D01*
G01Y-107028D01*
G02X11047Y-106752I394J-2D01*
G01X11409Y-106390D01*
G03X11524Y-106114I-280J277D01*
G01Y-104268D01*
G02X11638Y-103992I394J-2D01*
G01X12213Y-103417D01*
G02X12642Y-103335I276J-280D01*
G01X12752Y-103378D01*
X12882Y-103575D01*
Y-104882D01*
G03X14421Y-106406I1535J11D01*
G01X17862D01*
G03X19402Y-104882I5J1535D01*
G01Y-104791D01*
G02X19587Y-104457I394J1D01*
G01X20244Y-104047D01*
X20441Y-104039D01*
X20535Y-104083D01*
G03X21209Y-104240I677J1376D01*
G01X23280D01*
G03X24299Y-103850I-2J1534D01*
G02X24563Y-103748I265J-291D01*
G01X25043D01*
G02X25307Y-103850I-1J-394D01*
G03X26327Y-104240I1022J1144D01*
G01X26441D01*
G02X26720Y-104354I2J-394D01*
G01X28453Y-106091D01*
G03X28732Y-106205I278J280D01*
G01X29201D01*
G02X29437Y-106280I5J-394D01*
G03X29866Y-106512I1053J1433D01*
G01X29945Y-106543D01*
X30382Y-106980D01*
G03X30657Y-107094I277J280D01*
G01X31059D01*
G02X31335Y-107209I-2J-394D01*
G01X31358Y-107232D01*
X31500Y-107291D01*
X38213D01*
G03X38488Y-107177I-2J394D01*
G01X38965Y-106701D01*
X39020D01*
X40661Y-105059D01*
G02X41091Y-104976I276J-280D01*
G01X41201Y-105020D01*
X41331Y-105217D01*
Y-112602D01*
G02X41217Y-112878I-394J2D01*
G01X37287Y-116807D01*
G02X37012Y-116921I-277J279D01*
G01X19878D01*
G02X19602Y-116807I2J394D01*
G01X18646Y-115850D01*
X18587Y-115681D01*
X18598Y-115591D01*
G03X18610Y-115402I-1522J190D01*
G01Y-113339D01*
G03X18575Y-113004I-1534J7D01*
G02X18587Y-112780I383J92D01*
G01X18665Y-112571D01*
G02X18795Y-112390I372J-130D01*
G03X19402Y-111181I-928J1222D01*
G01Y-109291D01*
G03X17862Y-107768I-1535J-11D01*
G01X14421D01*
G03X12882Y-109291I-5J-1535D01*
G01Y-111181D01*
G03X13488Y-112390I1534J13D01*
G02X13618Y-112571I-242J-311D01*
G01X13697Y-112780D01*
G02X13709Y-113004I-371J-132D01*
G03X13673Y-113339I1498J-328D01*
G01Y-115402D01*
G03X14063Y-116425I1534J-2D01*
G02X14165Y-116689I-291J-265D01*
G01Y-116799D01*
G03X14280Y-117075I394J2D01*
G01X17965Y-120760D01*
G03X18240Y-120874I277J280D01*
G01X38650D01*
G03X38925Y-120760I-2J394D01*
G01X45169Y-114516D01*
G03X45283Y-114240I-280J277D01*
G01Y-104528D01*
G03X42984Y-102579I-1976J0D01*
G01X42953Y-102583D01*
X42921D01*
G02X42528Y-102189I0J394D01*
G01Y-101780D01*
G02X42921Y-101386I394J0D01*
G01X44984D01*
G02X45260Y-101500I-2J-394D01*
G01X46728Y-102969D01*
G02X46843Y-103244I-279J-277D01*
G01Y-116260D01*
G02X46728Y-116539I-394J-2D01*
G01X44988Y-118280D01*
G03X44874Y-118555I279J-277D01*
G01Y-119996D01*
X44843Y-120106D01*
X44811Y-120154D01*
G03X44575Y-121087I1251J-813D01*
G01X44583Y-121173D01*
X44531Y-121323D01*
X44083Y-121815D01*
G02X43791Y-121941I-289J268D01*
G01X13917D01*
G02X13642Y-121827I2J394D01*
G37*
G36*
G01X8583Y-37083D02*
X7898Y-36398D01*
G02X7783Y-36118I280J277D01*
G01Y-35197D01*
G03X6555Y-33969I-1228J0D01*
G01X5650D01*
G02X5283Y-33724I-2J394D01*
G01X5240Y-33614D01*
X5283Y-33386D01*
X5571Y-33094D01*
G02X5850Y-32980I278J-280D01*
G01X12138D01*
X12295Y-33059D01*
X12354Y-33134D01*
G03X12390Y-33177I892J694D01*
G01X12441Y-33236D01*
X12488Y-33382D01*
X12441Y-34087D01*
X12374Y-34224D01*
X12315Y-34280D01*
G03X11902Y-35197I815J-919D01*
G01Y-36457D01*
Y-36484D01*
X11906Y-36567D01*
X11843Y-36713D01*
X11476Y-37083D01*
G02X11197Y-37197I-277J280D01*
G01X8862D01*
G02X8583Y-37083I-2J394D01*
G37*
G36*
G01X33323Y-102945D02*
Y-102906D01*
X33331Y-102866D01*
G03X33354Y-102618I-1205J240D01*
G01Y-101319D01*
G03X33303Y-100972I-1228J-4D01*
G01X33287Y-100909D01*
X33291Y-100783D01*
X33303Y-100752D01*
G03X33327Y-100614I-371J134D01*
G01Y-100457D01*
X33555Y-100228D01*
X33783D01*
X33839Y-100244D01*
G03X34213Y-100303I376J1169D01*
G01X35472D01*
G03X36602Y-99559I1J1229D01*
G01X36650Y-99445D01*
X36843Y-99319D01*
X38181D01*
G02X38575Y-99713I0J-394D01*
G01Y-101394D01*
G02X38461Y-101669I-394J2D01*
G01X37382Y-102748D01*
X37327D01*
X36850Y-103224D01*
G02X36575Y-103339I-277J279D01*
G01X33717D01*
G02X33323Y-102945I0J394D01*
G37*
G36*
G01X36205Y-83736D02*
X34728Y-82260D01*
X34677Y-82055D01*
X34709Y-81949D01*
G03X34752Y-81634I-1087J310D01*
G01Y-80571D01*
G03X34484Y-79839I-1135J0D01*
G01X34437Y-79783D01*
X34390Y-79657D01*
Y-79004D01*
X34437Y-78878D01*
X34484Y-78823D01*
G03X34752Y-78091I-868J732D01*
G01Y-77028D01*
Y-76961D01*
X34744Y-76874D01*
X34803Y-76720D01*
X35024Y-76500D01*
G02X35303Y-76386I277J-280D01*
G01X39106D01*
G02X39386Y-76500I2J-394D01*
G01X41780Y-78894D01*
X41831Y-78992D01*
X41843Y-79051D01*
G03X42606Y-80079I1464J291D01*
G01X42705Y-80130D01*
X42815Y-80315D01*
Y-80591D01*
X42587Y-80819D01*
X42531D01*
X39618Y-83736D01*
G02X39339Y-83850I-277J280D01*
G01X36484D01*
G02X36205Y-83736I-2J394D01*
G37*
G36*
G01X44748Y-75567D02*
X41701Y-72520D01*
G02Y-71965I279J278D01*
G01X43102Y-70563D01*
G03X43217Y-70287I-280J277D01*
G01Y-66547D01*
G02X43445Y-66189I394J1D01*
G01X44197Y-65839D01*
X44421Y-65866D01*
X44508Y-65941D01*
G03X45618Y-66346I1113J1325D01*
G01X48083D01*
G03X49811Y-64614I-2J1730D01*
G01Y-61370D01*
G03X48791Y-59791I-1730J1D01*
G01X48717Y-59756D01*
X48606Y-59638D01*
X48362Y-58949D01*
X48374Y-58791D01*
X48409Y-58717D01*
G03X48531Y-58209I-1007J511D01*
G01Y-57146D01*
G03X47402Y-56016I-1130J0D01*
G01X46299D01*
G03X45169Y-57146I0J-1130D01*
G01Y-58209D01*
G03X45291Y-58717I1129J3D01*
G01X45327Y-58791D01*
X45339Y-58949D01*
X45094Y-59638D01*
X44984Y-59756D01*
X44909Y-59791D01*
G03X43890Y-61370I710J-1577D01*
G01Y-61705D01*
G02X43496Y-62098I-394J0D01*
G01X43484D01*
G03X43209Y-62213I2J-394D01*
G01X41543Y-63878D01*
G03X41429Y-64154I280J-277D01*
G01Y-69547D01*
G02X41315Y-69823I-394J2D01*
G01X40492Y-70646D01*
G02X40217Y-70760I-277J280D01*
G01X33563D01*
G02X33276Y-70634I1J394D01*
G01X32827Y-70146D01*
X32772Y-69996D01*
X32780Y-69909D01*
G03X32783Y-69823I-1126J95D01*
G01Y-68760D01*
G03X32681Y-68295I-1129J-5D01*
G01X32630Y-68177D01*
X32673Y-67941D01*
X45768Y-54846D01*
G02X46047Y-54732I277J-280D01*
G01X54346D01*
G02X54626Y-54846I2J-394D01*
G01X56965Y-57185D01*
G02X57079Y-57465I-280J-277D01*
G01Y-68134D01*
G02X56886Y-68472I-394J0D01*
G01X56213Y-68870D01*
X56008Y-68874D01*
X55913Y-68823D01*
G03X55091Y-68614I-824J-1522D01*
G01X52626D01*
G03X50898Y-70346I2J-1730D01*
G01Y-73504D01*
G02X50783Y-73780I-394J2D01*
G01X49764Y-74799D01*
G02X49488Y-74913I-277J280D01*
G01X48858D01*
G03X47878Y-75484I0J-1127D01*
G01X47823Y-75575D01*
X47642Y-75681D01*
X45024D01*
G02X44748Y-75567I2J394D01*
G37*
G36*
G01X73209Y-125980D02*
X69283Y-122055D01*
G03X69008Y-121941I-277J-280D01*
G01X54984D01*
X54980Y-121937D01*
X50988D01*
G02X50669Y-121776I-1J394D01*
G01X50240Y-121181D01*
X50209Y-121004D01*
X50240Y-120909D01*
G03X50291Y-120209I-1421J456D01*
G01X50276Y-120114D01*
X50335Y-119937D01*
X51272Y-119000D01*
G03X51386Y-118720I-280J277D01*
G01Y-107776D01*
G02X51492Y-107508I393J-1D01*
G03X51740Y-105858I-1099J1009D01*
G01X51697Y-105764D01*
X51709Y-105563D01*
X52122Y-104917D01*
G02X52453Y-104732I333J-208D01*
G01X70976D01*
G03X71252Y-104618I-2J394D01*
G01X71291Y-104579D01*
X71425Y-104520D01*
X72134Y-104508D01*
X72272Y-104559D01*
X72331Y-104614D01*
G03X73374Y-105028I1047J1120D01*
G01X75445D01*
G03X76618Y-104480I-1J1534D01*
G02X76921Y-104339I302J-252D01*
G01X77787D01*
X77854Y-104362D01*
G03X78295Y-104437I441J1262D01*
G01X80366D01*
G03X81701Y-103102I-2J1337D01*
G01Y-101622D01*
G03X80366Y-100287I-1337J-2D01*
G01X78295D01*
G03X77854Y-100362I0J-1337D01*
G01X77787Y-100386D01*
X76409D01*
X76307Y-100358D01*
X76260Y-100327D01*
G03X75445Y-100091I-818J-1297D01*
G01X73374D01*
G03X72894Y-100169I5J-1533D01*
G01X72831Y-100189D01*
X70252D01*
G03X69976Y-100303I2J-394D01*
G01X69614Y-100665D01*
G02X69339Y-100780I-277J279D01*
G01X50291D01*
G02X50016Y-100665I2J394D01*
G01X48059Y-98709D01*
G02X47976Y-98280I280J276D01*
G01X48020Y-98169D01*
X48217Y-98039D01*
X79677D01*
G02X79953Y-98154I-2J-394D01*
G01X81118Y-99319D01*
X81126D01*
X87575Y-105768D01*
G02X87689Y-106043I-280J-277D01*
G01Y-121555D01*
G02X87575Y-121831I-394J2D01*
G01X86457Y-122949D01*
X86441D01*
X85835Y-123555D01*
X85685Y-123614D01*
X85602Y-123610D01*
G03X84067Y-125236I-50J-1491D01*
G01X84071Y-125319D01*
X84020Y-125476D01*
X83571Y-125965D01*
G02X83280Y-126094I-292J263D01*
G01X73484D01*
G02X73209Y-125980I2J394D01*
G37*
G36*
G01X51039Y-77457D02*
X51059Y-77370D01*
G03X51091Y-77106I-1098J265D01*
G01Y-76161D01*
G02X51205Y-75886I394J-2D01*
G01X51819Y-75272D01*
X52028Y-75220D01*
X52134Y-75252D01*
G03X52626Y-75323I490J1660D01*
G01X55091D01*
G03X55913Y-75114I-1J1730D01*
G01X56008Y-75063D01*
X56213Y-75067D01*
X56886Y-75465D01*
G02X57079Y-75803I-201J-339D01*
G01Y-76000D01*
G02X56965Y-76280I-394J-2D01*
G01X55020Y-78224D01*
G02X54740Y-78339I-277J280D01*
G01X51827D01*
G02X51516Y-78189I-2J394D01*
G01X51075Y-77630D01*
X51039Y-77457D01*
G37*
G36*
G01X97634Y-131059D02*
X97185Y-130551D01*
X97138Y-130394D01*
X97150Y-130307D01*
G03X94579Y-129098I-1480J190D01*
G02X94291Y-129224I-289J267D01*
G01X91280D01*
G02X91004Y-129110I2J394D01*
G01X88102Y-126209D01*
G03X87827Y-126094I-277J-280D01*
G01X87823D01*
G02X87531Y-125965I1J393D01*
G01X87083Y-125476D01*
X87031Y-125319D01*
X87035Y-125236D01*
G03X87043Y-125063I-1483J154D01*
G01X87039Y-124980D01*
X87098Y-124835D01*
X89362Y-122571D01*
G03X89476Y-122295I-280J277D01*
G01Y-105303D01*
G03X89362Y-105028I-394J-2D01*
G01X86681Y-102346D01*
G02X86567Y-102043I279J278D01*
G01X86606Y-101370D01*
X86681Y-101224D01*
X86752Y-101173D01*
G03X85776Y-98508I-924J1173D01*
G01X85693Y-98512D01*
X85543Y-98453D01*
X83437Y-96346D01*
G02X83354Y-95917I280J276D01*
G01X83398Y-95807D01*
X83594Y-95677D01*
X84705D01*
G02X84980Y-95791I-2J-394D01*
G01X94661Y-105472D01*
G02X94776Y-105748I-280J-277D01*
G01Y-108843D01*
G02X94650Y-109130I-393J1D01*
G03X95858Y-111701I1019J-1090D01*
G01X95945Y-111689D01*
X96102Y-111736D01*
X96610Y-112185D01*
G02X96744Y-112480I-260J-296D01*
G01Y-112854D01*
G02X96630Y-113130I-394J2D01*
G01X95953Y-113807D01*
X95803Y-113866D01*
X95720Y-113862D01*
G03X95469Y-116835I-51J-1493D01*
G01X95583Y-116846D01*
X95752Y-116988D01*
X96016Y-117764D01*
G02X95921Y-118169I-373J-127D01*
G01X95559Y-118531D01*
X95409Y-118591D01*
X95327Y-118587D01*
G03X94567Y-121394I-53J-1492D01*
G01X94665Y-121445D01*
X94776Y-121630D01*
Y-124016D01*
G02X94650Y-124303I-393J1D01*
G03X96689I1020J-1091D01*
G02X96563Y-124016I267J289D01*
G01Y-122972D01*
G02X96677Y-122697I394J-2D01*
G01X100780Y-118594D01*
G03X100894Y-118319I-280J277D01*
G01Y-117654D01*
G02X101138Y-117287I394J2D01*
G01X101248Y-117244D01*
X101476Y-117291D01*
X103768Y-119579D01*
X103827Y-119728D01*
X103823Y-119811D01*
G03X105890Y-121240I1492J-52D01*
G01X105984Y-121201D01*
X106177Y-121220D01*
X106803Y-121638D01*
G02X106980Y-121965I-216J-329D01*
G01Y-124555D01*
G02X106866Y-124831I-394J2D01*
G01X100618Y-131079D01*
G02X100343Y-131193I-277J280D01*
G01X97929D01*
G02X97634Y-131059I1J394D01*
G37*
%LPC*%
G75*
G36*
G01X86614Y-112925D02*
X85760Y-113780D01*
G02X85480Y-113894I-277J280D01*
G01X78299D01*
G02X78020Y-113780I-2J394D01*
G01X77165Y-112925D01*
G02X77051Y-112646I280J277D01*
G01Y-109098D01*
X77031Y-109039D01*
G02X76961Y-108614I1265J429D01*
G01Y-107134D01*
G02X78008Y-105831I1337J-2D01*
G01X78122Y-105807D01*
X78138Y-105791D01*
X85480D01*
G02X85760Y-105906I2J-394D01*
G01X86614Y-106760D01*
G02X86728Y-107039I-280J-277D01*
G01Y-112646D01*
G02X86614Y-112925I-394J-2D01*
G37*
G54D47*
X-35433Y-127520D03*
X-35039Y-133071D03*
%LPD*%
G75*
G36*
G01X77673Y-106972D02*
X78232Y-106413D01*
G02X78508Y-106299I277J-280D01*
G01X85272D01*
G02X85547Y-106413I-2J-394D01*
G01X86106Y-106972D01*
G02X86220Y-107248I-280J-277D01*
G01Y-112437D01*
G02X86106Y-112713I-394J2D01*
G01X85547Y-113272D01*
G02X85272Y-113386I-277J280D01*
G01X78508D01*
G02X78232Y-113272I2J394D01*
G01X77673Y-112713D01*
G02X77559Y-112437I280J277D01*
G01Y-107248D01*
G02X77673Y-106972I394J-2D01*
G37*
G54D10*
X-37795Y-149606D03*
X-38189Y-19291D03*
X108661Y-149606D03*
G54D11*
G01X36614Y-39764D02*
X40551D01*
G01X32382D02*
X36614D01*
G01X40551D02*
X48402D01*
X63976Y-55339D01*
Y-79055D01*
X60630Y-82402D01*
X43189D01*
X40551Y-85039D01*
X-29055Y-143917D03*
X-29921Y-140157D03*
X-31102Y-152362D03*
X-35433Y-127520D03*
X-35039Y-133071D03*
X-41732Y-136024D03*
X-35047Y-107480D03*
Y-122520D03*
Y-117323D03*
X-35138Y-112598D03*
X-41929Y-110433D03*
Y-120472D03*
Y-97244D03*
X-28445Y-88583D03*
X-38583Y-77067D03*
X-42126Y-89370D03*
X-33661Y-69291D03*
X-34449Y-56496D03*
X-30512Y-61614D03*
X-38583Y-63681D03*
X-32480Y-44685D03*
X-38583Y-50295D03*
X-31890Y-32677D03*
X-38583Y-26969D03*
Y-36909D03*
X-36614Y-7874D03*
X-28740Y-22441D03*
X-42323Y-13189D03*
X-30315Y-2756D03*
X-35827Y1575D03*
X-19094Y-140551D03*
X-18902Y-143965D03*
X-11811Y-143130D03*
X-20669Y-152953D03*
X-13756Y-127559D03*
Y-132677D03*
X-11024Y-134646D03*
X-11811Y-125197D03*
Y-129921D03*
X-24803Y-138976D03*
X-13756Y-122520D03*
Y-117520D03*
X-12795Y-102520D03*
X-19276Y-82874D03*
X-11811Y-76181D03*
X-16732Y-80118D03*
X-22697Y-65276D03*
X-20079Y-46654D03*
X-24409Y-40354D03*
Y-52264D03*
X-18307Y-29921D03*
X-12520Y-33858D03*
X-25394Y-28740D03*
X-22835Y-7480D03*
X-14370Y-22244D03*
X-20669Y-16732D03*
X-12795Y-13189D03*
X-25984Y-13386D03*
X-16142Y-3937D03*
X-22441Y1575D03*
X-10630D03*
X4331Y-143110D03*
X-5906Y-151969D03*
X1575Y-127854D03*
X-2756Y-135039D03*
X-5118Y-126772D03*
X4921Y-110236D03*
Y-107480D03*
X5906Y-116142D03*
X-5520Y-114563D03*
X5512Y-90551D03*
X-4331Y-100598D03*
X-7874D03*
X-4331Y-106201D03*
X5512Y-78740D03*
Y-74803D03*
Y-86614D03*
Y-82677D03*
X-10047Y-71654D03*
X3346Y-49803D03*
X-1575Y-51181D03*
X3358Y-52559D03*
X-8465Y-43898D03*
X-9252Y-54724D03*
X6496Y-27559D03*
X4331D03*
X-157Y-29563D03*
X1969Y-27953D03*
X-7087Y-27756D03*
X-5276Y-29563D03*
X2283Y-30433D03*
X-7874Y-20472D03*
X1181Y-20079D03*
X-9449Y-7874D03*
X-7874Y-11417D03*
X-5118Y-14567D03*
X-1181D03*
X2756Y-12598D03*
X2362Y1575D03*
X3150Y-4724D03*
X-394Y-2756D03*
X-4331D03*
X-7874Y-4331D03*
X21260Y-143701D03*
X9449Y-152953D03*
X11811Y-135039D03*
X21063Y-111220D03*
X15559Y-99409D03*
X21260Y-90551D03*
X17323D03*
X13386D03*
X9449D03*
X17323Y-78740D03*
X21260D03*
Y-74803D03*
X17323D03*
X9449Y-78740D03*
X13386D03*
Y-74803D03*
X9449D03*
X17323Y-86614D03*
X21260D03*
Y-82677D03*
X17323D03*
X9449Y-86614D03*
X13386D03*
Y-82677D03*
X9449D03*
X18504Y-57087D03*
X12205Y-57480D03*
X18563Y-63071D03*
X18898Y-45669D03*
X11417D03*
X11024Y-51181D03*
X14173Y-51575D03*
X15354Y-55118D03*
X16929Y-49606D03*
X18504Y-51969D03*
Y-54724D03*
X11417Y-48425D03*
Y-53937D03*
X14567Y-47244D03*
X10827Y-42362D03*
X16535Y-44882D03*
X15354Y-24409D03*
X16732Y-30709D03*
X13583Y-27559D03*
X11024D03*
X8858D03*
X22244Y-33661D03*
Y-35630D03*
Y-37598D03*
Y-39567D03*
X16535Y-28346D03*
X8465Y-33976D03*
X10630Y-19685D03*
X18110Y-20079D03*
X7087Y-12598D03*
X11024D03*
X14961D03*
X18110Y-15354D03*
X14173Y1575D03*
X22835Y1969D03*
X19291Y-4724D03*
X15354D03*
X11417D03*
X7480D03*
X35039Y-152559D03*
X29528Y-133858D03*
X34843Y-114764D03*
X35236Y-108268D03*
X25394Y-114173D03*
X30815Y-108071D03*
X27539Y-115402D03*
X29043Y-111413D03*
X26575Y-111425D03*
X23425Y-111220D03*
X37587Y-100984D03*
X39370Y-81890D03*
Y-78740D03*
X29528Y-66535D03*
X31496Y-60236D03*
X31890Y-57087D03*
X31516Y-63701D03*
X25197Y-57087D03*
Y-61024D03*
X39764Y-62992D03*
X37008Y-69291D03*
X37992Y-66142D03*
X37008Y-49606D03*
X25197Y-46063D03*
X36614Y-44882D03*
X31890Y-49606D03*
Y-46063D03*
Y-53150D03*
X34646Y-55512D03*
X25039Y-49193D03*
X25098Y-53150D03*
X35827Y-24016D03*
X26378D03*
X28150Y-39567D03*
X26181D03*
Y-37598D03*
X28150D03*
Y-35630D03*
X26181D03*
Y-33661D03*
X28150D03*
X24213D03*
Y-35630D03*
Y-37598D03*
Y-39567D03*
X35433Y-29528D03*
X38976Y-33268D03*
X38780Y-28937D03*
X38937Y-37008D03*
X31890Y-27559D03*
X28150D03*
X24803D03*
X34646Y-33071D03*
Y-36614D03*
X37008Y-17323D03*
X29528Y-21260D03*
Y-16929D03*
X29921Y-12598D03*
X25984D03*
X33858Y-12205D03*
X35827Y-8661D03*
X33465Y-5906D03*
Y-1969D03*
Y1969D03*
X25591Y-787D03*
Y-4724D03*
X55906Y-147638D03*
X42913Y-143307D03*
X48819Y-131102D03*
X46063Y-130610D03*
X43307Y-133465D03*
X54331Y-131890D03*
X50394Y-106496D03*
X48819Y-120453D03*
X46063Y-120965D03*
X40157Y-107677D03*
X51575Y-120079D03*
X42520Y-120866D03*
X43504Y-117717D03*
X40551Y-99508D03*
X53150Y-106299D03*
X51969Y-99213D03*
X43307Y-104528D03*
X46437Y-86516D03*
X40551Y-85039D03*
X53465Y-86417D03*
X49587Y-86437D03*
X55126Y-76575D03*
X43307Y-78760D03*
X52567Y-57677D03*
X42126Y-60630D03*
X44094Y-58268D03*
X55709Y-58752D03*
X55512Y-67323D03*
X48425Y-67717D03*
X47244Y-49213D03*
X56220Y-51339D03*
X52559Y-47677D03*
X49094Y-44213D03*
X44567Y-42402D03*
X55906Y-43425D03*
X52205Y-39724D03*
X40551Y-45669D03*
X49016Y-55709D03*
X43701Y-29134D03*
X51969Y-32480D03*
X43307Y-23819D03*
X48228Y-29331D03*
X47677Y-37126D03*
X43268Y-37047D03*
X55709Y-35630D03*
X54331Y-27165D03*
X49606Y-24213D03*
X43701Y-6299D03*
X50787Y-16732D03*
X43898Y-17717D03*
X54528Y-21260D03*
X54921Y-13583D03*
X45669Y-13189D03*
X55118Y-5906D03*
X46850Y-394D03*
X64961Y-140945D03*
X65000Y-134823D03*
X69685Y-108858D03*
X57874Y-113386D03*
X66142Y-120079D03*
X68701Y-99213D03*
X59508Y-78917D03*
X64961Y-84646D03*
X66929Y-80906D03*
X60669Y-69350D03*
X60610Y-62323D03*
X67992Y-62638D03*
X67402Y-70591D03*
X59685Y-47205D03*
X71063Y-47047D03*
X59173Y-54587D03*
X67874Y-54843D03*
X64961Y-43504D03*
Y-49213D03*
X71457Y-41535D03*
X60039Y-39173D03*
X73228Y-35433D03*
X71457Y-26772D03*
X68110Y-38583D03*
X68898Y-30709D03*
X59449Y-30118D03*
X60827Y-24213D03*
X63780Y-34055D03*
X64567Y-27756D03*
X69685Y-6299D03*
X60039Y-19488D03*
X71260Y-22047D03*
X64961Y-18110D03*
X71260Y-13386D03*
Y-17323D03*
X61803Y-14567D03*
X62598Y-394D03*
X81693Y-147047D03*
X75591Y-152953D03*
X85551Y-125102D03*
X85236Y-130039D03*
X82283Y-132087D03*
X81299Y-124409D03*
X82480Y-112008D03*
X84843D03*
X82480Y-109843D03*
X84843D03*
X82480Y-107677D03*
X84843D03*
X74016Y-120472D03*
X83465Y-118110D03*
X85827Y-100000D03*
X88583Y-84646D03*
X76772D03*
X81890Y-85335D03*
X88583Y-72835D03*
Y-61024D03*
X76772Y-72835D03*
Y-61024D03*
X75394Y-54724D03*
X88976Y-52756D03*
X88189Y-45669D03*
X83071Y-49803D03*
X81496Y-43504D03*
X76772Y-49213D03*
X79528Y-27559D03*
X85827Y-26575D03*
X75984Y-31299D03*
X80906Y-35236D03*
X87008Y-38583D03*
X77165Y-39567D03*
X85630Y-32283D03*
X85236Y-19094D03*
X76969Y-13583D03*
X77165Y-21654D03*
X89370Y-13386D03*
X83071Y-5906D03*
X76378Y-394D03*
X89370D03*
X101575Y-140748D03*
X94094Y-151575D03*
X101181Y-152362D03*
X102067Y-144882D03*
X95669Y-130118D03*
Y-125394D03*
X106299Y-134843D03*
X105709Y-110039D03*
X95276Y-120079D03*
X105315Y-119862D03*
X95669Y-115354D03*
Y-110220D03*
X105906Y-94882D03*
X106299Y-98031D03*
X95866Y-100417D03*
X100394Y-84646D03*
X101181Y-88701D03*
X105709Y-82480D03*
X91339Y-83071D03*
X100394Y-72835D03*
Y-61024D03*
X94488Y-40354D03*
X105118Y-52756D03*
X101181Y-39961D03*
X105709Y-46260D03*
X95669Y-47638D03*
X92126Y-23228D03*
X101181Y-23622D03*
X92520Y-33268D03*
X96260Y-28543D03*
X105906Y-27165D03*
X101378Y-33661D03*
X95669Y-6693D03*
X96260Y-18307D03*
X101378Y-13583D03*
X100787Y-787D03*
X112205Y-144685D03*
X112402Y-136024D03*
X112598Y-127362D03*
Y-115157D03*
Y-98031D03*
X112205Y-84646D03*
X111811Y-75984D03*
X112205Y-72835D03*
Y-61024D03*
X111811Y-63386D03*
X111024Y-40551D03*
X111811Y-52362D03*
X111417Y-30709D03*
X107283Y-35433D03*
X112402Y-23228D03*
X107087Y-6693D03*
Y-19291D03*
X112402Y-13386D03*
X112205Y-787D03*
G54D20*
X6102Y-49409D03*
Y-45866D03*
X15354Y-60630D03*
Y-57087D03*
X13780Y-43307D03*
Y-39764D03*
X34843Y-101969D03*
Y-98425D03*
X31496Y-101969D03*
Y-98425D03*
X25591Y-20079D03*
Y-16535D03*
X40551Y-43307D03*
Y-39764D03*
G54D30*
X22047Y-43799D03*
X18504D03*
Y-29429D03*
X22047D03*
X31890Y-43799D03*
X28346D03*
X25197D03*
Y-29429D03*
X28346D03*
X31890D03*
G54D21*
X2362Y-39764D03*
X5906D03*
X2362Y-35827D03*
X5906D03*
X10236D03*
X13780D03*
X28346Y-55512D03*
X31890D03*
X25984Y2165D03*
X29528D03*
G54D12*
X-24402Y-143772D03*
Y-86268D03*
X95598Y-143772D03*
Y-86268D03*
G54D40*
G01X-8268Y-130764D02*
Y-135433D01*
X-10039Y-137205D01*
X-16535D01*
X-23622Y-130118D01*
Y-91732D01*
X-9941Y-78051D01*
G01D02*
X-11811Y-76181D01*
G01X-8268Y-130764D02*
Y-116319D01*
X-8661Y-115925D01*
Y-115748D01*
X-10236Y-114173D01*
Y-99764D01*
X-10315Y-99685D01*
Y-96457D01*
X-8740Y-94882D01*
G01X46063Y-130610D02*
X-8114D01*
X-8268Y-130764D01*
G01X-9941Y-78051D02*
X-4528Y-72638D01*
Y-71850D01*
G01X22047Y-45669D02*
Y-43799D01*
G01D02*
Y-43307D01*
G01Y-29429D02*
Y-29528D01*
G01Y-29429D02*
Y-27165D01*
G01X28346Y-43799D02*
Y-43701D01*
G01Y-43799D02*
Y-46063D01*
G54D31*
X13780Y-28740D03*
Y-31890D03*
G54D22*
X-2756Y-11811D03*
G54D13*
X-4331Y-98031D03*
Y-94882D03*
X-7874Y-98031D03*
Y-94882D03*
X36614Y-42913D03*
Y-39764D03*
G54D41*
G01X1772Y-8661D02*
X18504D01*
G01X27362Y-101772D02*
Y-101575D01*
G01X22047Y-59055D02*
Y-55512D01*
G01Y-59055D02*
Y-62992D01*
G01Y-48031D02*
Y-45669D01*
G01Y-51969D02*
Y-48031D01*
G01Y-27165D02*
Y-24409D01*
G01D02*
Y-20079D01*
G01Y-16535D02*
Y-12598D01*
G01D02*
Y-8661D01*
G01X25591Y-16535D02*
X22047D01*
G01X25591Y-20079D02*
X22047D01*
G01X31496Y-101969D02*
Y-104394D01*
G01X27362Y-101772D02*
Y-102480D01*
X29307Y-104425D01*
X30067D01*
X30488Y-104846D01*
G01X28346Y-59055D02*
Y-55512D01*
G01Y-62598D02*
Y-63386D01*
X25984Y-65748D01*
G01X28346Y-46063D02*
Y-48031D01*
G01Y-51575D02*
Y-55512D01*
G01X29528Y-8661D02*
Y-4724D01*
G01X25630Y-8661D02*
X29528D01*
G01Y2165D02*
Y15945D01*
G01Y-1181D02*
Y2165D01*
G54D14*
X4331Y-96260D03*
X2362D03*
Y-68898D03*
X4331D03*
X22047Y-96260D03*
X20079D03*
X18110D03*
X16142D03*
X14173D03*
X12205D03*
X10236D03*
X8268D03*
X6299D03*
Y-68898D03*
X8268D03*
X10236D03*
X12205D03*
X14173D03*
X16142D03*
X18110D03*
X20079D03*
X22047D03*
X24016Y-96260D03*
Y-68898D03*
G54D23*
X-6496Y-8661D03*
X984D03*
G54D32*
X25197Y-36614D03*
G54D42*
G01X-35047Y-122520D02*
X-30315Y-117787D01*
Y-83402D01*
X-11972Y-65059D01*
X5028D01*
X6299Y-66331D01*
Y-68898D01*
G01X8268D02*
Y-66331D01*
X5815Y-63878D01*
X-12465D01*
X-31496Y-82909D01*
Y-115551D01*
X-33268Y-117323D01*
X-35047D01*
G01X10236Y-68898D02*
Y-66331D01*
X6602Y-62697D01*
X-12957D01*
X-33071Y-82811D01*
Y-110535D01*
X-33874Y-111339D01*
X-33878D01*
X-35138Y-112598D01*
G01X12205Y-68898D02*
Y-66331D01*
X7390Y-61516D01*
X-13449D01*
X-35047Y-83114D01*
Y-107480D01*
G01X4331Y-68898D02*
Y-67559D01*
X3012Y-66240D01*
X-11480D01*
X-28445Y-83205D01*
Y-88583D01*
G01X-492Y-77657D02*
X-3146D01*
X-18606Y-93118D01*
Y-95079D01*
X-18602Y-95083D01*
Y-98988D01*
X-19390Y-99776D01*
Y-105264D01*
X-17323Y-107331D01*
Y-116327D01*
X-16929Y-116720D01*
Y-124386D01*
X-13756Y-127559D01*
G01Y-132677D02*
X-18110Y-128323D01*
Y-117213D01*
X-18504Y-116819D01*
Y-107823D01*
X-20571Y-105756D01*
Y-99283D01*
X-19783Y-98496D01*
Y-95575D01*
X-19787Y-95571D01*
Y-92626D01*
X-19783Y-92622D01*
Y-92228D01*
X-3244Y-75689D01*
X-492D01*
G01X-11024Y-134646D02*
X-15354D01*
X-19291Y-130709D01*
Y-117705D01*
X-19685Y-117311D01*
Y-108315D01*
X-21752Y-106248D01*
Y-98791D01*
X-21260Y-98299D01*
Y-91921D01*
X-3059Y-73720D01*
X-492D01*
G01Y-83563D02*
X-4031D01*
X-15059Y-94591D01*
Y-100465D01*
X-15846Y-101252D01*
Y-103787D01*
X-13780Y-105854D01*
Y-114850D01*
X-11811Y-116819D01*
Y-125197D01*
G01Y-129921D02*
X-10236Y-128346D01*
Y-126268D01*
X-9941Y-125972D01*
Y-124421D01*
X-10236Y-124126D01*
Y-116720D01*
X-12598Y-114358D01*
Y-105362D01*
X-14665Y-103295D01*
Y-101744D01*
X-13878Y-100957D01*
Y-95177D01*
X-4232Y-85531D01*
X-492D01*
G01Y-79626D02*
X-3441D01*
X-17425Y-93610D01*
Y-94587D01*
X-17421Y-94591D01*
Y-99480D01*
X-18209Y-100268D01*
Y-104772D01*
X-16142Y-106839D01*
Y-115835D01*
X-15626Y-116350D01*
Y-118295D01*
X-15614Y-118307D01*
Y-120661D01*
X-13756Y-122520D01*
G01X-492Y-81594D02*
X-3736D01*
X-16240Y-94098D01*
Y-99972D01*
X-17028Y-100760D01*
Y-104280D01*
X-14961Y-106346D01*
Y-115343D01*
X-13756Y-116547D01*
Y-117520D01*
G01X-12795Y-102520D02*
X-12008Y-101732D01*
Y-95276D01*
X-4232Y-87500D01*
X-492D01*
G01X2362Y-68898D02*
X976D01*
X-402Y-67520D01*
X-11087D01*
X-19323Y-75756D01*
X-19276Y-75803D01*
Y-82874D01*
G01X2362Y-96260D02*
Y-100984D01*
X689Y-102657D01*
Y-120768D01*
X7480Y-127559D01*
X66831D01*
X73327Y-134055D01*
X100591D01*
X109055Y-125591D01*
Y-98031D01*
X105906Y-94882D01*
G01X106299Y-98031D02*
X103937Y-95669D01*
Y-93394D01*
X104528Y-92803D01*
X106693D01*
X110236Y-96346D01*
Y-126772D01*
X101772Y-135236D01*
X72835D01*
X66339Y-128740D01*
X6693D01*
X-492Y-121555D01*
Y-93406D01*
G01X10236Y-96260D02*
Y-100764D01*
X10146Y-100874D01*
X8268Y-102752D01*
Y-103130D01*
X6791Y-104902D01*
Y-108366D01*
X4921Y-110236D01*
G01X85236Y-130039D02*
X72657D01*
X67815Y-125197D01*
X9035D01*
X3051Y-119213D01*
Y-104724D01*
X5906Y-101870D01*
Y-101768D01*
X6299Y-101374D01*
Y-96260D01*
G01X82283Y-132087D02*
X73031D01*
X67323Y-126378D01*
X8268D01*
X1870Y-119980D01*
Y-104232D01*
X4331Y-101772D01*
Y-96260D01*
G01X8268D02*
Y-101079D01*
X7087Y-102260D01*
Y-102362D01*
X4921Y-104528D01*
Y-107480D01*
G01X-492Y-89469D02*
X-4339D01*
X-7874Y-93004D01*
Y-94882D01*
G01X-492Y-91437D02*
X-2862D01*
X-4331Y-92906D01*
Y-94882D01*
G01X-492Y-71752D02*
X-4232D01*
X-4331Y-71654D01*
G01X197Y-56102D02*
X5315D01*
X5906Y-56693D01*
X6102D01*
G01X197Y-46260D02*
X5709D01*
X6102Y-45866D01*
G01X197Y-46260D02*
Y-46654D01*
X787Y-47244D01*
G01X105709Y-110039D02*
X107874Y-112205D01*
Y-125087D01*
X100874Y-132087D01*
X89929D01*
X86012Y-128169D01*
X72461D01*
X68307Y-124016D01*
X10630D01*
X8858Y-122244D01*
Y-104268D01*
X9449Y-103559D01*
Y-103244D01*
X12205Y-100488D01*
Y-96260D01*
G01X95669Y-130118D02*
X90748D01*
X87618Y-126988D01*
X72953D01*
X68799Y-122835D01*
X54614D01*
X54610Y-122831D01*
X47335D01*
X47331Y-122835D01*
X13386D01*
X10039Y-119488D01*
Y-106496D01*
X10630Y-105906D01*
Y-103736D01*
X13689Y-100677D01*
Y-98634D01*
X14173Y-98150D01*
Y-96260D01*
G01X22047Y-114567D02*
X22441Y-114173D01*
X25394D01*
G01X22244Y-108071D02*
Y-109449D01*
X23425Y-110630D01*
Y-111220D01*
G01X22047Y-96260D02*
Y-97563D01*
X23402Y-98917D01*
X24630D01*
X25122Y-98425D01*
X31496D01*
G01X16142Y-96260D02*
Y-98827D01*
X15559Y-99409D01*
G01X22047Y-101378D02*
X21850Y-101181D01*
G01X22244Y-101772D02*
Y-101575D01*
X22047Y-101378D01*
G01X22441D02*
X22047D01*
G01X13189Y-82579D02*
X13287D01*
X13386Y-82677D01*
G01X6102Y-56693D02*
X6201D01*
X16142Y-66634D01*
Y-68898D01*
G01X18110D02*
X17815Y-68602D01*
Y-66634D01*
X8661Y-57480D01*
Y-46370D01*
X8157Y-45866D01*
X6102D01*
G01X27362Y-108071D02*
X30815D01*
G01X85551Y-125102D02*
X86811Y-123843D01*
X86827D01*
X88583Y-122087D01*
Y-105512D01*
X81496Y-98425D01*
X81488D01*
X80209Y-97146D01*
X39709D01*
X38429Y-98425D01*
X34843D01*
G01D02*
X31496D01*
G01X95866Y-100417D02*
X87870Y-92421D01*
X32882D01*
X29929Y-89469D01*
X26870D01*
G01Y-87500D02*
X29705D01*
X33445Y-91240D01*
X89370D01*
X94587Y-96457D01*
Y-96492D01*
X98819Y-100724D01*
Y-116535D01*
X95276Y-120079D01*
G01X26870Y-91437D02*
X30224D01*
X32390Y-93602D01*
X85728D01*
X97638Y-105512D01*
Y-113386D01*
X95669Y-115354D01*
G01X24016Y-96260D02*
X38921D01*
X39217Y-95965D01*
X81791D01*
X85827Y-100000D01*
G01X95669Y-110220D02*
Y-105217D01*
X85236Y-94783D01*
X29429D01*
X28051Y-93406D01*
X26870D01*
G01X49409Y-76575D02*
X44492D01*
X40772Y-72854D01*
X32075D01*
X29240Y-75689D01*
X26870D01*
G01X95669Y-125394D02*
Y-122441D01*
X100000Y-118110D01*
Y-100232D01*
X95772Y-96004D01*
Y-95969D01*
X89571Y-89768D01*
X33937D01*
X29701Y-85531D01*
X26870D01*
G01X105315Y-119862D02*
X101181Y-115728D01*
Y-100724D01*
X101185Y-100720D01*
Y-99744D01*
X96953Y-95512D01*
Y-95476D01*
X90059Y-88583D01*
X89051D01*
X46185Y-88579D01*
X34453D01*
X29437Y-83563D01*
X26870D01*
G01Y-73720D02*
X29535D01*
X31602Y-71654D01*
X40748D01*
X42323Y-70079D01*
Y-64362D01*
X43693Y-62992D01*
X46850D01*
G01X40354Y-106693D02*
Y-107677D01*
G01X49409Y-76575D02*
Y-76417D01*
X53858Y-71969D01*
G01X46850Y-57677D02*
Y-62992D01*
G01X55827D02*
Y-59173D01*
X55709Y-59055D01*
Y-58752D01*
G54D24*
X-2756Y-5512D03*
G54D33*
X18012Y-39764D03*
Y-36614D03*
Y-33465D03*
X32382D03*
Y-36614D03*
Y-39764D03*
G54D15*
X-492Y-93406D03*
Y-91437D03*
Y-89469D03*
Y-87500D03*
Y-85531D03*
Y-83563D03*
Y-81594D03*
Y-79626D03*
Y-77657D03*
Y-75689D03*
Y-73720D03*
Y-71752D03*
X26870Y-91437D03*
Y-93406D03*
Y-75689D03*
Y-77657D03*
Y-79626D03*
Y-81594D03*
Y-83563D03*
Y-85531D03*
Y-87500D03*
Y-89469D03*
Y-71752D03*
Y-73720D03*
G54D43*
G01X16142Y-114370D02*
Y-110236D01*
G01X43307Y-104528D02*
Y-113583D01*
X37992Y-118898D01*
X18898D01*
X16142Y-116142D01*
Y-114370D01*
G01X27165Y-101772D02*
X22835D01*
G01X31043Y-104846D02*
X31315Y-105118D01*
X32039D01*
X32236Y-105315D01*
X37555D01*
X38146Y-104724D01*
X38201D01*
X40551Y-102374D01*
Y-99508D01*
G01X40650Y-99409D02*
X45965D01*
G01X46063Y-99508D02*
X48031Y-101476D01*
G01D02*
X49311Y-102756D01*
X70319D01*
X70909Y-102165D01*
X74799D01*
G01X79331Y-102362D02*
X75394D01*
G54D25*
X1890Y26969D03*
Y15945D03*
Y37992D03*
Y49016D03*
Y60039D03*
Y71063D03*
Y82087D03*
Y93110D03*
Y104134D03*
Y115157D03*
Y126181D03*
Y137205D03*
Y148228D03*
X22756Y26969D03*
Y37992D03*
Y49016D03*
Y60039D03*
Y71063D03*
Y82087D03*
Y93110D03*
Y104134D03*
Y115157D03*
Y126181D03*
Y137205D03*
Y148228D03*
G54D16*
X13189Y-82579D03*
G54D34*
X36220Y-81102D03*
X33071D03*
X36220Y-77559D03*
X33071D03*
X34252Y-69291D03*
X31102D03*
X52559Y-76575D03*
X49409D03*
X50000Y-57677D03*
X46850D03*
G54D44*
G01X13780Y-31890D02*
X5236D01*
X4016Y-33110D01*
X-7126D01*
X-14961Y-40945D01*
Y-57539D01*
X-22697Y-65276D01*
G01X13780Y-31890D02*
Y-31850D01*
G01X18012Y-33465D02*
X15315D01*
X13780Y-31929D01*
Y-31890D01*
G54D35*
X29528Y15945D03*
G54D17*
X-7480Y-71654D03*
X-4331D03*
G54D26*
X16142Y-110236D03*
Y-103937D03*
G54D45*
G01X15354Y-60630D02*
Y-60650D01*
X17776Y-63071D01*
X18563D01*
G54D36*
X53858Y-71969D03*
X46850D03*
X53858Y-62992D03*
X46850D03*
G54D18*
X6102Y-56693D03*
Y-53150D03*
X22047Y-51969D03*
Y-55512D03*
Y-16535D03*
Y-20079D03*
X28346Y-59055D03*
Y-62598D03*
Y-48031D03*
Y-51575D03*
X29528Y-1181D03*
Y-4724D03*
G54D27*
X22244Y-108071D03*
Y-101772D03*
X27362Y-108071D03*
Y-101772D03*
X74409Y-108858D03*
Y-102559D03*
G54D37*
X79331Y-107874D03*
Y-102362D03*
G54D28*
X22441Y-114370D03*
X16142D03*
G54D19*
X197Y-56102D03*
Y-46260D03*
G54D38*
G01X2362Y-35827D02*
X-7677D01*
X-13189Y-41339D01*
Y-59055D01*
X-37402Y-83268D01*
Y-112402D01*
X-39173Y-114173D01*
Y-134055D01*
X-36811Y-136417D01*
X-19882D01*
X-17323Y-138976D01*
X40945D01*
X48819Y-131102D01*
G01X14173Y-68898D02*
Y-66476D01*
X7539Y-59843D01*
X-8465D01*
X-11811Y-56496D01*
Y-42126D01*
X-9449Y-39764D01*
X2362D01*
G01X-8740Y-94882D02*
X-7874D01*
G01X-4528Y-71850D02*
X-4331Y-71654D01*
G01X18484Y-62992D02*
X18504D01*
G01X13780Y-39764D02*
X5906D01*
G01X18012D02*
X13780D01*
G01X18012Y-36614D02*
X14567D01*
X13780Y-35827D01*
G01D02*
X13622Y-35984D01*
Y-36339D01*
X11772Y-38189D01*
X8287D01*
X5925Y-35827D01*
X5906D01*
G01X26870Y-81594D02*
X29539D01*
X34953Y-87008D01*
X44063D01*
X44555Y-86516D01*
X46437D01*
G01X31102Y-69291D02*
Y-68110D01*
X45472Y-53740D01*
X54921D01*
X58071Y-56890D01*
Y-76575D01*
X55315Y-79331D01*
X43898D01*
X43307Y-78740D01*
G01X26870Y-71752D02*
Y-70264D01*
X27843Y-69291D01*
X31102D01*
G01X50394Y-106496D02*
Y-118472D01*
X48819Y-120047D01*
Y-120453D01*
G54D29*
X22047Y-59055D03*
X18504D03*
X22047Y-62992D03*
X18504D03*
X22047Y-48031D03*
X18504D03*
X22047Y-24409D03*
X18504D03*
X22087Y-8661D03*
X22047D03*
X18504D03*
X22047Y-12598D03*
X18504D03*
X25630Y-8661D03*
X33071D03*
X29528D03*
G54D39*
G01X984D02*
X1772D01*
G01X16142Y-103937D02*
Y-101890D01*
X18110Y-99921D01*
Y-96260D01*
G01X21850Y-101181D02*
X20079Y-99409D01*
Y-96260D01*
G01X27362Y-101575D02*
X27165Y-101772D01*
G01X22835D02*
X22441Y-101378D01*
G01X22047Y-68898D02*
Y-68976D01*
G01Y-68898D02*
Y-62992D01*
G01X18563Y-63071D02*
X18571Y-63079D01*
Y-63728D01*
X20079Y-65236D01*
Y-68898D01*
G01X31496Y-104394D02*
X31043Y-104846D01*
G01X30488D02*
X31043D01*
G01X26870Y-79626D02*
X31004D01*
X32480Y-81102D01*
X33071D01*
G01X40551Y-85039D02*
X35827D01*
X33071Y-82283D01*
Y-81102D01*
G01X26870Y-77657D02*
X32972D01*
X33071Y-77559D01*
G01X43307Y-78740D02*
X39764Y-75197D01*
X34646D01*
X33071Y-76772D01*
Y-77559D01*
G01X25984Y-65748D02*
X24016Y-67717D01*
Y-68898D01*
G01X48031Y-101476D02*
Y-116917D01*
X46063Y-118886D01*
Y-120965D01*
G01X40551Y-99508D02*
X40650Y-99409D01*
G01X45965D02*
X46063Y-99508D01*
G01X43307Y-78760D02*
Y-78740D01*
G01X75394Y-102362D02*
Y-102343D01*
X75008Y-101957D01*
X74799Y-102165D01*
G01D02*
X74409Y-102555D01*
Y-102559D01*
M02*
