G04 ================== begin FILE IDENTIFICATION RECORD ==================*
G04 Layout Name:  Z1044-B.brd*
G04 Film Name:    paste_top*
G04 File Format:  Gerber RS274X*
G04 File Origin:  Cadence Allegro 16.6-S019*
G04 Origin Date:  Fri Nov 18 12:25:08 2016*
G04 *
G04 Layer:  PIN/PASTEMASK_TOP*
G04 Layer:  BOARD GEOMETRY/OUTLINE*
G04 *
G04 Offset:    (0.000 0.000)*
G04 Mirror:    No*
G04 Mode:      Positive*
G04 Rotation:  0*
G04 FullContactRelief:  No*
G04 UndefLineWidth:     0.020*
G04 ================== end FILE IDENTIFICATION RECORD ====================*
%FSLAX25Y25*MOIN*%
%IR0*IPPOS*OFA0.00000B0.00000*MIA0B0*SFA1.00000B1.00000*%
%AMMACRO16*
4,1,40,-.03189,.008858,
-.03189,-.008858,
-.031755,-.010396,
-.031356,-.011888,
-.030703,-.013287,
-.029817,-.014552,
-.028725,-.015644,
-.027461,-.01653,
-.026061,-.017182,
-.02457,-.017582,
-.023031,-.017717,
.023031,-.017717,
.02457,-.017582,
.026061,-.017182,
.027461,-.01653,
.028725,-.015644,
.029817,-.014552,
.030703,-.013287,
.031356,-.011888,
.031755,-.010396,
.03189,-.008858,
.03189,.008858,
.031755,.010396,
.031356,.011888,
.030703,.013287,
.029817,.014552,
.028725,.015644,
.027461,.01653,
.026061,.017182,
.02457,.017582,
.023031,.017717,
-.023031,.017717,
-.02457,.017582,
-.026061,.017182,
-.027461,.01653,
-.028725,.015644,
-.029817,.014552,
-.030703,.013287,
-.031356,.011888,
-.031755,.010396,
-.03189,.008858,
0.0*
%
%ADD16MACRO16*%
%AMMACRO31*
4,1,45,0.0,-.024803,
.009409,-.024803,
.011464,-.024635,
.013457,-.024113,
.01533,-.023252,
.017025,-.022079,
.018491,-.02063,
.019682,-.018948,
.020564,-.017085,
.021108,-.015097,
.021299,-.013045,
.021299,-.012992,
.021299,.012992,
.021117,.015045,
.020582,.017035,
.019709,.018902,
.018525,.02059,
.017066,.022045,
.015376,.023226,
.013507,.024095,
.011516,.024626,
.009462,.024803,
.009409,.024803,
-.009409,.024803,
-.011464,.024635,
-.013457,.024113,
-.01533,.023252,
-.017025,.022079,
-.018491,.02063,
-.019682,.018948,
-.020564,.017085,
-.021108,.015097,
-.021299,.013045,
-.021299,.012992,
-.021299,-.012992,
-.021117,-.015045,
-.020582,-.017035,
-.019709,-.018902,
-.018525,-.02059,
-.017066,-.022045,
-.015376,-.023226,
-.013507,-.024095,
-.011516,-.024626,
-.009462,-.024803,
-.009409,-.024803,
0.0,-.024803,
0.0*
%
%ADD31MACRO31*%
%ADD19R,.055118X.015748*%
%AMMACRO21*
4,1,44,-.023898,-.008386,
-.023898,.008386,
-.023774,.009845,
-.0234,.01126,
-.022785,.012589,
-.021948,.013791,
-.020916,.01483,
-.019719,.015673,
-.018394,.016296,
-.016981,.016679,
-.015522,.016811,
-.015512,.016811,
.015512,.016811,
.01697,.016681,
.018384,.016299,
.01971,.015678,
.020908,.014836,
.021942,.013799,
.022779,.012598,
.023396,.01127,
.023773,.009855,
.023898,.008396,
.023898,.008386,
.023898,-.008386,
.023774,-.009845,
.0234,-.01126,
.022785,-.012589,
.021948,-.013791,
.020916,-.01483,
.019719,-.015673,
.018394,-.016296,
.016981,-.016679,
.015522,-.016811,
.015512,-.016811,
-.015512,-.016811,
-.01697,-.016681,
-.018384,-.016299,
-.01971,-.015678,
-.020908,-.014836,
-.021942,-.013799,
-.022779,-.012598,
-.023396,-.01127,
-.023773,-.009855,
-.023898,-.008396,
-.023898,-.008386,
0.0*
%
%ADD21MACRO21*%
%AMMACRO23*
4,1,44,.008386,-.017717,
-.008386,-.017717,
-.009846,-.017592,
-.011262,-.017216,
-.012592,-.016599,
-.013794,-.015762,
-.014832,-.014728,
-.015676,-.013529,
-.016298,-.012202,
-.01668,-.010788,
-.016811,-.009328,
-.016811,-.009291,
-.016811,.009291,
-.016686,.010751,
-.01631,.012168,
-.015694,.013497,
-.014856,.014699,
-.013822,.015738,
-.012624,.016581,
-.011297,.017203,
-.009882,.017586,
-.008423,.017717,
-.008386,.017717,
.008386,.017717,
.009846,.017592,
.011262,.017216,
.012592,.016599,
.013794,.015762,
.014832,.014728,
.015676,.013529,
.016298,.012202,
.01668,.010788,
.016811,.009328,
.016811,.009291,
.016811,-.009291,
.016686,-.010751,
.01631,-.012168,
.015694,-.013497,
.014856,-.014699,
.013822,-.015738,
.012624,-.016581,
.011297,-.017203,
.009882,-.017586,
.008423,-.017717,
.008386,-.017717,
0.0*
%
%ADD23MACRO23*%
%ADD27R,.062992X.062992*%
%AMMACRO29*
4,1,40,.009764,.004803,
.009764,-.004803,
.009684,-.005637,
.009461,-.006444,
.009101,-.007199,
.008615,-.007881,
.008018,-.008468,
.007328,-.008943,
.006566,-.009291,
.005756,-.009501,
.004961,-.009567,
-.004961,-.009567,
-.005795,-.009494,
-.006603,-.009277,
-.007362,-.008923,
-.008048,-.008443,
-.00864,-.007851,
-.00912,-.007165,
-.009474,-.006406,
-.009691,-.005598,
-.009764,-.004803,
-.009764,.004803,
-.009684,.005637,
-.009461,.006444,
-.009101,.007199,
-.008615,.007881,
-.008018,.008468,
-.007328,.008943,
-.006566,.009291,
-.005756,.009501,
-.004961,.009567,
.004961,.009567,
.005795,.009494,
.006603,.009277,
.007362,.008923,
.008048,.008443,
.00864,.007851,
.00912,.007165,
.009474,.006406,
.009691,.005598,
.009764,.004803,
0.0*
%
%ADD29MACRO29*%
%AMMACRO24*
4,1,40,.011496,.005709,
.011496,-.005709,
.0114,-.006689,
.011135,-.007637,
.01071,-.008525,
.010136,-.009326,
.009433,-.010015,
.00862,-.010572,
.007723,-.010979,
.00677,-.011224,
.005906,-.011299,
-.005906,-.011299,
-.006886,-.011203,
-.007834,-.010938,
-.008722,-.010513,
-.009523,-.00994,
-.010212,-.009236,
-.010769,-.008423,
-.011176,-.007527,
-.01142,-.006573,
-.011496,-.005709,
-.011496,.005709,
-.0114,.006689,
-.011135,.007637,
-.01071,.008525,
-.010136,.009326,
-.009433,.010015,
-.00862,.010572,
-.007723,.010979,
-.00677,.011224,
-.005906,.011299,
.005906,.011299,
.006886,.011203,
.007834,.010938,
.008722,.010513,
.009523,.00994,
.010212,.009236,
.010769,.008423,
.011176,.007527,
.01142,.006573,
.011496,.005709,
0.0*
%
%ADD24MACRO24*%
%AMMACRO17*
4,1,40,.005709,-.011496,
-.005709,-.011496,
-.006689,-.0114,
-.007637,-.011135,
-.008525,-.01071,
-.009326,-.010136,
-.010015,-.009433,
-.010572,-.00862,
-.010979,-.007723,
-.011224,-.00677,
-.011299,-.005906,
-.011299,.005906,
-.011203,.006886,
-.010938,.007834,
-.010513,.008722,
-.00994,.009523,
-.009236,.010212,
-.008423,.010769,
-.007527,.011176,
-.006573,.01142,
-.005709,.011496,
.005709,.011496,
.006689,.0114,
.007637,.011135,
.008525,.01071,
.009326,.010136,
.010015,.009433,
.010572,.00862,
.010979,.007723,
.011224,.00677,
.011299,.005906,
.011299,-.005906,
.011203,-.006886,
.010938,-.007834,
.010513,-.008722,
.00994,-.009523,
.009236,-.010212,
.008423,-.010769,
.007527,-.011176,
.006573,-.01142,
.005709,-.011496,
0.0*
%
%ADD17MACRO17*%
%AMMACRO10*
4,1,40,.004803,-.009764,
-.004803,-.009764,
-.005637,-.009684,
-.006444,-.009461,
-.007199,-.009101,
-.007881,-.008615,
-.008468,-.008018,
-.008943,-.007328,
-.009291,-.006566,
-.009501,-.005756,
-.009567,-.004961,
-.009567,.004961,
-.009494,.005795,
-.009277,.006603,
-.008923,.007362,
-.008443,.008048,
-.007851,.00864,
-.007165,.00912,
-.006406,.009474,
-.005598,.009691,
-.004803,.009764,
.004803,.009764,
.005637,.009684,
.006444,.009461,
.007199,.009101,
.007881,.008615,
.008468,.008018,
.008943,.007328,
.009291,.006566,
.009501,.005756,
.009567,.004961,
.009567,-.004961,
.009494,-.005795,
.009277,-.006603,
.008923,-.007362,
.008443,-.008048,
.007851,-.00864,
.007165,-.00912,
.006406,-.009474,
.005598,-.009691,
.004803,-.009764,
0.0*
%
%ADD10MACRO10*%
%AMMACRO13*
4,1,16,.092992,.092992,
.092992,-.092992,
-.092992,-.092992,
-.092992,.092992,
-.010354,.092992,
-.010354,.010354,
-.092913,.010354,
-.092913,-.010315,
-.010354,-.010315,
-.010354,-.092913,
.010315,-.092913,
.010315,-.010315,
.092913,-.010315,
.092913,.010354,
.010315,.010354,
.010315,.092992,
.092992,.092992,
0.0*
%
%ADD13MACRO13*%
%AMMACRO32*
4,1,44,-.015945,-.006654,
-.015945,.006654,
-.015845,.007808,
-.015546,.008928,
-.015057,.009978,
-.014393,.010928,
-.013574,.011748,
-.012625,.012414,
-.011575,.012904,
-.010456,.013205,
-.009302,.013307,
-.009291,.013307,
.009291,.013307,
.010446,.013207,
.011566,.012908,
.012616,.012419,
.013566,.011755,
.014386,.010936,
.015052,.009987,
.015542,.008938,
.015843,.007818,
.015945,.006664,
.015945,.006654,
.015945,-.006654,
.015845,-.007808,
.015546,-.008928,
.015057,-.009978,
.014393,-.010928,
.013574,-.011748,
.012625,-.012414,
.011575,-.012904,
.010456,-.013205,
.009302,-.013307,
.009291,-.013307,
-.009291,-.013307,
-.010446,-.013207,
-.011566,-.012908,
-.012616,-.012419,
-.013566,-.011755,
-.014386,-.010936,
-.015052,-.009987,
-.015542,-.008938,
-.015843,-.007818,
-.015945,-.006664,
-.015945,-.006654,
0.0*
%
%ADD32MACRO32*%
%AMMACRO22*
4,1,44,-.017717,-.008386,
-.017717,.008386,
-.017592,.009846,
-.017216,.011262,
-.016599,.012592,
-.015762,.013794,
-.014728,.014832,
-.013529,.015676,
-.012202,.016298,
-.010788,.01668,
-.009328,.016811,
-.009291,.016811,
.009291,.016811,
.010751,.016686,
.012168,.01631,
.013497,.015694,
.014699,.014856,
.015738,.013822,
.016581,.012624,
.017203,.011297,
.017586,.009882,
.017717,.008423,
.017717,.008386,
.017717,-.008386,
.017592,-.009846,
.017216,-.011262,
.016599,-.012592,
.015762,-.013794,
.014728,-.014832,
.013529,-.015676,
.012202,-.016298,
.010788,-.01668,
.009328,-.016811,
.009291,-.016811,
-.009291,-.016811,
-.010751,-.016686,
-.012168,-.01631,
-.013497,-.015694,
-.014699,-.014856,
-.015738,-.013822,
-.016581,-.012624,
-.017203,-.011297,
-.017586,-.009882,
-.017717,-.008423,
-.017717,-.008386,
0.0*
%
%ADD22MACRO22*%
%ADD20R,.01378X.011811*%
%ADD28R,.025591X.015748*%
%ADD12O,.03189X.01063*%
%ADD25R,.015748X.025591*%
%ADD11O,.01063X.03189*%
%AMMACRO26*
4,1,40,-.004803,.009764,
.004803,.009764,
.005637,.009684,
.006444,.009461,
.007199,.009101,
.007881,.008615,
.008468,.008018,
.008943,.007328,
.009291,.006566,
.009501,.005756,
.009567,.004961,
.009567,-.004961,
.009494,-.005795,
.009277,-.006603,
.008923,-.007362,
.008443,-.008048,
.007851,-.00864,
.007165,-.00912,
.006406,-.009474,
.005598,-.009691,
.004803,-.009764,
-.004803,-.009764,
-.005637,-.009684,
-.006444,-.009461,
-.007199,-.009101,
-.007881,-.008615,
-.008468,-.008018,
-.008943,-.007328,
-.009291,-.006566,
-.009501,-.005756,
-.009567,-.004961,
-.009567,.004961,
-.009494,.005795,
-.009277,.006603,
-.008923,.007362,
-.008443,.008048,
-.007851,.00864,
-.007165,.00912,
-.006406,.009474,
-.005598,.009691,
-.004803,.009764,
0.0*
%
%ADD26MACRO26*%
%AMMACRO18*
4,1,40,-.011496,-.005709,
-.011496,.005709,
-.0114,.006689,
-.011135,.007637,
-.01071,.008525,
-.010136,.009326,
-.009433,.010015,
-.00862,.010572,
-.007723,.010979,
-.00677,.011224,
-.005906,.011299,
.005906,.011299,
.006886,.011203,
.007834,.010938,
.008722,.010513,
.009523,.00994,
.010212,.009236,
.010769,.008423,
.011176,.007527,
.01142,.006573,
.011496,.005709,
.011496,-.005709,
.0114,-.006689,
.011135,-.007637,
.01071,-.008525,
.010136,-.009326,
.009433,-.010015,
.00862,-.010572,
.007723,-.010979,
.00677,-.011224,
.005906,-.011299,
-.005906,-.011299,
-.006886,-.011203,
-.007834,-.010938,
-.008722,-.010513,
-.009523,-.00994,
-.010212,-.009236,
-.010769,-.008423,
-.011176,-.007527,
-.01142,-.006573,
-.011496,-.005709,
0.0*
%
%ADD18MACRO18*%
%AMMACRO15*
4,1,40,-.005709,.011496,
.005709,.011496,
.006689,.0114,
.007637,.011135,
.008525,.01071,
.009326,.010136,
.010015,.009433,
.010572,.00862,
.010979,.007723,
.011224,.00677,
.011299,.005906,
.011299,-.005906,
.011203,-.006886,
.010938,-.007834,
.010513,-.008722,
.00994,-.009523,
.009236,-.010212,
.008423,-.010769,
.007527,-.011176,
.006573,-.01142,
.005709,-.011496,
-.005709,-.011496,
-.006689,-.0114,
-.007637,-.011135,
-.008525,-.01071,
-.009326,-.010136,
-.010015,-.009433,
-.010572,-.00862,
-.010979,-.007723,
-.011224,-.00677,
-.011299,-.005906,
-.011299,.005906,
-.011203,.006886,
-.010938,.007834,
-.010513,.008722,
-.00994,.009523,
-.009236,.010212,
-.008423,.010769,
-.007527,.011176,
-.006573,.01142,
-.005709,.011496,
0.0*
%
%ADD15MACRO15*%
%AMMACRO14*
4,1,40,-.009764,-.004803,
-.009764,.004803,
-.009684,.005637,
-.009461,.006444,
-.009101,.007199,
-.008615,.007881,
-.008018,.008468,
-.007328,.008943,
-.006566,.009291,
-.005756,.009501,
-.004961,.009567,
.004961,.009567,
.005795,.009494,
.006603,.009277,
.007362,.008923,
.008048,.008443,
.00864,.007851,
.00912,.007165,
.009474,.006406,
.009691,.005598,
.009764,.004803,
.009764,-.004803,
.009684,-.005637,
.009461,-.006444,
.009101,-.007199,
.008615,-.007881,
.008018,-.008468,
.007328,-.008943,
.006566,-.009291,
.005756,-.009501,
.004961,-.009567,
-.004961,-.009567,
-.005795,-.009494,
-.006603,-.009277,
-.007362,-.008923,
-.008048,-.008443,
-.00864,-.007851,
-.00912,-.007165,
-.009474,-.006406,
-.009691,-.005598,
-.009764,-.004803,
0.0*
%
%ADD14MACRO14*%
%ADD30R,.023622X.023622*%
%ADD33C,.000787*%
G75*
%LPD*%
G75*
G54D10*
X-4331Y-98031D03*
Y-94882D03*
X-7874Y-98031D03*
Y-94882D03*
X36614Y-42913D03*
Y-39764D03*
G54D11*
X4331Y-96260D03*
X2362D03*
Y-68898D03*
X4331D03*
X22047Y-96260D03*
X20079D03*
X18110D03*
X16142D03*
X14173D03*
X12205D03*
X10236D03*
X8268D03*
X6299D03*
Y-68898D03*
X8268D03*
X10236D03*
X12205D03*
X14173D03*
X16142D03*
X18110D03*
X20079D03*
X22047D03*
X24016Y-96260D03*
Y-68898D03*
G54D20*
X-6496Y-8661D03*
X984D03*
G54D30*
X29528Y15945D03*
G54D12*
X-492Y-93406D03*
Y-91437D03*
Y-89469D03*
Y-87500D03*
Y-85531D03*
Y-83563D03*
Y-81594D03*
Y-79626D03*
Y-77657D03*
Y-75689D03*
Y-73720D03*
Y-71752D03*
X26870Y-91437D03*
Y-93406D03*
Y-75689D03*
Y-77657D03*
Y-79626D03*
Y-81594D03*
Y-83563D03*
Y-85531D03*
Y-87500D03*
Y-89469D03*
Y-71752D03*
Y-73720D03*
G54D21*
X16142Y-110236D03*
Y-103937D03*
G54D22*
X22244Y-108071D03*
Y-101772D03*
X27362Y-108071D03*
Y-101772D03*
X74409Y-108858D03*
Y-102559D03*
G54D13*
X13189Y-82579D03*
G54D31*
X53858Y-71969D03*
X46850D03*
X53858Y-62992D03*
X46850D03*
G54D14*
X-7480Y-71654D03*
X-4331D03*
G54D32*
X79331Y-107874D03*
Y-102362D03*
G54D23*
X22441Y-114370D03*
X16142D03*
G54D33*
G01X-45276Y-156693D02*
X115744D01*
X115748Y-156689D01*
Y151772D01*
X-45276D01*
Y135630D01*
Y-156693D01*
G54D15*
X6102Y-56693D03*
Y-53150D03*
X22047Y-51969D03*
Y-55512D03*
Y-16535D03*
Y-20079D03*
X28346Y-59055D03*
Y-62598D03*
Y-48031D03*
Y-51575D03*
X29528Y-1181D03*
Y-4724D03*
G54D24*
X22047Y-59055D03*
X18504D03*
X22047Y-62992D03*
X18504D03*
X22047Y-48031D03*
X18504D03*
X22047Y-24409D03*
X18504D03*
X22087Y-8661D03*
X22047D03*
X18504D03*
X22047Y-12598D03*
X18504D03*
X25630Y-8661D03*
X33071D03*
X29528D03*
G54D25*
X22047Y-43799D03*
X18504D03*
Y-29429D03*
X22047D03*
X31890Y-43799D03*
X28346D03*
X25197D03*
Y-29429D03*
X28346D03*
X31890D03*
G54D16*
X197Y-56102D03*
Y-46260D03*
G54D26*
X13780Y-28740D03*
Y-31890D03*
G54D17*
X6102Y-49409D03*
Y-45866D03*
X15354Y-60630D03*
Y-57087D03*
X13780Y-43307D03*
Y-39764D03*
X34843Y-101969D03*
Y-98425D03*
X31496Y-101969D03*
Y-98425D03*
X25591Y-20079D03*
Y-16535D03*
X40551Y-43307D03*
Y-39764D03*
G54D18*
X2362D03*
X5906D03*
X2362Y-35827D03*
X5906D03*
X10236D03*
X13780D03*
X28346Y-55512D03*
X31890D03*
X25984Y2165D03*
X29528D03*
G54D27*
X25197Y-36614D03*
G54D28*
X18012Y-39764D03*
Y-36614D03*
Y-33465D03*
X32382D03*
Y-36614D03*
Y-39764D03*
G54D19*
X-2756Y-12205D03*
Y-5118D03*
G54D29*
X36220Y-81102D03*
X33071D03*
X36220Y-77559D03*
X33071D03*
X34252Y-69291D03*
X31102D03*
X52559Y-76575D03*
X49409D03*
X50000Y-57677D03*
X46850D03*
M02*
