G04 ================== begin FILE IDENTIFICATION RECORD ==================*
G04 Layout Name:  Z1044-B.brd*
G04 Film Name:    soldmask_top*
G04 File Format:  Gerber RS274X*
G04 File Origin:  Cadence Allegro 16.6-S019*
G04 Origin Date:  Fri Nov 18 12:25:08 2016*
G04 *
G04 Layer:  PACKAGE GEOMETRY/SOLDERMASK_TOP*
G04 Layer:  PIN/SOLDERMASK_TOP*
G04 Layer:  BOARD GEOMETRY/OUTLINE*
G04 *
G04 Offset:    (0.000 0.000)*
G04 Mirror:    No*
G04 Mode:      Positive*
G04 Rotation:  0*
G04 FullContactRelief:  No*
G04 UndefLineWidth:     0.020*
G04 ================== end FILE IDENTIFICATION RECORD ====================*
%FSLAX25Y25*MOIN*%
%IR0*IPPOS*OFA0.00000B0.00000*MIA0B0*SFA1.00000B1.00000*%
%AMMACRO34*
4,1,41,-.020669,0.0,
-.020669,-.008858,
-.020535,-.010396,
-.020135,-.011888,
-.019483,-.013287,
-.018597,-.014552,
-.017505,-.015644,
-.01624,-.01653,
-.014841,-.017182,
-.013349,-.017582,
-.011811,-.017717,
.011811,-.017717,
.013349,-.017582,
.014841,-.017182,
.01624,-.01653,
.017505,-.015644,
.018597,-.014552,
.019483,-.013287,
.020135,-.011888,
.020535,-.010396,
.020669,-.008858,
.020669,.008858,
.020535,.010396,
.020135,.011888,
.019483,.013287,
.018597,.014552,
.017505,.015644,
.01624,.01653,
.014841,.017182,
.013349,.017582,
.011811,.017717,
-.011811,.017717,
-.013349,.017582,
-.014841,.017182,
-.01624,.01653,
-.017505,.015644,
-.018597,.014552,
-.019483,.013287,
-.020135,.011888,
-.020535,.010396,
-.020669,.008858,
-.020669,0.0,
0.0*
%
%ADD34MACRO34*%
%ADD14O,.03937X.015748*%
%ADD13O,.015748X.03937*%
%AMMACRO33*
4,1,41,0.0,-.030512,
.014016,-.030512,
.016198,-.030327,
.018314,-.029767,
.020302,-.028847,
.022099,-.027596,
.023652,-.026052,
.024913,-.024262,
.025844,-.02228,
.026417,-.020167,
.026614,-.017992,
.026614,.017992,
.026416,.020173,
.025842,.022286,
.02491,.024268,
.023648,.026057,
.022094,.0276,
.020296,.02885,
.018308,.029769,
.016191,.030328,
.014016,.030512,
-.014016,.030512,
-.016198,.030327,
-.018314,.029767,
-.020302,.028847,
-.022099,.027596,
-.023652,.026052,
-.024913,.024262,
-.025844,.02228,
-.026417,.020167,
-.026614,.017992,
-.026614,-.017992,
-.026416,-.020173,
-.025842,-.022286,
-.02491,-.024268,
-.023648,-.026057,
-.022094,-.0276,
-.020296,-.02885,
-.018308,-.029769,
-.016191,-.030328,
-.014016,-.030512,
0.0,-.030512,
0.0*
%
%ADD33MACRO33*%
%AMMACRO31*
4,1,40,.012795,.006299,
.012795,-.006299,
.0127,-.007393,
.012415,-.008454,
.011951,-.009449,
.011322,-.010348,
.010545,-.011125,
.009646,-.011754,
.008651,-.012219,
.00759,-.012503,
.006496,-.012598,
-.006496,-.012598,
-.00759,-.012503,
-.008651,-.012219,
-.009646,-.011754,
-.010545,-.011125,
-.011322,-.010348,
-.011951,-.009449,
-.012415,-.008454,
-.0127,-.007393,
-.012795,-.006299,
-.012795,.006299,
-.0127,.007393,
-.012415,.008454,
-.011951,.009449,
-.011322,.010348,
-.010545,.011125,
-.009646,.011754,
-.008651,.012219,
-.00759,.012503,
-.006496,.012598,
.006496,.012598,
.00759,.012503,
.008651,.012219,
.009646,.011754,
.010545,.011125,
.011322,.010348,
.011951,.009449,
.012415,.008454,
.0127,.007393,
.012795,.006299,
0.0*
%
%ADD31MACRO31*%
%AMMACRO12*
4,1,40,.006299,-.012795,
-.006299,-.012795,
-.007393,-.0127,
-.008454,-.012415,
-.009449,-.011951,
-.010348,-.011322,
-.011125,-.010545,
-.011754,-.009646,
-.012219,-.008651,
-.012503,-.00759,
-.012598,-.006496,
-.012598,.006496,
-.012503,.00759,
-.012219,.008651,
-.011754,.009646,
-.011125,.010545,
-.010348,.011322,
-.009449,.011951,
-.008454,.012415,
-.007393,.0127,
-.006299,.012795,
.006299,.012795,
.007393,.0127,
.008454,.012415,
.009449,.011951,
.010348,.011322,
.011125,.010545,
.011754,.009646,
.012219,.008651,
.012503,.00759,
.012598,.006496,
.012598,-.006496,
.012503,-.00759,
.012219,-.008651,
.011754,-.009646,
.011125,-.010545,
.010348,-.011322,
.009449,-.011951,
.008454,-.012415,
.007393,-.0127,
.006299,-.012795,
0.0*
%
%ADD12MACRO12*%
%AMMACRO26*
4,1,44,.014803,.007283,
.014803,-.007283,
.014694,-.008553,
.014367,-.009784,
.01383,-.01094,
.013101,-.011985,
.012202,-.012888,
.01116,-.01362,
.010006,-.014161,
.008776,-.014493,
.007507,-.014606,
.00748,-.014606,
-.00748,-.014606,
-.00875,-.014498,
-.009981,-.01417,
-.011137,-.013634,
-.012182,-.012905,
-.013085,-.012005,
-.013817,-.010963,
-.014358,-.009809,
-.01469,-.008579,
-.014803,-.00731,
-.014803,-.007283,
-.014803,.007283,
-.014694,.008553,
-.014367,.009784,
-.01383,.01094,
-.013101,.011985,
-.012202,.012888,
-.01116,.01362,
-.010006,.014161,
-.008776,.014493,
-.007507,.014606,
-.00748,.014606,
.00748,.014606,
.00875,.014498,
.009981,.01417,
.011137,.013634,
.012182,.012905,
.013085,.012005,
.013817,.010963,
.014358,.009809,
.01469,.008579,
.014803,.00731,
.014803,.007283,
0.0*
%
%ADD26MACRO26*%
%AMMACRO19*
4,1,44,.007283,-.014803,
-.007283,-.014803,
-.008553,-.014694,
-.009784,-.014367,
-.01094,-.01383,
-.011985,-.013101,
-.012888,-.012202,
-.01362,-.01116,
-.014161,-.010006,
-.014493,-.008776,
-.014606,-.007507,
-.014606,-.00748,
-.014606,.00748,
-.014498,.00875,
-.01417,.009981,
-.013634,.011137,
-.012905,.012182,
-.012005,.013085,
-.010963,.013817,
-.009809,.014358,
-.008579,.01469,
-.00731,.014803,
-.007283,.014803,
.007283,.014803,
.008553,.014694,
.009784,.014367,
.01094,.01383,
.011985,.013101,
.012888,.012202,
.01362,.01116,
.014161,.010006,
.014493,.008776,
.014606,.007507,
.014606,.00748,
.014606,-.00748,
.014498,-.00875,
.01417,-.009981,
.013634,-.011137,
.012905,-.012182,
.012005,-.013085,
.010963,-.013817,
.009809,-.014358,
.008579,-.01469,
.00731,-.014803,
.007283,-.014803,
0.0*
%
%ADD19MACRO19*%
%ADD29R,.07874X.07874*%
%ADD21R,.066929X.025591*%
%ADD15R,.212598X.212598*%
%ADD11C,.06689*%
%AMMACRO23*
4,1,44,-.029488,-.010787,
-.029488,.010787,
-.029337,.012669,
-.028862,.014495,
-.028077,.016211,
-.027006,.017765,
-.025681,.019109,
-.024143,.020203,
-.022439,.021013,
-.020619,.021515,
-.01874,.021693,
-.018701,.021693,
.018701,.021693,
.02058,.021522,
.022401,.021027,
.024109,.020223,
.025651,.019135,
.026981,.017795,
.028057,.016246,
.028849,.014532,
.029331,.012708,
.029488,.010827,
.029488,.010787,
.029488,-.010787,
.029337,-.012669,
.028862,-.014495,
.028077,-.016211,
.027006,-.017765,
.025681,-.019109,
.024143,-.020203,
.022439,-.021013,
.020619,-.021515,
.01874,-.021693,
.018701,-.021693,
-.018701,-.021693,
-.02058,-.021522,
-.022401,-.021027,
-.024109,-.020223,
-.025651,-.019135,
-.026981,-.017795,
-.028057,-.016246,
-.028849,-.014532,
-.029331,-.012708,
-.029488,-.010827,
-.029488,-.010787,
0.0*
%
%ADD23MACRO23*%
%AMMACRO24*
4,1,44,-.022598,-.010787,
-.022598,.010787,
-.022439,.012663,
-.021956,.014483,
-.021165,.016191,
-.020088,.017736,
-.01876,.01907,
-.017221,.020154,
-.015517,.020954,
-.013699,.021446,
-.011824,.021614,
-.011811,.021614,
.011811,.021614,
.013686,.021448,
.015504,.020958,
.01721,.020161,
.01875,.019079,
.02008,.017746,
.021158,.016203,
.021952,.014495,
.022437,.012676,
.022598,.010801,
.022598,.010787,
.022598,-.010787,
.022439,-.012663,
.021956,-.014483,
.021165,-.016191,
.020088,-.017736,
.01876,-.01907,
.017221,-.020154,
.015517,-.020954,
.013699,-.021446,
.011824,-.021614,
.011811,-.021614,
-.011811,-.021614,
-.013686,-.021448,
-.015504,-.020958,
-.01721,-.020161,
-.01875,-.019079,
-.02008,-.017746,
-.021158,-.016203,
-.021952,-.014495,
-.022437,-.012676,
-.022598,-.010801,
-.022598,-.010787,
0.0*
%
%ADD24MACRO24*%
%AMMACRO18*
4,1,40,-.038386,.011339,
-.038386,-.011339,
-.03821,-.013304,
-.037696,-.015209,
-.03686,-.016995,
-.035725,-.01861,
-.034327,-.020002,
-.032709,-.021131,
-.03092,-.021962,
-.029013,-.022469,
-.027087,-.022638,
.027087,-.022638,
.029052,-.022462,
.030957,-.021948,
.032743,-.021112,
.034358,-.019977,
.03575,-.018579,
.036879,-.016961,
.03771,-.015172,
.038217,-.013265,
.038386,-.011339,
.038386,.011339,
.03821,.013304,
.037696,.015209,
.03686,.016995,
.035725,.01861,
.034327,.020002,
.032709,.021131,
.03092,.021962,
.029013,.022469,
.027087,.022638,
-.027087,.022638,
-.029052,.022462,
-.030957,.021948,
-.032743,.021112,
-.034358,.019977,
-.03575,.018579,
-.036879,.016961,
-.03771,.015172,
-.038217,.013265,
-.038386,.011339,
0.0*
%
%ADD18MACRO18*%
%AMMACRO28*
4,1,40,-.006299,.012795,
.006299,.012795,
.007393,.0127,
.008454,.012415,
.009449,.011951,
.010348,.011322,
.011125,.010545,
.011754,.009646,
.012219,.008651,
.012503,.00759,
.012598,.006496,
.012598,-.006496,
.012503,-.00759,
.012219,-.008651,
.011754,-.009646,
.011125,-.010545,
.010348,-.011322,
.009449,-.011951,
.008454,-.012415,
.007393,-.0127,
.006299,-.012795,
-.006299,-.012795,
-.007393,-.0127,
-.008454,-.012415,
-.009449,-.011951,
-.010348,-.011322,
-.011125,-.010545,
-.011754,-.009646,
-.012219,-.008651,
-.012503,-.00759,
-.012598,-.006496,
-.012598,.006496,
-.012503,.00759,
-.012219,.008651,
-.011754,.009646,
-.011125,.010545,
-.010348,.011322,
-.009449,.011951,
-.008454,.012415,
-.007393,.0127,
-.006299,.012795,
0.0*
%
%ADD28MACRO28*%
%AMMACRO16*
4,1,40,-.012795,-.006299,
-.012795,.006299,
-.0127,.007393,
-.012415,.008454,
-.011951,.009449,
-.011322,.010348,
-.010545,.011125,
-.009646,.011754,
-.008651,.012219,
-.00759,.012503,
-.006496,.012598,
.006496,.012598,
.00759,.012503,
.008651,.012219,
.009646,.011754,
.010545,.011125,
.011322,.010348,
.011951,.009449,
.012415,.008454,
.0127,.007393,
.012795,.006299,
.012795,-.006299,
.0127,-.007393,
.012415,-.008454,
.011951,-.009449,
.011322,-.010348,
.010545,-.011125,
.009646,-.011754,
.008651,-.012219,
.00759,-.012503,
.006496,-.012598,
-.006496,-.012598,
-.00759,-.012503,
-.008651,-.012219,
-.009646,-.011754,
-.010545,-.011125,
-.011322,-.010348,
-.011951,-.009449,
-.012415,-.008454,
-.0127,-.007393,
-.012795,-.006299,
0.0*
%
%ADD16MACRO16*%
%AMMACRO20*
4,1,44,-.014803,-.007283,
-.014803,.007283,
-.014694,.008553,
-.014367,.009784,
-.01383,.01094,
-.013101,.011985,
-.012202,.012888,
-.01116,.01362,
-.010006,.014161,
-.008776,.014493,
-.007507,.014606,
-.00748,.014606,
.00748,.014606,
.00875,.014498,
.009981,.01417,
.011137,.013634,
.012182,.012905,
.013085,.012005,
.013817,.010963,
.014358,.009809,
.01469,.008579,
.014803,.00731,
.014803,.007283,
.014803,-.007283,
.014694,-.008553,
.014367,-.009784,
.01383,-.01094,
.013101,-.011985,
.012202,-.012888,
.01116,-.01362,
.010006,-.014161,
.008776,-.014493,
.007507,-.014606,
.00748,-.014606,
-.00748,-.014606,
-.00875,-.014498,
-.009981,-.01417,
-.011137,-.013634,
-.012182,-.012905,
-.013085,-.012005,
-.013817,-.010963,
-.014358,-.009809,
-.01469,-.008579,
-.014803,-.00731,
-.014803,-.007283,
0.0*
%
%ADD20MACRO20*%
%AMMACRO17*
4,1,44,-.007283,.014803,
.007283,.014803,
.008553,.014694,
.009784,.014367,
.01094,.01383,
.011985,.013101,
.012888,.012202,
.01362,.01116,
.014161,.010006,
.014493,.008776,
.014606,.007507,
.014606,.00748,
.014606,-.00748,
.014498,-.00875,
.01417,-.009981,
.013634,-.011137,
.012905,-.012182,
.012005,-.013085,
.010963,-.013817,
.009809,-.014358,
.008579,-.01469,
.00731,-.014803,
.007283,-.014803,
-.007283,-.014803,
-.008553,-.014694,
-.009784,-.014367,
-.01094,-.01383,
-.011985,-.013101,
-.012888,-.012202,
-.01362,-.01116,
-.014161,-.010006,
-.014493,-.008776,
-.014606,-.007507,
-.014606,-.00748,
-.014606,.00748,
-.014498,.00875,
-.01417,.009981,
-.013634,.011137,
-.012905,.012182,
-.012005,.013085,
-.010963,.013817,
-.009809,.014358,
-.008579,.01469,
-.00731,.014803,
-.007283,.014803,
0.0*
%
%ADD17MACRO17*%
%ADD10O,.045276X.045276*%
%ADD22R,.023622X.019685*%
%ADD30R,.029528X.019685*%
%ADD27R,.019685X.029528*%
%ADD32R,.033465X.033465*%
%AMMACRO25*
4,1,44,.010787,-.022598,
-.010787,-.022598,
-.012663,-.022439,
-.014483,-.021956,
-.016191,-.021165,
-.017736,-.020088,
-.01907,-.01876,
-.020154,-.017221,
-.020954,-.015517,
-.021446,-.013699,
-.021614,-.011824,
-.021614,-.011811,
-.021614,.011811,
-.021448,.013686,
-.020958,.015504,
-.020161,.01721,
-.019079,.01875,
-.017746,.02008,
-.016203,.021158,
-.014495,.021952,
-.012676,.022437,
-.010801,.022598,
-.010787,.022598,
.010787,.022598,
.012663,.022439,
.014483,.021956,
.016191,.021165,
.017736,.020088,
.01907,.01876,
.020154,.017221,
.020954,.015517,
.021446,.013699,
.021614,.011824,
.021614,.011811,
.021614,-.011811,
.021448,-.013686,
.020958,-.015504,
.020161,-.01721,
.019079,-.01875,
.017746,-.02008,
.016203,-.021158,
.014495,-.021952,
.012676,-.022437,
.010801,-.022598,
.010787,-.022598,
0.0*
%
%ADD25MACRO25*%
%ADD35C,.000787*%
G75*
%LPD*%
G75*
G54D10*
X-37795Y-149606D03*
X-38189Y-19291D03*
X108661Y-149606D03*
G54D20*
X2362Y-39764D03*
X5906D03*
X2362Y-35827D03*
X5906D03*
X10236D03*
X13780D03*
X28346Y-55512D03*
X31890D03*
X25984Y2165D03*
X29528D03*
G54D11*
X-24402Y-143772D03*
Y-86268D03*
X95598Y-143772D03*
Y-86268D03*
G54D30*
X18012Y-39764D03*
Y-36614D03*
Y-33465D03*
X32382D03*
Y-36614D03*
Y-39764D03*
G54D21*
X-2756Y-11713D03*
Y-5610D03*
G54D12*
X-4331Y-98031D03*
Y-94882D03*
X-7874Y-98031D03*
Y-94882D03*
X36614Y-42913D03*
Y-39764D03*
G54D22*
X-6496Y-8661D03*
X984D03*
G54D31*
X36220Y-81102D03*
X33071D03*
X36220Y-77559D03*
X33071D03*
X34252Y-69291D03*
X31102D03*
X52559Y-76575D03*
X49409D03*
X50000Y-57677D03*
X46850D03*
G54D13*
X4331Y-96260D03*
X2362D03*
Y-68898D03*
X4331D03*
X22047Y-96260D03*
X20079D03*
X18110D03*
X16142D03*
X14173D03*
X12205D03*
X10236D03*
X8268D03*
X6299D03*
Y-68898D03*
X8268D03*
X10236D03*
X12205D03*
X14173D03*
X16142D03*
X18110D03*
X20079D03*
X22047D03*
X24016Y-96260D03*
Y-68898D03*
G54D32*
X29528Y15945D03*
G54D23*
X16142Y-110236D03*
Y-103937D03*
G54D14*
X-492Y-93406D03*
Y-91437D03*
Y-89469D03*
Y-87500D03*
Y-85531D03*
Y-83563D03*
Y-81594D03*
Y-79626D03*
Y-77657D03*
Y-75689D03*
Y-73720D03*
Y-71752D03*
X26870Y-91437D03*
Y-93406D03*
Y-75689D03*
Y-77657D03*
Y-79626D03*
Y-81594D03*
Y-83563D03*
Y-85531D03*
Y-87500D03*
Y-89469D03*
Y-71752D03*
Y-73720D03*
G54D24*
X22244Y-108071D03*
Y-101772D03*
X27362Y-108071D03*
Y-101772D03*
X74409Y-108858D03*
Y-102559D03*
G54D15*
X13189Y-82579D03*
G54D33*
X53858Y-71969D03*
X46850D03*
X53858Y-62992D03*
X46850D03*
G54D25*
X22441Y-114370D03*
X16142D03*
G54D16*
X-7480Y-71654D03*
X-4331D03*
G54D34*
X79331Y-107874D03*
Y-102362D03*
G54D35*
G01X-45276Y-156693D02*
X115744D01*
X115748Y-156689D01*
Y151772D01*
X-45276D01*
Y135630D01*
Y-156693D01*
G54D17*
X6102Y-56693D03*
Y-53150D03*
X22047Y-51969D03*
Y-55512D03*
Y-16535D03*
Y-20079D03*
X28346Y-59055D03*
Y-62598D03*
Y-48031D03*
Y-51575D03*
X29528Y-1181D03*
Y-4724D03*
G54D26*
X22047Y-59055D03*
X18504D03*
X22047Y-62992D03*
X18504D03*
X22047Y-48031D03*
X18504D03*
X22047Y-24409D03*
X18504D03*
X22087Y-8661D03*
X22047D03*
X18504D03*
X22047Y-12598D03*
X18504D03*
X25630Y-8661D03*
X33071D03*
X29528D03*
G54D27*
X22047Y-43799D03*
X18504D03*
Y-29429D03*
X22047D03*
X31890Y-43799D03*
X28346D03*
X25197D03*
Y-29429D03*
X28346D03*
X31890D03*
G54D18*
X197Y-56102D03*
Y-46260D03*
G54D28*
X13780Y-28740D03*
Y-31890D03*
G54D19*
X6102Y-49409D03*
Y-45866D03*
X15354Y-60630D03*
Y-57087D03*
X13780Y-43307D03*
Y-39764D03*
X34843Y-101969D03*
Y-98425D03*
X31496Y-101969D03*
Y-98425D03*
X25591Y-20079D03*
Y-16535D03*
X40551Y-43307D03*
Y-39764D03*
G54D29*
X25197Y-36614D03*
M02*
